G04 #@! TF.FileFunction,Copper,L4,Bot,Signal*
%FSLAX46Y46*%
G04 Gerber Fmt 4.6, Leading zero omitted, Abs format (unit mm)*
G04 Created by KiCad (PCBNEW 4.0.6) date Thu Jun  1 11:47:27 2017*
%MOMM*%
%LPD*%
G01*
G04 APERTURE LIST*
%ADD10C,0.100000*%
%ADD11C,1.998980*%
%ADD12R,1.000000X0.700000*%
%ADD13R,0.700000X1.300000*%
%ADD14R,1.300000X0.700000*%
%ADD15R,1.250000X1.000000*%
%ADD16R,1.143000X0.419100*%
%ADD17O,2.540000X5.080000*%
%ADD18R,1.000000X1.250000*%
%ADD19R,0.900000X1.200000*%
%ADD20R,0.599440X2.199640*%
%ADD21R,1.800000X3.600000*%
%ADD22O,1.800000X3.600000*%
%ADD23C,0.600000*%
%ADD24C,2.000000*%
%ADD25C,0.250000*%
%ADD26C,0.419100*%
%ADD27C,1.000000*%
%ADD28C,2.000000*%
%ADD29C,0.700000*%
%ADD30C,0.254000*%
G04 APERTURE END LIST*
D10*
D11*
X77410000Y-77830000D03*
X76170000Y-76120000D03*
X86500000Y-78900000D03*
X90530000Y-78900000D03*
X94210000Y-78930000D03*
D12*
X94173641Y-62172909D03*
X91573641Y-63122909D03*
X94173641Y-61222909D03*
X91573641Y-61222909D03*
X94173641Y-63122909D03*
X91573641Y-62172909D03*
D13*
X83650000Y-67250000D03*
X81750000Y-67250000D03*
D14*
X74250000Y-63184212D03*
X74250000Y-61284212D03*
D15*
X77500000Y-63234212D03*
X77500000Y-61234212D03*
D14*
X88000000Y-63034212D03*
X88000000Y-64934212D03*
D16*
X78520000Y-72016712D03*
X78520000Y-71381712D03*
X78520000Y-70746712D03*
X78520000Y-70111712D03*
X78520000Y-69476712D03*
X78520000Y-68841712D03*
X78520000Y-65031712D03*
X78520000Y-65666712D03*
X78520000Y-66301712D03*
X78520000Y-66936712D03*
X78520000Y-67571712D03*
X78520000Y-68206712D03*
X73320000Y-68206712D03*
X73320000Y-67571712D03*
X73320000Y-66936712D03*
X73320000Y-66301712D03*
X73320000Y-65666712D03*
X73320000Y-65031712D03*
X73320000Y-68841712D03*
X73320000Y-69476712D03*
X73320000Y-70111712D03*
X73320000Y-70746712D03*
X73320000Y-71381712D03*
X73320000Y-72016712D03*
D12*
X84600000Y-64034212D03*
X82000000Y-64984212D03*
X84600000Y-63084212D03*
X82000000Y-63084212D03*
X84600000Y-64984212D03*
X82000000Y-64034212D03*
D11*
X132550000Y-59500000D03*
X125050000Y-57000000D03*
X125050000Y-59500000D03*
X127550000Y-57000000D03*
X130050000Y-57000000D03*
X132550000Y-57000000D03*
X130050000Y-59500000D03*
X127550000Y-59500000D03*
X146000000Y-52090000D03*
X148500000Y-52090000D03*
X148500000Y-47090000D03*
X146000000Y-47090000D03*
X148500000Y-49590000D03*
X146000000Y-49590000D03*
X148500000Y-44590000D03*
X146000000Y-42090000D03*
X146000000Y-44590000D03*
X153500000Y-49590000D03*
X153500000Y-52090000D03*
X151000000Y-52090000D03*
X151000000Y-49590000D03*
X151000000Y-47090000D03*
X153500000Y-44590000D03*
X151000000Y-44590000D03*
X153500000Y-47090000D03*
X153500000Y-42090000D03*
X151000000Y-42090000D03*
X148500000Y-42090000D03*
X148500000Y-57090000D03*
X148500000Y-59590000D03*
X141000000Y-59590000D03*
X141000000Y-57090000D03*
X135050000Y-57000000D03*
X137550000Y-59500000D03*
X137550000Y-57000000D03*
X135050000Y-59500000D03*
X143500000Y-59590000D03*
X146000000Y-54590000D03*
X146000000Y-59590000D03*
X146000000Y-57090000D03*
X143500000Y-57090000D03*
X153500000Y-57090000D03*
X153500000Y-54590000D03*
X151000000Y-54590000D03*
X148500000Y-54590000D03*
X153500000Y-59590000D03*
X151000000Y-59590000D03*
X151000000Y-57090000D03*
X137550000Y-47000000D03*
X135050000Y-47000000D03*
X132550000Y-47000000D03*
X137550000Y-44500000D03*
X135050000Y-44500000D03*
X132550000Y-44500000D03*
X127550000Y-42000000D03*
X130050000Y-44500000D03*
X127550000Y-44500000D03*
X125050000Y-44500000D03*
X130050000Y-42000000D03*
X125050000Y-42000000D03*
X137550000Y-49500000D03*
X137550000Y-54500000D03*
X132550000Y-54500000D03*
X137550000Y-52000000D03*
X132550000Y-52000000D03*
X132550000Y-49500000D03*
X127550000Y-47000000D03*
X130050000Y-49500000D03*
X125050000Y-49500000D03*
X130050000Y-47000000D03*
X127550000Y-49500000D03*
X125050000Y-47000000D03*
D17*
X142770000Y-52700000D03*
X135150000Y-52700000D03*
D11*
X141000000Y-44590000D03*
X143500000Y-47090000D03*
X141000000Y-49590000D03*
X141000000Y-47090000D03*
X143500000Y-44590000D03*
X127550000Y-54500000D03*
X130050000Y-54500000D03*
X125050000Y-54500000D03*
X130050000Y-52000000D03*
X127550000Y-52000000D03*
X125050000Y-52000000D03*
D18*
X87500000Y-70300000D03*
X85500000Y-70300000D03*
X95100000Y-75600000D03*
X97100000Y-75600000D03*
D19*
X99450000Y-63200000D03*
X96150000Y-63200000D03*
D20*
X89845000Y-68401580D03*
X91115000Y-68401580D03*
X92385000Y-68401580D03*
X93655000Y-68401580D03*
X93655000Y-73598420D03*
X92385000Y-73598420D03*
X91115000Y-73598420D03*
X89845000Y-73598420D03*
D14*
X64750000Y-55150000D03*
X64750000Y-53250000D03*
X76180000Y-55150000D03*
X76180000Y-53250000D03*
X68560000Y-55150000D03*
X68560000Y-53250000D03*
X83800000Y-55150000D03*
X83800000Y-53250000D03*
X60940000Y-55150000D03*
X60940000Y-53250000D03*
X80000000Y-55150000D03*
X80000000Y-53250000D03*
D17*
X102020000Y-53000000D03*
X94400000Y-53000000D03*
D21*
X83810000Y-49400000D03*
D22*
X80000000Y-49400000D03*
X76190000Y-49400000D03*
X72380000Y-49400000D03*
X68570000Y-49400000D03*
X64760000Y-49400000D03*
X60950000Y-49400000D03*
X57140000Y-49400000D03*
D17*
X117320000Y-52900000D03*
X109700000Y-52900000D03*
D23*
X82500000Y-55200000D03*
X81300000Y-55200000D03*
X81900000Y-55200000D03*
X73000000Y-55100000D03*
X75700000Y-73400000D03*
D24*
X107200000Y-64800000D03*
X96400000Y-66500000D03*
D23*
X75893288Y-68206712D03*
X74680000Y-75440000D03*
X123200000Y-65700000D03*
X122000000Y-64700000D03*
X109300000Y-70200000D03*
X84900000Y-68500000D03*
X68700000Y-67300000D03*
X64700000Y-64200000D03*
X88500000Y-75500000D03*
X90100000Y-63300000D03*
X80300000Y-64300000D03*
X75700000Y-69400000D03*
X71895046Y-68300000D03*
X69900000Y-67600000D03*
D24*
X99450000Y-61650000D03*
D23*
X81250000Y-61250000D03*
X91900000Y-58500000D03*
X91100000Y-66900000D03*
X89800000Y-66900000D03*
X88700000Y-70400000D03*
X88700000Y-69600000D03*
X83300000Y-70100000D03*
X86600000Y-73100000D03*
X63000000Y-63200000D03*
X71000000Y-63250000D03*
X80900000Y-73600000D03*
X89590440Y-71709560D03*
X83409560Y-71709560D03*
X87000000Y-61200000D03*
X76300000Y-72500000D03*
X85990449Y-66190449D03*
X55400000Y-66200000D03*
X76400000Y-70700000D03*
X63600000Y-57700000D03*
X65200000Y-60900000D03*
X66000000Y-65600000D03*
X72100000Y-63900000D03*
X77000000Y-67500000D03*
X78600000Y-64323062D03*
X99900000Y-58100000D03*
D25*
X81300000Y-55200000D02*
X81850000Y-55200000D01*
X81900000Y-55150000D02*
X81850000Y-55200000D01*
X81900000Y-55200000D02*
X81900000Y-55150000D01*
D26*
X73320000Y-72920000D02*
X73320000Y-72016712D01*
D27*
X75700000Y-73400000D02*
X75400000Y-73100000D01*
X75400000Y-73100000D02*
X73500000Y-73100000D01*
X73500000Y-73100000D02*
X73320000Y-72920000D01*
D26*
X73320000Y-72016712D02*
X73681950Y-72016712D01*
D27*
X83800000Y-55150000D02*
X84100000Y-55150000D01*
D26*
X72870000Y-55150000D02*
X74210000Y-55150000D01*
D27*
X80000000Y-55150000D02*
X82500000Y-55200000D01*
X82500000Y-55200000D02*
X83800000Y-55150000D01*
X76180000Y-55150000D02*
X80000000Y-55150000D01*
X68560000Y-55150000D02*
X74210000Y-55150000D01*
X74210000Y-55150000D02*
X76180000Y-55150000D01*
X64750000Y-55150000D02*
X68560000Y-55150000D01*
X60940000Y-55150000D02*
X64750000Y-55150000D01*
D28*
X107200000Y-73000000D02*
X107200000Y-64800000D01*
X104600000Y-75600000D02*
X107200000Y-73000000D01*
X97100000Y-75600000D02*
X104600000Y-75600000D01*
D29*
X95900000Y-66000000D02*
X96400000Y-66500000D01*
X94200000Y-66000000D02*
X95900000Y-66000000D01*
X88400000Y-66000000D02*
X94200000Y-66000000D01*
X87150000Y-67250000D02*
X88400000Y-66000000D01*
X83650000Y-67250000D02*
X87150000Y-67250000D01*
D26*
X74250000Y-61284212D02*
X77450000Y-61284212D01*
X77450000Y-61284212D02*
X77500000Y-61234212D01*
X75670000Y-79480000D02*
X81079120Y-79480000D01*
X81079120Y-79480000D02*
X83549560Y-77009560D01*
X74680000Y-78490000D02*
X75670000Y-79480000D01*
X74680000Y-75440000D02*
X74680000Y-78490000D01*
X97049560Y-77009560D02*
X97840000Y-77800000D01*
X83549560Y-77009560D02*
X97049560Y-77009560D01*
X97840000Y-77800000D02*
X111100000Y-77800000D01*
X111100000Y-77800000D02*
X123200000Y-65700000D01*
X73320000Y-68206712D02*
X75038052Y-68206712D01*
X75038052Y-68206712D02*
X75893288Y-68206712D01*
X116200000Y-70200000D02*
X121700000Y-64700000D01*
X121700000Y-64700000D02*
X122000000Y-64700000D01*
X109300000Y-70200000D02*
X116200000Y-70200000D01*
X84900000Y-68500000D02*
X81300000Y-68500000D01*
X81300000Y-68500000D02*
X81200000Y-68400000D01*
X81200000Y-68400000D02*
X79736712Y-66936712D01*
X78520000Y-66936712D02*
X79736712Y-66936712D01*
X69500000Y-66500000D02*
X68700000Y-67300000D01*
X70200000Y-66500000D02*
X69500000Y-66500000D01*
X70636712Y-66936712D02*
X70200000Y-66500000D01*
X73320000Y-66936712D02*
X70636712Y-66936712D01*
X63600000Y-65300000D02*
X64700000Y-64200000D01*
X63600000Y-68200000D02*
X63600000Y-65300000D01*
X64300000Y-68900000D02*
X63600000Y-68200000D01*
X65227808Y-68900000D02*
X64300000Y-68900000D01*
X66900000Y-68900000D02*
X65227808Y-68900000D01*
X68111712Y-70111712D02*
X66900000Y-68900000D01*
X71872500Y-70111712D02*
X68111712Y-70111712D01*
X73320000Y-70111712D02*
X71872500Y-70111712D01*
D29*
X91573641Y-62172909D02*
X90227091Y-62172909D01*
X90100000Y-62300000D02*
X90100000Y-63300000D01*
X90227091Y-62172909D02*
X90100000Y-62300000D01*
X91573641Y-63122909D02*
X90277091Y-63122909D01*
X90277091Y-63122909D02*
X90100000Y-63300000D01*
D26*
X78520000Y-70111712D02*
X77529400Y-70111712D01*
X77529400Y-70111712D02*
X76817688Y-69400000D01*
X76817688Y-69400000D02*
X76124264Y-69400000D01*
X76124264Y-69400000D02*
X75700000Y-69400000D01*
X88500000Y-75500000D02*
X95000000Y-75500000D01*
X95000000Y-75500000D02*
X95100000Y-75600000D01*
X85600000Y-73500000D02*
X87600000Y-75500000D01*
X87600000Y-75500000D02*
X88500000Y-75500000D01*
X94173641Y-63122909D02*
X96072909Y-63122909D01*
X96072909Y-63122909D02*
X96150000Y-63200000D01*
X94173641Y-62172909D02*
X92800000Y-62172909D01*
X92800000Y-62172909D02*
X91573641Y-62172909D01*
X91573641Y-62172909D02*
X91573641Y-63122909D01*
X94173641Y-62172909D02*
X94173641Y-63122909D01*
X91573641Y-63122909D02*
X94173641Y-63122909D01*
X78520000Y-70111712D02*
X79360608Y-70111712D01*
X83900000Y-73500000D02*
X85600000Y-73500000D01*
X79360608Y-70111712D02*
X80668004Y-71419108D01*
X80668004Y-71419108D02*
X81819108Y-71419108D01*
X81819108Y-71419108D02*
X83900000Y-73500000D01*
D28*
X94400000Y-53000000D02*
X94400000Y-48460000D01*
X94400000Y-48460000D02*
X96160000Y-46700000D01*
X96160000Y-46700000D02*
X108040000Y-46700000D01*
X108040000Y-46700000D02*
X109700000Y-48360000D01*
X109700000Y-48360000D02*
X109700000Y-52900000D01*
D26*
X90100000Y-63903312D02*
X90100000Y-63300000D01*
X88000000Y-64934212D02*
X89069100Y-64934212D01*
X89069100Y-64934212D02*
X90100000Y-63903312D01*
X81300000Y-64100000D02*
X81934212Y-64100000D01*
X81934212Y-64100000D02*
X82000000Y-64034212D01*
X81100000Y-64300000D02*
X81300000Y-64100000D01*
X80300000Y-64300000D02*
X81100000Y-64300000D01*
X75141712Y-68841712D02*
X75700000Y-69400000D01*
X74797500Y-68841712D02*
X75141712Y-68841712D01*
X73320000Y-68841712D02*
X72436758Y-68841712D01*
X72436758Y-68841712D02*
X71895046Y-68300000D01*
X87950000Y-64984212D02*
X88000000Y-64934212D01*
X84600000Y-64984212D02*
X87950000Y-64984212D01*
X84600000Y-64984212D02*
X84600000Y-64034212D01*
X84600000Y-64034212D02*
X82000000Y-64034212D01*
X82000000Y-64984212D02*
X84600000Y-64984212D01*
X82000000Y-64034212D02*
X82000000Y-64984212D01*
X73320000Y-68841712D02*
X74797500Y-68841712D01*
D28*
X132550000Y-52000000D02*
X132550000Y-57000000D01*
D26*
X69912390Y-67587610D02*
X73320000Y-67587610D01*
X69900000Y-67600000D02*
X69912390Y-67587610D01*
X73320000Y-67587610D02*
X73320000Y-67571712D01*
X76750000Y-64484212D02*
X77500000Y-63734212D01*
X77500000Y-63734212D02*
X77500000Y-63234212D01*
D27*
X77500000Y-63234212D02*
X80689998Y-63234212D01*
D26*
X76750000Y-66234212D02*
X76750000Y-64484212D01*
X75396610Y-67587602D02*
X76750000Y-66234212D01*
D27*
X80939999Y-62984211D02*
X82000000Y-62984211D01*
X80689998Y-63234212D02*
X80939999Y-62984211D01*
D26*
X73337500Y-67571712D02*
X73353390Y-67587602D01*
X73353390Y-67587602D02*
X75396610Y-67587602D01*
X73320000Y-67571712D02*
X73337500Y-67571712D01*
D27*
X83810000Y-49400000D02*
X83810000Y-53240000D01*
X83810000Y-53240000D02*
X83800000Y-53250000D01*
D29*
X94173641Y-61222909D02*
X99022909Y-61222909D01*
X99022909Y-61222909D02*
X99450000Y-61650000D01*
D28*
X96700000Y-71500000D02*
X99450000Y-68750000D01*
X99450000Y-68750000D02*
X99450000Y-63200000D01*
X96000000Y-71500000D02*
X96700000Y-71500000D01*
X93901580Y-73598420D02*
X96000000Y-71500000D01*
X93655000Y-73598420D02*
X93901580Y-73598420D01*
X99450000Y-63200000D02*
X99450000Y-61650000D01*
X92385000Y-73598420D02*
X93655000Y-73598420D01*
X91115000Y-73598420D02*
X92385000Y-73598420D01*
X89845000Y-73598420D02*
X91115000Y-73598420D01*
D26*
X83750000Y-61250000D02*
X84600000Y-62100000D01*
X84600000Y-62100000D02*
X84600000Y-63084212D01*
X81250000Y-61250000D02*
X83750000Y-61250000D01*
X87950000Y-63084212D02*
X88000000Y-63034212D01*
X84600000Y-63084212D02*
X87950000Y-63084212D01*
X91100000Y-66900000D02*
X91100000Y-68386580D01*
X91100000Y-68386580D02*
X91115000Y-68401580D01*
X91100000Y-66900000D02*
X89800000Y-66900000D01*
X92400000Y-66900000D02*
X91100000Y-66900000D01*
X89800000Y-66900000D02*
X89800000Y-68356580D01*
X89800000Y-68356580D02*
X89845000Y-68401580D01*
X92400000Y-67586480D02*
X92400000Y-66900000D01*
X92385000Y-68401580D02*
X92385000Y-67601480D01*
X92385000Y-67601480D02*
X92400000Y-67586480D01*
X87500000Y-70300000D02*
X88000000Y-70300000D01*
X88000000Y-70300000D02*
X88700000Y-69600000D01*
X81100000Y-70100000D02*
X83300000Y-70100000D01*
X79841712Y-68841712D02*
X81100000Y-70100000D01*
X78520000Y-68841712D02*
X79841712Y-68841712D01*
D28*
X87500000Y-70300000D02*
X87946580Y-70300000D01*
X87946580Y-70300000D02*
X89845000Y-68401580D01*
X91115000Y-68401580D02*
X92155279Y-68401580D01*
X89845000Y-68401580D02*
X91115000Y-68401580D01*
D27*
X85500000Y-72000000D02*
X86600000Y-73100000D01*
X85500000Y-70300000D02*
X85500000Y-72000000D01*
D26*
X84600000Y-69300000D02*
X85500000Y-70200000D01*
X85500000Y-70200000D02*
X85500000Y-70300000D01*
X81224448Y-69300000D02*
X84600000Y-69300000D01*
X80124448Y-68200000D02*
X81224448Y-69300000D01*
X79409954Y-68200000D02*
X80124448Y-68200000D01*
X78520000Y-68206712D02*
X79403242Y-68206712D01*
X79403242Y-68206712D02*
X79409954Y-68200000D01*
X56510000Y-63810000D02*
X56510000Y-51710000D01*
X61900000Y-64200000D02*
X62600000Y-63500000D01*
X69625736Y-65250000D02*
X67300000Y-65250000D01*
X66400001Y-63200001D02*
X67300000Y-64100000D01*
X67300000Y-64100000D02*
X67300000Y-65250000D01*
X62600000Y-63500000D02*
X62899999Y-63200001D01*
X62899999Y-63200001D02*
X66400001Y-63200001D01*
X56900000Y-64200000D02*
X61900000Y-64200000D01*
X56510000Y-63810000D02*
X56900000Y-64200000D01*
X56510000Y-63760000D02*
X56510000Y-63810000D01*
X73320000Y-65666712D02*
X70566712Y-65666712D01*
X70566712Y-65666712D02*
X70100000Y-65200000D01*
X70100000Y-65200000D02*
X69675736Y-65200000D01*
X69675736Y-65200000D02*
X69625736Y-65250000D01*
X71000000Y-64300000D02*
X70100000Y-65200000D01*
X71000000Y-63250000D02*
X71000000Y-64300000D01*
X56510000Y-51710000D02*
X57140000Y-51080000D01*
X57140000Y-51080000D02*
X57140000Y-49400000D01*
X79800000Y-72500000D02*
X80900000Y-73600000D01*
X79800000Y-71778470D02*
X79800000Y-72500000D01*
X78520000Y-71381712D02*
X79403242Y-71381712D01*
X79403242Y-71381712D02*
X79800000Y-71778470D01*
X93700000Y-69700000D02*
X93655000Y-69655000D01*
X93655000Y-69655000D02*
X93655000Y-68401580D01*
X92900000Y-70500000D02*
X93700000Y-69700000D01*
X90800000Y-70500000D02*
X92900000Y-70500000D01*
X89590440Y-71709560D02*
X90800000Y-70500000D01*
X82500000Y-70800000D02*
X83409560Y-71709560D01*
X80924448Y-70800000D02*
X82500000Y-70800000D01*
X78520000Y-69476712D02*
X79601160Y-69476712D01*
X79601160Y-69476712D02*
X80924448Y-70800000D01*
X87000000Y-61200000D02*
X91550732Y-61200000D01*
X91550732Y-61200000D02*
X91573641Y-61222909D01*
X76300000Y-72083470D02*
X76300000Y-72500000D01*
X77636758Y-70746712D02*
X76300000Y-72083470D01*
X78520000Y-70746712D02*
X77636758Y-70746712D01*
X81590449Y-66190449D02*
X85990449Y-66190449D01*
X81590449Y-66190449D02*
X81066712Y-65666712D01*
X81066712Y-65666712D02*
X78520000Y-65666712D01*
X78520000Y-66301712D02*
X79801712Y-66301712D01*
X81600000Y-67100000D02*
X81750000Y-67250000D01*
X79801712Y-66301712D02*
X79817602Y-66317602D01*
X79817602Y-66317602D02*
X80517602Y-66317602D01*
X80517602Y-66317602D02*
X81300000Y-67100000D01*
X81300000Y-67100000D02*
X81600000Y-67100000D01*
X73320000Y-66301712D02*
X74310600Y-66301712D01*
X74250000Y-63953312D02*
X74250000Y-63184212D01*
X75000000Y-65612312D02*
X75000000Y-64703312D01*
X74310600Y-66301712D02*
X75000000Y-65612312D01*
X75000000Y-64703312D02*
X74250000Y-63953312D01*
X55400000Y-69500000D02*
X55400000Y-66200000D01*
X57800000Y-71900000D02*
X55400000Y-69500000D01*
X70000000Y-71900000D02*
X57800000Y-71900000D01*
X70518288Y-71381712D02*
X70000000Y-71900000D01*
X72302500Y-71381712D02*
X70518288Y-71381712D01*
X73320000Y-71381712D02*
X72302500Y-71381712D01*
D27*
X64750000Y-53250000D02*
X64750000Y-49410000D01*
X64750000Y-49410000D02*
X64760000Y-49400000D01*
D26*
X76400000Y-70700000D02*
X76353288Y-70746712D01*
X76353288Y-70746712D02*
X73320000Y-70746712D01*
X73320000Y-70746712D02*
X74262500Y-70746712D01*
D27*
X76180000Y-53250000D02*
X76180000Y-49410000D01*
X76180000Y-49410000D02*
X76190000Y-49400000D01*
D26*
X66000000Y-65600000D02*
X66000000Y-66300000D01*
X69176712Y-69476712D02*
X67800000Y-68100000D01*
X69176712Y-69476712D02*
X73320000Y-69476712D01*
X66000000Y-66300000D02*
X67800000Y-68100000D01*
X65200000Y-59300000D02*
X63600000Y-57700000D01*
X65200000Y-60900000D02*
X65200000Y-59300000D01*
X66000000Y-65590450D02*
X66000000Y-65600000D01*
D27*
X68560000Y-53250000D02*
X68560000Y-49410000D01*
X68560000Y-49410000D02*
X68570000Y-49400000D01*
D26*
X72100000Y-63900000D02*
X72100000Y-56850000D01*
X72100000Y-56850000D02*
X72000000Y-56750000D01*
X77457688Y-67500000D02*
X77000000Y-67500000D01*
X78520000Y-67571712D02*
X77529400Y-67571712D01*
X77529400Y-67571712D02*
X77457688Y-67500000D01*
D27*
X60940000Y-53250000D02*
X60940000Y-52250000D01*
X60940000Y-52250000D02*
X60940000Y-49410000D01*
D26*
X72000000Y-56750000D02*
X62250000Y-56750000D01*
X62250000Y-56750000D02*
X61750000Y-56250000D01*
X61750000Y-56250000D02*
X59500000Y-56250000D01*
X59500000Y-56250000D02*
X59000000Y-55750000D01*
X59000000Y-55750000D02*
X59000000Y-54190000D01*
X59000000Y-54190000D02*
X60940000Y-52250000D01*
D27*
X60940000Y-49410000D02*
X60950000Y-49400000D01*
D26*
X78600000Y-64323062D02*
X78520000Y-64403062D01*
X78520000Y-65031712D02*
X78520000Y-64403062D01*
D27*
X80000000Y-49400000D02*
X80000000Y-53250000D01*
D26*
X78520000Y-72016712D02*
X78520000Y-72645362D01*
X53300000Y-48100000D02*
X56100000Y-45300000D01*
X78520000Y-72645362D02*
X76765362Y-74400000D01*
X76765362Y-74400000D02*
X58400000Y-74400000D01*
X69180000Y-45300000D02*
X72380000Y-48500000D01*
X58400000Y-74400000D02*
X53300000Y-69300000D01*
X53300000Y-69300000D02*
X53300000Y-48100000D01*
X56100000Y-45300000D02*
X69180000Y-45300000D01*
X72380000Y-48500000D02*
X72380000Y-49400000D01*
D27*
X102020000Y-54270000D02*
X102020000Y-53000000D01*
D30*
G36*
X155123000Y-62673000D02*
X139877000Y-62673000D01*
X139877000Y-40685000D01*
X155123000Y-40685000D01*
X155123000Y-62673000D01*
X155123000Y-62673000D01*
G37*
X155123000Y-62673000D02*
X139877000Y-62673000D01*
X139877000Y-40685000D01*
X155123000Y-40685000D01*
X155123000Y-62673000D01*
G36*
X138873000Y-64200000D02*
X138883006Y-64249410D01*
X138911447Y-64291035D01*
X138953841Y-64318315D01*
X139000000Y-64327000D01*
X156000000Y-64327000D01*
X156049410Y-64316994D01*
X156091035Y-64288553D01*
X156118315Y-64246159D01*
X156127000Y-64200000D01*
X156127000Y-60393109D01*
X158014657Y-60393109D01*
X158316218Y-61122943D01*
X158874120Y-61681819D01*
X159603427Y-61984654D01*
X160393109Y-61985343D01*
X161122943Y-61683782D01*
X161681819Y-61125880D01*
X161984654Y-60396573D01*
X161985343Y-59606891D01*
X161683782Y-58877057D01*
X161125880Y-58318181D01*
X160396573Y-58015346D01*
X159606891Y-58014657D01*
X158877057Y-58316218D01*
X158318181Y-58874120D01*
X158015346Y-59603427D01*
X158014657Y-60393109D01*
X156127000Y-60393109D01*
X156127000Y-40685000D01*
X169315000Y-40685000D01*
X169315000Y-79315000D01*
X95819934Y-79315000D01*
X95844206Y-79256547D01*
X95844774Y-78606306D01*
X95596462Y-78005345D01*
X95445491Y-77854110D01*
X96699736Y-77854110D01*
X97242813Y-78397187D01*
X97516805Y-78580262D01*
X97840000Y-78644550D01*
X111100000Y-78644550D01*
X111423195Y-78580262D01*
X111697187Y-78397187D01*
X123511349Y-66583025D01*
X123728943Y-66493117D01*
X123992192Y-66230327D01*
X124134838Y-65886799D01*
X124135162Y-65514833D01*
X123993117Y-65171057D01*
X123730327Y-64907808D01*
X123386799Y-64765162D01*
X123014833Y-64764838D01*
X122934915Y-64797859D01*
X122935162Y-64514833D01*
X122793117Y-64171057D01*
X122530327Y-63907808D01*
X122186799Y-63765162D01*
X121814833Y-63764838D01*
X121498559Y-63895519D01*
X121376805Y-63919738D01*
X121102813Y-64102813D01*
X115850176Y-69355450D01*
X109704236Y-69355450D01*
X109486799Y-69265162D01*
X109114833Y-69264838D01*
X108835000Y-69380462D01*
X108835000Y-64801427D01*
X108835284Y-64476205D01*
X108586894Y-63875057D01*
X108127363Y-63414722D01*
X107526648Y-63165284D01*
X106876205Y-63164716D01*
X106275057Y-63413106D01*
X105814722Y-63872637D01*
X105565284Y-64473352D01*
X105564716Y-65123795D01*
X105565000Y-65124482D01*
X105565000Y-72322761D01*
X103922760Y-73965000D01*
X97100000Y-73965000D01*
X96474313Y-74089457D01*
X95943880Y-74443880D01*
X95589457Y-74974313D01*
X95465000Y-75600000D01*
X95577388Y-76165010D01*
X83549560Y-76165010D01*
X83226365Y-76229298D01*
X82952373Y-76412373D01*
X80729296Y-78635450D01*
X78845348Y-78635450D01*
X79044206Y-78156547D01*
X79044774Y-77506306D01*
X78796462Y-76905345D01*
X78337073Y-76445154D01*
X77804400Y-76223969D01*
X77804774Y-75796306D01*
X77556462Y-75195345D01*
X77360210Y-74998750D01*
X77362549Y-74997187D01*
X79117187Y-73242549D01*
X79209708Y-73104082D01*
X80016975Y-73911349D01*
X80106883Y-74128943D01*
X80369673Y-74392192D01*
X80713201Y-74534838D01*
X81085167Y-74535162D01*
X81428943Y-74393117D01*
X81692192Y-74130327D01*
X81834838Y-73786799D01*
X81835162Y-73414833D01*
X81693117Y-73071057D01*
X81430327Y-72807808D01*
X81211186Y-72716812D01*
X80644550Y-72150176D01*
X80644550Y-71778470D01*
X80605283Y-71581064D01*
X80924448Y-71644550D01*
X82150176Y-71644550D01*
X82526535Y-72020909D01*
X82616443Y-72238503D01*
X82879233Y-72501752D01*
X83222761Y-72644398D01*
X83594727Y-72644722D01*
X83938503Y-72502677D01*
X84201752Y-72239887D01*
X84344398Y-71896359D01*
X84344722Y-71524393D01*
X84202677Y-71180617D01*
X83939887Y-70917368D01*
X83844378Y-70877709D01*
X84092192Y-70630327D01*
X84234838Y-70286799D01*
X84234962Y-70144550D01*
X84250176Y-70144550D01*
X84352560Y-70246934D01*
X84352560Y-70925000D01*
X84365000Y-70991113D01*
X84365000Y-72000000D01*
X84451397Y-72434346D01*
X84620081Y-72686799D01*
X84697434Y-72802566D01*
X85797434Y-73902566D01*
X86165655Y-74148603D01*
X86600000Y-74235000D01*
X87034345Y-74148603D01*
X87402566Y-73902566D01*
X87648603Y-73534345D01*
X87735000Y-73100000D01*
X87700588Y-72927000D01*
X88365015Y-72927000D01*
X88334457Y-72972733D01*
X88210000Y-73598420D01*
X88334457Y-74224107D01*
X88688880Y-74754540D01*
X88940007Y-74922337D01*
X88942118Y-74933557D01*
X89081190Y-75149681D01*
X89293390Y-75294671D01*
X89545280Y-75345680D01*
X90144720Y-75345680D01*
X90380037Y-75301402D01*
X90479536Y-75237376D01*
X90563390Y-75294671D01*
X90815280Y-75345680D01*
X91414720Y-75345680D01*
X91650037Y-75301402D01*
X91749536Y-75237376D01*
X91833390Y-75294671D01*
X92085280Y-75345680D01*
X92684720Y-75345680D01*
X92920037Y-75301402D01*
X93019536Y-75237376D01*
X93103390Y-75294671D01*
X93355280Y-75345680D01*
X93954720Y-75345680D01*
X94190037Y-75301402D01*
X94406161Y-75162330D01*
X94429312Y-75128448D01*
X94527268Y-75108963D01*
X95057700Y-74754540D01*
X96677240Y-73135000D01*
X96699995Y-73135000D01*
X96700000Y-73135001D01*
X97325688Y-73010543D01*
X97450719Y-72927000D01*
X98100000Y-72927000D01*
X98149410Y-72916994D01*
X98191035Y-72888553D01*
X98218315Y-72846159D01*
X98227000Y-72800000D01*
X98227000Y-72285240D01*
X100606117Y-69906122D01*
X100606120Y-69906120D01*
X100838926Y-69557700D01*
X100960543Y-69375688D01*
X101085000Y-68750000D01*
X101085000Y-61651427D01*
X101085284Y-61326205D01*
X100836894Y-60725057D01*
X100377363Y-60264722D01*
X99776648Y-60015284D01*
X99126205Y-60014716D01*
X98586038Y-60237909D01*
X98227000Y-60237909D01*
X98227000Y-58285167D01*
X98964838Y-58285167D01*
X99106883Y-58628943D01*
X99369673Y-58892192D01*
X99713201Y-59034838D01*
X100085167Y-59035162D01*
X100428943Y-58893117D01*
X100692192Y-58630327D01*
X100834838Y-58286799D01*
X100835162Y-57914833D01*
X100693117Y-57571057D01*
X100430327Y-57307808D01*
X100086799Y-57165162D01*
X99714833Y-57164838D01*
X99371057Y-57306883D01*
X99107808Y-57569673D01*
X98965162Y-57913201D01*
X98964838Y-58285167D01*
X98227000Y-58285167D01*
X98227000Y-56500000D01*
X98216994Y-56450590D01*
X98188553Y-56408965D01*
X98146159Y-56381685D01*
X98100000Y-56373000D01*
X85300000Y-56373000D01*
X85250590Y-56383006D01*
X85208965Y-56411447D01*
X85181685Y-56453841D01*
X85173000Y-56500000D01*
X85173000Y-61478626D01*
X84347187Y-60652813D01*
X84073195Y-60469738D01*
X83750000Y-60405450D01*
X81654236Y-60405450D01*
X81436799Y-60315162D01*
X81064833Y-60314838D01*
X80721057Y-60456883D01*
X80457808Y-60719673D01*
X80315162Y-61063201D01*
X80314838Y-61435167D01*
X80456883Y-61778943D01*
X80595445Y-61917747D01*
X80505653Y-61935608D01*
X80260803Y-62099212D01*
X78644146Y-62099212D01*
X78721431Y-61986102D01*
X78772440Y-61734212D01*
X78772440Y-60734212D01*
X78728162Y-60498895D01*
X78589090Y-60282771D01*
X78376890Y-60137781D01*
X78125000Y-60086772D01*
X76875000Y-60086772D01*
X76639683Y-60131050D01*
X76423559Y-60270122D01*
X76307717Y-60439662D01*
X75300998Y-60439662D01*
X75151890Y-60337781D01*
X74900000Y-60286772D01*
X73600000Y-60286772D01*
X73364683Y-60331050D01*
X73148559Y-60470122D01*
X73003569Y-60682322D01*
X72952560Y-60934212D01*
X72952560Y-61634212D01*
X72996838Y-61869529D01*
X73135910Y-62085653D01*
X73348110Y-62230643D01*
X73361197Y-62233293D01*
X73148559Y-62370122D01*
X73003569Y-62582322D01*
X72952560Y-62834212D01*
X72952560Y-63514920D01*
X72944550Y-63495535D01*
X72944550Y-56850000D01*
X72880262Y-56526805D01*
X72718694Y-56285000D01*
X79988655Y-56285000D01*
X82477305Y-56334773D01*
X82510413Y-56328873D01*
X82543622Y-56334161D01*
X83821807Y-56285000D01*
X84100000Y-56285000D01*
X84534346Y-56198603D01*
X84673995Y-56105292D01*
X84685317Y-56103162D01*
X84901441Y-55964090D01*
X85046431Y-55751890D01*
X85050683Y-55730894D01*
X85148603Y-55584346D01*
X85235000Y-55150000D01*
X85148603Y-54715654D01*
X85055292Y-54576005D01*
X85053162Y-54564683D01*
X84914090Y-54348559D01*
X84701890Y-54203569D01*
X84688803Y-54200919D01*
X84901441Y-54064090D01*
X85046431Y-53851890D01*
X85097440Y-53600000D01*
X85097440Y-52900000D01*
X85053162Y-52664683D01*
X84945000Y-52496594D01*
X84945000Y-51803222D01*
X84945317Y-51803162D01*
X85155678Y-51667798D01*
X100115000Y-51667798D01*
X100115000Y-54332202D01*
X100260009Y-55061214D01*
X100672962Y-55679240D01*
X101290988Y-56092193D01*
X102020000Y-56237202D01*
X102749012Y-56092193D01*
X103367038Y-55679240D01*
X103779991Y-55061214D01*
X103925000Y-54332202D01*
X103925000Y-51667798D01*
X103905109Y-51567798D01*
X115415000Y-51567798D01*
X115415000Y-54232202D01*
X115560009Y-54961214D01*
X115972962Y-55579240D01*
X116590988Y-55992193D01*
X117320000Y-56137202D01*
X118049012Y-55992193D01*
X118667038Y-55579240D01*
X119079991Y-54961214D01*
X119225000Y-54232202D01*
X119225000Y-51567798D01*
X119079991Y-50838786D01*
X118667038Y-50220760D01*
X118049012Y-49807807D01*
X117320000Y-49662798D01*
X116590988Y-49807807D01*
X115972962Y-50220760D01*
X115560009Y-50838786D01*
X115415000Y-51567798D01*
X103905109Y-51567798D01*
X103779991Y-50938786D01*
X103367038Y-50320760D01*
X102749012Y-49907807D01*
X102020000Y-49762798D01*
X101290988Y-49907807D01*
X100672962Y-50320760D01*
X100260009Y-50938786D01*
X100115000Y-51667798D01*
X85155678Y-51667798D01*
X85161441Y-51664090D01*
X85306431Y-51451890D01*
X85357440Y-51200000D01*
X85357440Y-47600000D01*
X85313162Y-47364683D01*
X85174090Y-47148559D01*
X84961890Y-47003569D01*
X84710000Y-46952560D01*
X82910000Y-46952560D01*
X82674683Y-46996838D01*
X82458559Y-47135910D01*
X82313569Y-47348110D01*
X82262560Y-47600000D01*
X82262560Y-51200000D01*
X82306838Y-51435317D01*
X82445910Y-51651441D01*
X82658110Y-51796431D01*
X82675000Y-51799851D01*
X82675000Y-52470390D01*
X82553569Y-52648110D01*
X82502560Y-52900000D01*
X82502560Y-53600000D01*
X82546838Y-53835317D01*
X82685910Y-54051441D01*
X82693627Y-54056714D01*
X82489534Y-54064564D01*
X81119835Y-54037170D01*
X81246431Y-53851890D01*
X81297440Y-53600000D01*
X81297440Y-52900000D01*
X81253162Y-52664683D01*
X81135000Y-52481054D01*
X81135000Y-51358895D01*
X81418155Y-50935123D01*
X81535000Y-50347704D01*
X81535000Y-48452296D01*
X81418155Y-47864877D01*
X81085409Y-47366887D01*
X80587419Y-47034141D01*
X80000000Y-46917296D01*
X79412581Y-47034141D01*
X78914591Y-47366887D01*
X78581845Y-47864877D01*
X78465000Y-48452296D01*
X78465000Y-50347704D01*
X78581845Y-50935123D01*
X78865000Y-51358895D01*
X78865000Y-52485025D01*
X78753569Y-52648110D01*
X78702560Y-52900000D01*
X78702560Y-53600000D01*
X78746838Y-53835317D01*
X78862461Y-54015000D01*
X77314983Y-54015000D01*
X77426431Y-53851890D01*
X77477440Y-53600000D01*
X77477440Y-52900000D01*
X77433162Y-52664683D01*
X77315000Y-52481054D01*
X77315000Y-51373861D01*
X77608155Y-50935123D01*
X77725000Y-50347704D01*
X77725000Y-48452296D01*
X77608155Y-47864877D01*
X77275409Y-47366887D01*
X76777419Y-47034141D01*
X76190000Y-46917296D01*
X75602581Y-47034141D01*
X75104591Y-47366887D01*
X74771845Y-47864877D01*
X74655000Y-48452296D01*
X74655000Y-50347704D01*
X74771845Y-50935123D01*
X75045000Y-51343929D01*
X75045000Y-52485025D01*
X74933569Y-52648110D01*
X74882560Y-52900000D01*
X74882560Y-53600000D01*
X74926838Y-53835317D01*
X75042461Y-54015000D01*
X69694983Y-54015000D01*
X69806431Y-53851890D01*
X69857440Y-53600000D01*
X69857440Y-52900000D01*
X69813162Y-52664683D01*
X69695000Y-52481054D01*
X69695000Y-51373861D01*
X69988155Y-50935123D01*
X70105000Y-50347704D01*
X70105000Y-48452296D01*
X69988155Y-47864877D01*
X69655409Y-47366887D01*
X69157419Y-47034141D01*
X68570000Y-46917296D01*
X67982581Y-47034141D01*
X67484591Y-47366887D01*
X67151845Y-47864877D01*
X67035000Y-48452296D01*
X67035000Y-50347704D01*
X67151845Y-50935123D01*
X67425000Y-51343929D01*
X67425000Y-52485025D01*
X67313569Y-52648110D01*
X67262560Y-52900000D01*
X67262560Y-53600000D01*
X67306838Y-53835317D01*
X67422461Y-54015000D01*
X65884983Y-54015000D01*
X65996431Y-53851890D01*
X66047440Y-53600000D01*
X66047440Y-52900000D01*
X66003162Y-52664683D01*
X65885000Y-52481054D01*
X65885000Y-51373861D01*
X66178155Y-50935123D01*
X66295000Y-50347704D01*
X66295000Y-48452296D01*
X66178155Y-47864877D01*
X65845409Y-47366887D01*
X65347419Y-47034141D01*
X64760000Y-46917296D01*
X64172581Y-47034141D01*
X63674591Y-47366887D01*
X63341845Y-47864877D01*
X63225000Y-48452296D01*
X63225000Y-50347704D01*
X63341845Y-50935123D01*
X63615000Y-51343929D01*
X63615000Y-52485025D01*
X63503569Y-52648110D01*
X63452560Y-52900000D01*
X63452560Y-53600000D01*
X63496838Y-53835317D01*
X63612461Y-54015000D01*
X62074983Y-54015000D01*
X62186431Y-53851890D01*
X62237440Y-53600000D01*
X62237440Y-52900000D01*
X62193162Y-52664683D01*
X62075000Y-52481054D01*
X62075000Y-51373861D01*
X62368155Y-50935123D01*
X62485000Y-50347704D01*
X62485000Y-48452296D01*
X62368155Y-47864877D01*
X62035409Y-47366887D01*
X61537419Y-47034141D01*
X60950000Y-46917296D01*
X60362581Y-47034141D01*
X59864591Y-47366887D01*
X59531845Y-47864877D01*
X59415000Y-48452296D01*
X59415000Y-50347704D01*
X59531845Y-50935123D01*
X59805000Y-51343929D01*
X59805000Y-52190626D01*
X58402813Y-53592813D01*
X58219738Y-53866805D01*
X58155450Y-54190000D01*
X58155450Y-55750000D01*
X58219738Y-56073195D01*
X58402813Y-56347187D01*
X58902813Y-56847187D01*
X59176805Y-57030262D01*
X59500000Y-57094550D01*
X61400176Y-57094550D01*
X61652813Y-57347187D01*
X61926805Y-57530262D01*
X62250000Y-57594550D01*
X62665091Y-57594550D01*
X62664838Y-57885167D01*
X62806883Y-58228943D01*
X63069673Y-58492192D01*
X63288814Y-58583188D01*
X64355450Y-59649824D01*
X64355450Y-60495764D01*
X64265162Y-60713201D01*
X64264838Y-61085167D01*
X64406883Y-61428943D01*
X64669673Y-61692192D01*
X65013201Y-61834838D01*
X65385167Y-61835162D01*
X65728943Y-61693117D01*
X65992192Y-61430327D01*
X66134838Y-61086799D01*
X66135162Y-60714833D01*
X66044550Y-60495535D01*
X66044550Y-59300000D01*
X65980262Y-58976805D01*
X65797187Y-58702813D01*
X64688924Y-57594550D01*
X71255450Y-57594550D01*
X71255450Y-62343669D01*
X71186799Y-62315162D01*
X70814833Y-62314838D01*
X70471057Y-62456883D01*
X70207808Y-62719673D01*
X70065162Y-63063201D01*
X70064838Y-63435167D01*
X70155450Y-63654465D01*
X70155450Y-63950176D01*
X69750176Y-64355450D01*
X69675736Y-64355450D01*
X69424371Y-64405450D01*
X68144550Y-64405450D01*
X68144550Y-64100000D01*
X68080262Y-63776805D01*
X67897187Y-63502813D01*
X66997188Y-62602814D01*
X66723196Y-62419739D01*
X66400001Y-62355451D01*
X63404238Y-62355451D01*
X63186799Y-62265162D01*
X62814833Y-62264838D01*
X62471057Y-62406883D01*
X62207808Y-62669673D01*
X62187822Y-62717804D01*
X61550176Y-63355450D01*
X57354550Y-63355450D01*
X57354550Y-60393109D01*
X58014657Y-60393109D01*
X58316218Y-61122943D01*
X58874120Y-61681819D01*
X59603427Y-61984654D01*
X60393109Y-61985343D01*
X61122943Y-61683782D01*
X61681819Y-61125880D01*
X61984654Y-60396573D01*
X61985343Y-59606891D01*
X61683782Y-58877057D01*
X61125880Y-58318181D01*
X60396573Y-58015346D01*
X59606891Y-58014657D01*
X58877057Y-58316218D01*
X58318181Y-58874120D01*
X58015346Y-59603427D01*
X58014657Y-60393109D01*
X57354550Y-60393109D01*
X57354550Y-52059824D01*
X57628923Y-51785451D01*
X57727419Y-51765859D01*
X58225409Y-51433113D01*
X58558155Y-50935123D01*
X58675000Y-50347704D01*
X58675000Y-48452296D01*
X58558155Y-47864877D01*
X58225409Y-47366887D01*
X57727419Y-47034141D01*
X57140000Y-46917296D01*
X56552581Y-47034141D01*
X56054591Y-47366887D01*
X55721845Y-47864877D01*
X55605000Y-48452296D01*
X55605000Y-50347704D01*
X55721845Y-50935123D01*
X55876693Y-51166870D01*
X55729738Y-51386805D01*
X55665450Y-51710000D01*
X55665450Y-63810000D01*
X55729738Y-64133195D01*
X55912813Y-64407187D01*
X56302813Y-64797187D01*
X56576805Y-64980262D01*
X56900000Y-65044550D01*
X61900000Y-65044550D01*
X62223195Y-64980262D01*
X62497187Y-64797187D01*
X63159235Y-64135139D01*
X63185167Y-64135162D01*
X63404463Y-64044551D01*
X63661075Y-64044551D01*
X63002813Y-64702813D01*
X62819738Y-64976805D01*
X62755450Y-65300000D01*
X62755450Y-68200000D01*
X62819738Y-68523195D01*
X63002813Y-68797187D01*
X63702813Y-69497187D01*
X63976804Y-69680262D01*
X64300000Y-69744550D01*
X66550176Y-69744550D01*
X67514525Y-70708899D01*
X67788517Y-70891974D01*
X68111712Y-70956262D01*
X69749364Y-70956262D01*
X69650176Y-71055450D01*
X58149824Y-71055450D01*
X56244550Y-69150176D01*
X56244550Y-66604236D01*
X56334838Y-66386799D01*
X56335162Y-66014833D01*
X56193117Y-65671057D01*
X55930327Y-65407808D01*
X55586799Y-65265162D01*
X55214833Y-65264838D01*
X54871057Y-65406883D01*
X54607808Y-65669673D01*
X54465162Y-66013201D01*
X54464838Y-66385167D01*
X54555450Y-66604465D01*
X54555450Y-69361076D01*
X54144550Y-68950176D01*
X54144550Y-48449824D01*
X56449824Y-46144550D01*
X68830176Y-46144550D01*
X70893599Y-48207973D01*
X70845000Y-48452296D01*
X70845000Y-50347704D01*
X70961845Y-50935123D01*
X71294591Y-51433113D01*
X71792581Y-51765859D01*
X72380000Y-51882704D01*
X72967419Y-51765859D01*
X73465409Y-51433113D01*
X73798155Y-50935123D01*
X73915000Y-50347704D01*
X73915000Y-48452296D01*
X73798155Y-47864877D01*
X73465409Y-47366887D01*
X72967419Y-47034141D01*
X72380000Y-46917296D01*
X72056098Y-46981724D01*
X69777187Y-44702813D01*
X69503195Y-44519738D01*
X69180000Y-44455450D01*
X56100000Y-44455450D01*
X55776805Y-44519738D01*
X55502813Y-44702813D01*
X52702813Y-47502813D01*
X52519738Y-47776805D01*
X52455450Y-48100000D01*
X52455450Y-69300000D01*
X52519738Y-69623195D01*
X52702813Y-69897187D01*
X57802813Y-74997187D01*
X58076805Y-75180262D01*
X58400000Y-75244550D01*
X73748754Y-75244550D01*
X73745162Y-75253201D01*
X73744838Y-75625167D01*
X73835450Y-75844465D01*
X73835450Y-78490000D01*
X73899738Y-78813195D01*
X74082813Y-79087187D01*
X74310626Y-79315000D01*
X50685000Y-79315000D01*
X50685000Y-40685000D01*
X138873000Y-40685000D01*
X138873000Y-64200000D01*
X138873000Y-64200000D01*
G37*
X138873000Y-64200000D02*
X138883006Y-64249410D01*
X138911447Y-64291035D01*
X138953841Y-64318315D01*
X139000000Y-64327000D01*
X156000000Y-64327000D01*
X156049410Y-64316994D01*
X156091035Y-64288553D01*
X156118315Y-64246159D01*
X156127000Y-64200000D01*
X156127000Y-60393109D01*
X158014657Y-60393109D01*
X158316218Y-61122943D01*
X158874120Y-61681819D01*
X159603427Y-61984654D01*
X160393109Y-61985343D01*
X161122943Y-61683782D01*
X161681819Y-61125880D01*
X161984654Y-60396573D01*
X161985343Y-59606891D01*
X161683782Y-58877057D01*
X161125880Y-58318181D01*
X160396573Y-58015346D01*
X159606891Y-58014657D01*
X158877057Y-58316218D01*
X158318181Y-58874120D01*
X158015346Y-59603427D01*
X158014657Y-60393109D01*
X156127000Y-60393109D01*
X156127000Y-40685000D01*
X169315000Y-40685000D01*
X169315000Y-79315000D01*
X95819934Y-79315000D01*
X95844206Y-79256547D01*
X95844774Y-78606306D01*
X95596462Y-78005345D01*
X95445491Y-77854110D01*
X96699736Y-77854110D01*
X97242813Y-78397187D01*
X97516805Y-78580262D01*
X97840000Y-78644550D01*
X111100000Y-78644550D01*
X111423195Y-78580262D01*
X111697187Y-78397187D01*
X123511349Y-66583025D01*
X123728943Y-66493117D01*
X123992192Y-66230327D01*
X124134838Y-65886799D01*
X124135162Y-65514833D01*
X123993117Y-65171057D01*
X123730327Y-64907808D01*
X123386799Y-64765162D01*
X123014833Y-64764838D01*
X122934915Y-64797859D01*
X122935162Y-64514833D01*
X122793117Y-64171057D01*
X122530327Y-63907808D01*
X122186799Y-63765162D01*
X121814833Y-63764838D01*
X121498559Y-63895519D01*
X121376805Y-63919738D01*
X121102813Y-64102813D01*
X115850176Y-69355450D01*
X109704236Y-69355450D01*
X109486799Y-69265162D01*
X109114833Y-69264838D01*
X108835000Y-69380462D01*
X108835000Y-64801427D01*
X108835284Y-64476205D01*
X108586894Y-63875057D01*
X108127363Y-63414722D01*
X107526648Y-63165284D01*
X106876205Y-63164716D01*
X106275057Y-63413106D01*
X105814722Y-63872637D01*
X105565284Y-64473352D01*
X105564716Y-65123795D01*
X105565000Y-65124482D01*
X105565000Y-72322761D01*
X103922760Y-73965000D01*
X97100000Y-73965000D01*
X96474313Y-74089457D01*
X95943880Y-74443880D01*
X95589457Y-74974313D01*
X95465000Y-75600000D01*
X95577388Y-76165010D01*
X83549560Y-76165010D01*
X83226365Y-76229298D01*
X82952373Y-76412373D01*
X80729296Y-78635450D01*
X78845348Y-78635450D01*
X79044206Y-78156547D01*
X79044774Y-77506306D01*
X78796462Y-76905345D01*
X78337073Y-76445154D01*
X77804400Y-76223969D01*
X77804774Y-75796306D01*
X77556462Y-75195345D01*
X77360210Y-74998750D01*
X77362549Y-74997187D01*
X79117187Y-73242549D01*
X79209708Y-73104082D01*
X80016975Y-73911349D01*
X80106883Y-74128943D01*
X80369673Y-74392192D01*
X80713201Y-74534838D01*
X81085167Y-74535162D01*
X81428943Y-74393117D01*
X81692192Y-74130327D01*
X81834838Y-73786799D01*
X81835162Y-73414833D01*
X81693117Y-73071057D01*
X81430327Y-72807808D01*
X81211186Y-72716812D01*
X80644550Y-72150176D01*
X80644550Y-71778470D01*
X80605283Y-71581064D01*
X80924448Y-71644550D01*
X82150176Y-71644550D01*
X82526535Y-72020909D01*
X82616443Y-72238503D01*
X82879233Y-72501752D01*
X83222761Y-72644398D01*
X83594727Y-72644722D01*
X83938503Y-72502677D01*
X84201752Y-72239887D01*
X84344398Y-71896359D01*
X84344722Y-71524393D01*
X84202677Y-71180617D01*
X83939887Y-70917368D01*
X83844378Y-70877709D01*
X84092192Y-70630327D01*
X84234838Y-70286799D01*
X84234962Y-70144550D01*
X84250176Y-70144550D01*
X84352560Y-70246934D01*
X84352560Y-70925000D01*
X84365000Y-70991113D01*
X84365000Y-72000000D01*
X84451397Y-72434346D01*
X84620081Y-72686799D01*
X84697434Y-72802566D01*
X85797434Y-73902566D01*
X86165655Y-74148603D01*
X86600000Y-74235000D01*
X87034345Y-74148603D01*
X87402566Y-73902566D01*
X87648603Y-73534345D01*
X87735000Y-73100000D01*
X87700588Y-72927000D01*
X88365015Y-72927000D01*
X88334457Y-72972733D01*
X88210000Y-73598420D01*
X88334457Y-74224107D01*
X88688880Y-74754540D01*
X88940007Y-74922337D01*
X88942118Y-74933557D01*
X89081190Y-75149681D01*
X89293390Y-75294671D01*
X89545280Y-75345680D01*
X90144720Y-75345680D01*
X90380037Y-75301402D01*
X90479536Y-75237376D01*
X90563390Y-75294671D01*
X90815280Y-75345680D01*
X91414720Y-75345680D01*
X91650037Y-75301402D01*
X91749536Y-75237376D01*
X91833390Y-75294671D01*
X92085280Y-75345680D01*
X92684720Y-75345680D01*
X92920037Y-75301402D01*
X93019536Y-75237376D01*
X93103390Y-75294671D01*
X93355280Y-75345680D01*
X93954720Y-75345680D01*
X94190037Y-75301402D01*
X94406161Y-75162330D01*
X94429312Y-75128448D01*
X94527268Y-75108963D01*
X95057700Y-74754540D01*
X96677240Y-73135000D01*
X96699995Y-73135000D01*
X96700000Y-73135001D01*
X97325688Y-73010543D01*
X97450719Y-72927000D01*
X98100000Y-72927000D01*
X98149410Y-72916994D01*
X98191035Y-72888553D01*
X98218315Y-72846159D01*
X98227000Y-72800000D01*
X98227000Y-72285240D01*
X100606117Y-69906122D01*
X100606120Y-69906120D01*
X100838926Y-69557700D01*
X100960543Y-69375688D01*
X101085000Y-68750000D01*
X101085000Y-61651427D01*
X101085284Y-61326205D01*
X100836894Y-60725057D01*
X100377363Y-60264722D01*
X99776648Y-60015284D01*
X99126205Y-60014716D01*
X98586038Y-60237909D01*
X98227000Y-60237909D01*
X98227000Y-58285167D01*
X98964838Y-58285167D01*
X99106883Y-58628943D01*
X99369673Y-58892192D01*
X99713201Y-59034838D01*
X100085167Y-59035162D01*
X100428943Y-58893117D01*
X100692192Y-58630327D01*
X100834838Y-58286799D01*
X100835162Y-57914833D01*
X100693117Y-57571057D01*
X100430327Y-57307808D01*
X100086799Y-57165162D01*
X99714833Y-57164838D01*
X99371057Y-57306883D01*
X99107808Y-57569673D01*
X98965162Y-57913201D01*
X98964838Y-58285167D01*
X98227000Y-58285167D01*
X98227000Y-56500000D01*
X98216994Y-56450590D01*
X98188553Y-56408965D01*
X98146159Y-56381685D01*
X98100000Y-56373000D01*
X85300000Y-56373000D01*
X85250590Y-56383006D01*
X85208965Y-56411447D01*
X85181685Y-56453841D01*
X85173000Y-56500000D01*
X85173000Y-61478626D01*
X84347187Y-60652813D01*
X84073195Y-60469738D01*
X83750000Y-60405450D01*
X81654236Y-60405450D01*
X81436799Y-60315162D01*
X81064833Y-60314838D01*
X80721057Y-60456883D01*
X80457808Y-60719673D01*
X80315162Y-61063201D01*
X80314838Y-61435167D01*
X80456883Y-61778943D01*
X80595445Y-61917747D01*
X80505653Y-61935608D01*
X80260803Y-62099212D01*
X78644146Y-62099212D01*
X78721431Y-61986102D01*
X78772440Y-61734212D01*
X78772440Y-60734212D01*
X78728162Y-60498895D01*
X78589090Y-60282771D01*
X78376890Y-60137781D01*
X78125000Y-60086772D01*
X76875000Y-60086772D01*
X76639683Y-60131050D01*
X76423559Y-60270122D01*
X76307717Y-60439662D01*
X75300998Y-60439662D01*
X75151890Y-60337781D01*
X74900000Y-60286772D01*
X73600000Y-60286772D01*
X73364683Y-60331050D01*
X73148559Y-60470122D01*
X73003569Y-60682322D01*
X72952560Y-60934212D01*
X72952560Y-61634212D01*
X72996838Y-61869529D01*
X73135910Y-62085653D01*
X73348110Y-62230643D01*
X73361197Y-62233293D01*
X73148559Y-62370122D01*
X73003569Y-62582322D01*
X72952560Y-62834212D01*
X72952560Y-63514920D01*
X72944550Y-63495535D01*
X72944550Y-56850000D01*
X72880262Y-56526805D01*
X72718694Y-56285000D01*
X79988655Y-56285000D01*
X82477305Y-56334773D01*
X82510413Y-56328873D01*
X82543622Y-56334161D01*
X83821807Y-56285000D01*
X84100000Y-56285000D01*
X84534346Y-56198603D01*
X84673995Y-56105292D01*
X84685317Y-56103162D01*
X84901441Y-55964090D01*
X85046431Y-55751890D01*
X85050683Y-55730894D01*
X85148603Y-55584346D01*
X85235000Y-55150000D01*
X85148603Y-54715654D01*
X85055292Y-54576005D01*
X85053162Y-54564683D01*
X84914090Y-54348559D01*
X84701890Y-54203569D01*
X84688803Y-54200919D01*
X84901441Y-54064090D01*
X85046431Y-53851890D01*
X85097440Y-53600000D01*
X85097440Y-52900000D01*
X85053162Y-52664683D01*
X84945000Y-52496594D01*
X84945000Y-51803222D01*
X84945317Y-51803162D01*
X85155678Y-51667798D01*
X100115000Y-51667798D01*
X100115000Y-54332202D01*
X100260009Y-55061214D01*
X100672962Y-55679240D01*
X101290988Y-56092193D01*
X102020000Y-56237202D01*
X102749012Y-56092193D01*
X103367038Y-55679240D01*
X103779991Y-55061214D01*
X103925000Y-54332202D01*
X103925000Y-51667798D01*
X103905109Y-51567798D01*
X115415000Y-51567798D01*
X115415000Y-54232202D01*
X115560009Y-54961214D01*
X115972962Y-55579240D01*
X116590988Y-55992193D01*
X117320000Y-56137202D01*
X118049012Y-55992193D01*
X118667038Y-55579240D01*
X119079991Y-54961214D01*
X119225000Y-54232202D01*
X119225000Y-51567798D01*
X119079991Y-50838786D01*
X118667038Y-50220760D01*
X118049012Y-49807807D01*
X117320000Y-49662798D01*
X116590988Y-49807807D01*
X115972962Y-50220760D01*
X115560009Y-50838786D01*
X115415000Y-51567798D01*
X103905109Y-51567798D01*
X103779991Y-50938786D01*
X103367038Y-50320760D01*
X102749012Y-49907807D01*
X102020000Y-49762798D01*
X101290988Y-49907807D01*
X100672962Y-50320760D01*
X100260009Y-50938786D01*
X100115000Y-51667798D01*
X85155678Y-51667798D01*
X85161441Y-51664090D01*
X85306431Y-51451890D01*
X85357440Y-51200000D01*
X85357440Y-47600000D01*
X85313162Y-47364683D01*
X85174090Y-47148559D01*
X84961890Y-47003569D01*
X84710000Y-46952560D01*
X82910000Y-46952560D01*
X82674683Y-46996838D01*
X82458559Y-47135910D01*
X82313569Y-47348110D01*
X82262560Y-47600000D01*
X82262560Y-51200000D01*
X82306838Y-51435317D01*
X82445910Y-51651441D01*
X82658110Y-51796431D01*
X82675000Y-51799851D01*
X82675000Y-52470390D01*
X82553569Y-52648110D01*
X82502560Y-52900000D01*
X82502560Y-53600000D01*
X82546838Y-53835317D01*
X82685910Y-54051441D01*
X82693627Y-54056714D01*
X82489534Y-54064564D01*
X81119835Y-54037170D01*
X81246431Y-53851890D01*
X81297440Y-53600000D01*
X81297440Y-52900000D01*
X81253162Y-52664683D01*
X81135000Y-52481054D01*
X81135000Y-51358895D01*
X81418155Y-50935123D01*
X81535000Y-50347704D01*
X81535000Y-48452296D01*
X81418155Y-47864877D01*
X81085409Y-47366887D01*
X80587419Y-47034141D01*
X80000000Y-46917296D01*
X79412581Y-47034141D01*
X78914591Y-47366887D01*
X78581845Y-47864877D01*
X78465000Y-48452296D01*
X78465000Y-50347704D01*
X78581845Y-50935123D01*
X78865000Y-51358895D01*
X78865000Y-52485025D01*
X78753569Y-52648110D01*
X78702560Y-52900000D01*
X78702560Y-53600000D01*
X78746838Y-53835317D01*
X78862461Y-54015000D01*
X77314983Y-54015000D01*
X77426431Y-53851890D01*
X77477440Y-53600000D01*
X77477440Y-52900000D01*
X77433162Y-52664683D01*
X77315000Y-52481054D01*
X77315000Y-51373861D01*
X77608155Y-50935123D01*
X77725000Y-50347704D01*
X77725000Y-48452296D01*
X77608155Y-47864877D01*
X77275409Y-47366887D01*
X76777419Y-47034141D01*
X76190000Y-46917296D01*
X75602581Y-47034141D01*
X75104591Y-47366887D01*
X74771845Y-47864877D01*
X74655000Y-48452296D01*
X74655000Y-50347704D01*
X74771845Y-50935123D01*
X75045000Y-51343929D01*
X75045000Y-52485025D01*
X74933569Y-52648110D01*
X74882560Y-52900000D01*
X74882560Y-53600000D01*
X74926838Y-53835317D01*
X75042461Y-54015000D01*
X69694983Y-54015000D01*
X69806431Y-53851890D01*
X69857440Y-53600000D01*
X69857440Y-52900000D01*
X69813162Y-52664683D01*
X69695000Y-52481054D01*
X69695000Y-51373861D01*
X69988155Y-50935123D01*
X70105000Y-50347704D01*
X70105000Y-48452296D01*
X69988155Y-47864877D01*
X69655409Y-47366887D01*
X69157419Y-47034141D01*
X68570000Y-46917296D01*
X67982581Y-47034141D01*
X67484591Y-47366887D01*
X67151845Y-47864877D01*
X67035000Y-48452296D01*
X67035000Y-50347704D01*
X67151845Y-50935123D01*
X67425000Y-51343929D01*
X67425000Y-52485025D01*
X67313569Y-52648110D01*
X67262560Y-52900000D01*
X67262560Y-53600000D01*
X67306838Y-53835317D01*
X67422461Y-54015000D01*
X65884983Y-54015000D01*
X65996431Y-53851890D01*
X66047440Y-53600000D01*
X66047440Y-52900000D01*
X66003162Y-52664683D01*
X65885000Y-52481054D01*
X65885000Y-51373861D01*
X66178155Y-50935123D01*
X66295000Y-50347704D01*
X66295000Y-48452296D01*
X66178155Y-47864877D01*
X65845409Y-47366887D01*
X65347419Y-47034141D01*
X64760000Y-46917296D01*
X64172581Y-47034141D01*
X63674591Y-47366887D01*
X63341845Y-47864877D01*
X63225000Y-48452296D01*
X63225000Y-50347704D01*
X63341845Y-50935123D01*
X63615000Y-51343929D01*
X63615000Y-52485025D01*
X63503569Y-52648110D01*
X63452560Y-52900000D01*
X63452560Y-53600000D01*
X63496838Y-53835317D01*
X63612461Y-54015000D01*
X62074983Y-54015000D01*
X62186431Y-53851890D01*
X62237440Y-53600000D01*
X62237440Y-52900000D01*
X62193162Y-52664683D01*
X62075000Y-52481054D01*
X62075000Y-51373861D01*
X62368155Y-50935123D01*
X62485000Y-50347704D01*
X62485000Y-48452296D01*
X62368155Y-47864877D01*
X62035409Y-47366887D01*
X61537419Y-47034141D01*
X60950000Y-46917296D01*
X60362581Y-47034141D01*
X59864591Y-47366887D01*
X59531845Y-47864877D01*
X59415000Y-48452296D01*
X59415000Y-50347704D01*
X59531845Y-50935123D01*
X59805000Y-51343929D01*
X59805000Y-52190626D01*
X58402813Y-53592813D01*
X58219738Y-53866805D01*
X58155450Y-54190000D01*
X58155450Y-55750000D01*
X58219738Y-56073195D01*
X58402813Y-56347187D01*
X58902813Y-56847187D01*
X59176805Y-57030262D01*
X59500000Y-57094550D01*
X61400176Y-57094550D01*
X61652813Y-57347187D01*
X61926805Y-57530262D01*
X62250000Y-57594550D01*
X62665091Y-57594550D01*
X62664838Y-57885167D01*
X62806883Y-58228943D01*
X63069673Y-58492192D01*
X63288814Y-58583188D01*
X64355450Y-59649824D01*
X64355450Y-60495764D01*
X64265162Y-60713201D01*
X64264838Y-61085167D01*
X64406883Y-61428943D01*
X64669673Y-61692192D01*
X65013201Y-61834838D01*
X65385167Y-61835162D01*
X65728943Y-61693117D01*
X65992192Y-61430327D01*
X66134838Y-61086799D01*
X66135162Y-60714833D01*
X66044550Y-60495535D01*
X66044550Y-59300000D01*
X65980262Y-58976805D01*
X65797187Y-58702813D01*
X64688924Y-57594550D01*
X71255450Y-57594550D01*
X71255450Y-62343669D01*
X71186799Y-62315162D01*
X70814833Y-62314838D01*
X70471057Y-62456883D01*
X70207808Y-62719673D01*
X70065162Y-63063201D01*
X70064838Y-63435167D01*
X70155450Y-63654465D01*
X70155450Y-63950176D01*
X69750176Y-64355450D01*
X69675736Y-64355450D01*
X69424371Y-64405450D01*
X68144550Y-64405450D01*
X68144550Y-64100000D01*
X68080262Y-63776805D01*
X67897187Y-63502813D01*
X66997188Y-62602814D01*
X66723196Y-62419739D01*
X66400001Y-62355451D01*
X63404238Y-62355451D01*
X63186799Y-62265162D01*
X62814833Y-62264838D01*
X62471057Y-62406883D01*
X62207808Y-62669673D01*
X62187822Y-62717804D01*
X61550176Y-63355450D01*
X57354550Y-63355450D01*
X57354550Y-60393109D01*
X58014657Y-60393109D01*
X58316218Y-61122943D01*
X58874120Y-61681819D01*
X59603427Y-61984654D01*
X60393109Y-61985343D01*
X61122943Y-61683782D01*
X61681819Y-61125880D01*
X61984654Y-60396573D01*
X61985343Y-59606891D01*
X61683782Y-58877057D01*
X61125880Y-58318181D01*
X60396573Y-58015346D01*
X59606891Y-58014657D01*
X58877057Y-58316218D01*
X58318181Y-58874120D01*
X58015346Y-59603427D01*
X58014657Y-60393109D01*
X57354550Y-60393109D01*
X57354550Y-52059824D01*
X57628923Y-51785451D01*
X57727419Y-51765859D01*
X58225409Y-51433113D01*
X58558155Y-50935123D01*
X58675000Y-50347704D01*
X58675000Y-48452296D01*
X58558155Y-47864877D01*
X58225409Y-47366887D01*
X57727419Y-47034141D01*
X57140000Y-46917296D01*
X56552581Y-47034141D01*
X56054591Y-47366887D01*
X55721845Y-47864877D01*
X55605000Y-48452296D01*
X55605000Y-50347704D01*
X55721845Y-50935123D01*
X55876693Y-51166870D01*
X55729738Y-51386805D01*
X55665450Y-51710000D01*
X55665450Y-63810000D01*
X55729738Y-64133195D01*
X55912813Y-64407187D01*
X56302813Y-64797187D01*
X56576805Y-64980262D01*
X56900000Y-65044550D01*
X61900000Y-65044550D01*
X62223195Y-64980262D01*
X62497187Y-64797187D01*
X63159235Y-64135139D01*
X63185167Y-64135162D01*
X63404463Y-64044551D01*
X63661075Y-64044551D01*
X63002813Y-64702813D01*
X62819738Y-64976805D01*
X62755450Y-65300000D01*
X62755450Y-68200000D01*
X62819738Y-68523195D01*
X63002813Y-68797187D01*
X63702813Y-69497187D01*
X63976804Y-69680262D01*
X64300000Y-69744550D01*
X66550176Y-69744550D01*
X67514525Y-70708899D01*
X67788517Y-70891974D01*
X68111712Y-70956262D01*
X69749364Y-70956262D01*
X69650176Y-71055450D01*
X58149824Y-71055450D01*
X56244550Y-69150176D01*
X56244550Y-66604236D01*
X56334838Y-66386799D01*
X56335162Y-66014833D01*
X56193117Y-65671057D01*
X55930327Y-65407808D01*
X55586799Y-65265162D01*
X55214833Y-65264838D01*
X54871057Y-65406883D01*
X54607808Y-65669673D01*
X54465162Y-66013201D01*
X54464838Y-66385167D01*
X54555450Y-66604465D01*
X54555450Y-69361076D01*
X54144550Y-68950176D01*
X54144550Y-48449824D01*
X56449824Y-46144550D01*
X68830176Y-46144550D01*
X70893599Y-48207973D01*
X70845000Y-48452296D01*
X70845000Y-50347704D01*
X70961845Y-50935123D01*
X71294591Y-51433113D01*
X71792581Y-51765859D01*
X72380000Y-51882704D01*
X72967419Y-51765859D01*
X73465409Y-51433113D01*
X73798155Y-50935123D01*
X73915000Y-50347704D01*
X73915000Y-48452296D01*
X73798155Y-47864877D01*
X73465409Y-47366887D01*
X72967419Y-47034141D01*
X72380000Y-46917296D01*
X72056098Y-46981724D01*
X69777187Y-44702813D01*
X69503195Y-44519738D01*
X69180000Y-44455450D01*
X56100000Y-44455450D01*
X55776805Y-44519738D01*
X55502813Y-44702813D01*
X52702813Y-47502813D01*
X52519738Y-47776805D01*
X52455450Y-48100000D01*
X52455450Y-69300000D01*
X52519738Y-69623195D01*
X52702813Y-69897187D01*
X57802813Y-74997187D01*
X58076805Y-75180262D01*
X58400000Y-75244550D01*
X73748754Y-75244550D01*
X73745162Y-75253201D01*
X73744838Y-75625167D01*
X73835450Y-75844465D01*
X73835450Y-78490000D01*
X73899738Y-78813195D01*
X74082813Y-79087187D01*
X74310626Y-79315000D01*
X50685000Y-79315000D01*
X50685000Y-40685000D01*
X138873000Y-40685000D01*
X138873000Y-64200000D01*
G36*
X77301060Y-68416262D02*
X77322118Y-68528175D01*
X77301060Y-68632162D01*
X77301060Y-69051262D01*
X77322118Y-69163175D01*
X77301060Y-69267162D01*
X77301060Y-69686262D01*
X77345338Y-69921579D01*
X77367330Y-69955755D01*
X77313563Y-69966450D01*
X77118786Y-70096596D01*
X76930327Y-69907808D01*
X76586799Y-69765162D01*
X76214833Y-69764838D01*
X75882483Y-69902162D01*
X74538940Y-69902162D01*
X74517882Y-69790249D01*
X74538940Y-69686262D01*
X74538940Y-69267162D01*
X74498316Y-69051262D01*
X75489052Y-69051262D01*
X75706489Y-69141550D01*
X76078455Y-69141874D01*
X76422231Y-68999829D01*
X76685480Y-68737039D01*
X76811294Y-68434046D01*
X76813201Y-68434838D01*
X77185167Y-68435162D01*
X77301060Y-68387276D01*
X77301060Y-68416262D01*
X77301060Y-68416262D01*
G37*
X77301060Y-68416262D02*
X77322118Y-68528175D01*
X77301060Y-68632162D01*
X77301060Y-69051262D01*
X77322118Y-69163175D01*
X77301060Y-69267162D01*
X77301060Y-69686262D01*
X77345338Y-69921579D01*
X77367330Y-69955755D01*
X77313563Y-69966450D01*
X77118786Y-70096596D01*
X76930327Y-69907808D01*
X76586799Y-69765162D01*
X76214833Y-69764838D01*
X75882483Y-69902162D01*
X74538940Y-69902162D01*
X74517882Y-69790249D01*
X74538940Y-69686262D01*
X74538940Y-69267162D01*
X74498316Y-69051262D01*
X75489052Y-69051262D01*
X75706489Y-69141550D01*
X76078455Y-69141874D01*
X76422231Y-68999829D01*
X76685480Y-68737039D01*
X76811294Y-68434046D01*
X76813201Y-68434838D01*
X77185167Y-68435162D01*
X77301060Y-68387276D01*
X77301060Y-68416262D01*
G36*
X93209551Y-62024350D02*
X93421751Y-62169340D01*
X93673641Y-62220349D01*
X94673641Y-62220349D01*
X94739754Y-62207909D01*
X96628303Y-62207909D01*
X96873000Y-62452606D01*
X96873000Y-64047394D01*
X96247394Y-64673000D01*
X94852606Y-64673000D01*
X94427000Y-64247394D01*
X94427000Y-63900000D01*
X94416994Y-63850590D01*
X94389803Y-63810197D01*
X94189803Y-63610197D01*
X94147789Y-63582334D01*
X94100000Y-63573000D01*
X90800000Y-63573000D01*
X90750590Y-63583006D01*
X90710197Y-63610197D01*
X89305394Y-65015000D01*
X88400000Y-65015000D01*
X88023057Y-65089979D01*
X87703500Y-65303500D01*
X87634000Y-65373000D01*
X86459951Y-65373000D01*
X86177248Y-65255611D01*
X85805282Y-65255287D01*
X85585984Y-65345899D01*
X81940273Y-65345899D01*
X81663899Y-65069525D01*
X81389907Y-64886450D01*
X81066712Y-64822162D01*
X79738940Y-64822162D01*
X79694662Y-64586845D01*
X79555590Y-64370721D01*
X79553382Y-64369212D01*
X80689998Y-64369212D01*
X81124344Y-64282815D01*
X81369194Y-64119211D01*
X82000000Y-64119211D01*
X82188821Y-64081652D01*
X82500000Y-64081652D01*
X82735317Y-64037374D01*
X82951441Y-63898302D01*
X83096431Y-63686102D01*
X83147440Y-63434212D01*
X83147440Y-62734212D01*
X83103162Y-62498895D01*
X82964090Y-62282771D01*
X82751890Y-62137781D01*
X82730409Y-62133431D01*
X82672219Y-62094550D01*
X83400176Y-62094550D01*
X83619004Y-62313378D01*
X83503569Y-62482322D01*
X83452560Y-62734212D01*
X83452560Y-63434212D01*
X83496838Y-63669529D01*
X83635910Y-63885653D01*
X83848110Y-64030643D01*
X84100000Y-64081652D01*
X85100000Y-64081652D01*
X85335317Y-64037374D01*
X85504105Y-63928762D01*
X86649156Y-63928762D01*
X87010197Y-64289803D01*
X87052211Y-64317666D01*
X87100000Y-64327000D01*
X89000000Y-64327000D01*
X89049410Y-64316994D01*
X89089803Y-64289803D01*
X89489803Y-63889803D01*
X89517666Y-63847789D01*
X89527000Y-63800000D01*
X89527000Y-62252606D01*
X89735056Y-62044550D01*
X90639115Y-62044550D01*
X90821751Y-62169340D01*
X91073641Y-62220349D01*
X92073641Y-62220349D01*
X92308958Y-62176071D01*
X92525082Y-62036999D01*
X92600241Y-61927000D01*
X93146908Y-61927000D01*
X93209551Y-62024350D01*
X93209551Y-62024350D01*
G37*
X93209551Y-62024350D02*
X93421751Y-62169340D01*
X93673641Y-62220349D01*
X94673641Y-62220349D01*
X94739754Y-62207909D01*
X96628303Y-62207909D01*
X96873000Y-62452606D01*
X96873000Y-64047394D01*
X96247394Y-64673000D01*
X94852606Y-64673000D01*
X94427000Y-64247394D01*
X94427000Y-63900000D01*
X94416994Y-63850590D01*
X94389803Y-63810197D01*
X94189803Y-63610197D01*
X94147789Y-63582334D01*
X94100000Y-63573000D01*
X90800000Y-63573000D01*
X90750590Y-63583006D01*
X90710197Y-63610197D01*
X89305394Y-65015000D01*
X88400000Y-65015000D01*
X88023057Y-65089979D01*
X87703500Y-65303500D01*
X87634000Y-65373000D01*
X86459951Y-65373000D01*
X86177248Y-65255611D01*
X85805282Y-65255287D01*
X85585984Y-65345899D01*
X81940273Y-65345899D01*
X81663899Y-65069525D01*
X81389907Y-64886450D01*
X81066712Y-64822162D01*
X79738940Y-64822162D01*
X79694662Y-64586845D01*
X79555590Y-64370721D01*
X79553382Y-64369212D01*
X80689998Y-64369212D01*
X81124344Y-64282815D01*
X81369194Y-64119211D01*
X82000000Y-64119211D01*
X82188821Y-64081652D01*
X82500000Y-64081652D01*
X82735317Y-64037374D01*
X82951441Y-63898302D01*
X83096431Y-63686102D01*
X83147440Y-63434212D01*
X83147440Y-62734212D01*
X83103162Y-62498895D01*
X82964090Y-62282771D01*
X82751890Y-62137781D01*
X82730409Y-62133431D01*
X82672219Y-62094550D01*
X83400176Y-62094550D01*
X83619004Y-62313378D01*
X83503569Y-62482322D01*
X83452560Y-62734212D01*
X83452560Y-63434212D01*
X83496838Y-63669529D01*
X83635910Y-63885653D01*
X83848110Y-64030643D01*
X84100000Y-64081652D01*
X85100000Y-64081652D01*
X85335317Y-64037374D01*
X85504105Y-63928762D01*
X86649156Y-63928762D01*
X87010197Y-64289803D01*
X87052211Y-64317666D01*
X87100000Y-64327000D01*
X89000000Y-64327000D01*
X89049410Y-64316994D01*
X89089803Y-64289803D01*
X89489803Y-63889803D01*
X89517666Y-63847789D01*
X89527000Y-63800000D01*
X89527000Y-62252606D01*
X89735056Y-62044550D01*
X90639115Y-62044550D01*
X90821751Y-62169340D01*
X91073641Y-62220349D01*
X92073641Y-62220349D01*
X92308958Y-62176071D01*
X92525082Y-62036999D01*
X92600241Y-61927000D01*
X93146908Y-61927000D01*
X93209551Y-62024350D01*
M02*
