G04 #@! TF.FileFunction,Soldermask,Top*
%FSLAX46Y46*%
G04 Gerber Fmt 4.6, Leading zero omitted, Abs format (unit mm)*
G04 Created by KiCad (PCBNEW 4.0.6) date Thu Jun  1 11:47:27 2017*
%MOMM*%
%LPD*%
G01*
G04 APERTURE LIST*
%ADD10C,0.100000*%
%ADD11C,1.998980*%
%ADD12R,2.199640X0.599440*%
%ADD13R,2.500000X3.000000*%
%ADD14R,1.000000X1.000000*%
%ADD15R,1.300000X0.700000*%
%ADD16R,0.700000X1.300000*%
%ADD17R,1.000000X1.250000*%
%ADD18O,2.540000X5.080000*%
%ADD19R,0.900000X1.700000*%
%ADD20R,1.250000X1.000000*%
%ADD21R,1.800000X3.600000*%
%ADD22O,1.800000X3.600000*%
%ADD23C,2.700000*%
G04 APERTURE END LIST*
D10*
D11*
X77410000Y-77830000D03*
X76170000Y-76120000D03*
X86500000Y-78900000D03*
X90530000Y-78900000D03*
X94210000Y-78930000D03*
D12*
X84798420Y-78905000D03*
X84798420Y-77635000D03*
X84798420Y-76365000D03*
X84798420Y-75095000D03*
X79601580Y-75095000D03*
X79601580Y-76365000D03*
X79601580Y-77635000D03*
X79601580Y-78905000D03*
D13*
X102000000Y-61550000D03*
X102000000Y-69050000D03*
X114250000Y-65300000D03*
D11*
X132550000Y-59500000D03*
D14*
X127030000Y-63460000D03*
X127030000Y-62160000D03*
X123800000Y-63550000D03*
X123800000Y-62250000D03*
D11*
X125050000Y-57000000D03*
X125050000Y-59500000D03*
X127550000Y-57000000D03*
X130050000Y-57000000D03*
X132550000Y-57000000D03*
X130050000Y-59500000D03*
X127550000Y-59500000D03*
X146000000Y-52090000D03*
D15*
X92500000Y-78950000D03*
X92500000Y-77050000D03*
D11*
X148500000Y-52090000D03*
X148500000Y-47090000D03*
X146000000Y-47090000D03*
X148500000Y-49590000D03*
X146000000Y-49590000D03*
X148500000Y-44590000D03*
X146000000Y-42090000D03*
X146000000Y-44590000D03*
X153500000Y-49590000D03*
X153500000Y-52090000D03*
X151000000Y-52090000D03*
X151000000Y-49590000D03*
X151000000Y-47090000D03*
X153500000Y-44590000D03*
X151000000Y-44590000D03*
X153500000Y-47090000D03*
X153500000Y-42090000D03*
X151000000Y-42090000D03*
X148500000Y-42090000D03*
X148500000Y-57090000D03*
X148500000Y-59590000D03*
D16*
X94950000Y-58600000D03*
X93050000Y-58600000D03*
D11*
X141000000Y-59590000D03*
X141000000Y-57090000D03*
X135050000Y-57000000D03*
X137550000Y-59500000D03*
X137550000Y-57000000D03*
X135050000Y-59500000D03*
D17*
X138250000Y-64400000D03*
X140250000Y-64400000D03*
D11*
X143500000Y-59590000D03*
X146000000Y-54590000D03*
X146000000Y-59590000D03*
X146000000Y-57090000D03*
X143500000Y-57090000D03*
X153500000Y-57090000D03*
X153500000Y-54590000D03*
X151000000Y-54590000D03*
X148500000Y-54590000D03*
X153500000Y-59590000D03*
X151000000Y-59590000D03*
X151000000Y-57090000D03*
X137550000Y-47000000D03*
X135050000Y-47000000D03*
X132550000Y-47000000D03*
X137550000Y-44500000D03*
X135050000Y-44500000D03*
X132550000Y-44500000D03*
X127550000Y-42000000D03*
X130050000Y-44500000D03*
X127550000Y-44500000D03*
X125050000Y-44500000D03*
X130050000Y-42000000D03*
X125050000Y-42000000D03*
X137550000Y-49500000D03*
X137550000Y-54500000D03*
X132550000Y-54500000D03*
X137550000Y-52000000D03*
X132550000Y-52000000D03*
X132550000Y-49500000D03*
X127550000Y-47000000D03*
X130050000Y-49500000D03*
X125050000Y-49500000D03*
X130050000Y-47000000D03*
X127550000Y-49500000D03*
X125050000Y-47000000D03*
D18*
X142770000Y-52700000D03*
X135150000Y-52700000D03*
D11*
X141000000Y-44590000D03*
X143500000Y-47090000D03*
X141000000Y-49590000D03*
X141000000Y-47090000D03*
X143500000Y-44590000D03*
X127550000Y-54500000D03*
X130050000Y-54500000D03*
X125050000Y-54500000D03*
X130050000Y-52000000D03*
X127550000Y-52000000D03*
X125050000Y-52000000D03*
D19*
X62660000Y-71310000D03*
X59760000Y-71310000D03*
D20*
X88500000Y-77000000D03*
X88500000Y-79000000D03*
D17*
X68900000Y-60000000D03*
X66900000Y-60000000D03*
X60310000Y-67480000D03*
X62310000Y-67480000D03*
D16*
X93450000Y-64900000D03*
X91550000Y-64900000D03*
X67880000Y-71310000D03*
X65980000Y-71310000D03*
D15*
X96400000Y-67950000D03*
X96400000Y-69850000D03*
D16*
X75050000Y-62500000D03*
X76950000Y-62500000D03*
X66950000Y-62250000D03*
X65050000Y-62250000D03*
D18*
X102020000Y-53000000D03*
X94400000Y-53000000D03*
D21*
X83810000Y-49400000D03*
D22*
X80000000Y-49400000D03*
X76190000Y-49400000D03*
X72380000Y-49400000D03*
X68570000Y-49400000D03*
X64760000Y-49400000D03*
X60950000Y-49400000D03*
X57140000Y-49400000D03*
D18*
X117320000Y-52900000D03*
X109700000Y-52900000D03*
D23*
X60000000Y-60000000D03*
X160000000Y-60000000D03*
M02*
