G04 #@! TF.FileFunction,Copper,L3,Inr,Signal*
%FSLAX46Y46*%
G04 Gerber Fmt 4.6, Leading zero omitted, Abs format (unit mm)*
G04 Created by KiCad (PCBNEW 4.0.6) date Thu Jun  1 11:47:27 2017*
%MOMM*%
%LPD*%
G01*
G04 APERTURE LIST*
%ADD10C,0.100000*%
%ADD11C,1.998980*%
%ADD12O,2.540000X5.080000*%
%ADD13R,1.800000X3.600000*%
%ADD14O,1.800000X3.600000*%
%ADD15C,0.600000*%
%ADD16C,2.000000*%
%ADD17C,0.250000*%
%ADD18C,0.419100*%
%ADD19C,0.254000*%
G04 APERTURE END LIST*
D10*
D11*
X77410000Y-77830000D03*
X76170000Y-76120000D03*
X86500000Y-78900000D03*
X90530000Y-78900000D03*
X94210000Y-78930000D03*
X132550000Y-59500000D03*
X125050000Y-57000000D03*
X125050000Y-59500000D03*
X127550000Y-57000000D03*
X130050000Y-57000000D03*
X132550000Y-57000000D03*
X130050000Y-59500000D03*
X127550000Y-59500000D03*
X146000000Y-52090000D03*
X148500000Y-52090000D03*
X148500000Y-47090000D03*
X146000000Y-47090000D03*
X148500000Y-49590000D03*
X146000000Y-49590000D03*
X148500000Y-44590000D03*
X146000000Y-42090000D03*
X146000000Y-44590000D03*
X153500000Y-49590000D03*
X153500000Y-52090000D03*
X151000000Y-52090000D03*
X151000000Y-49590000D03*
X151000000Y-47090000D03*
X153500000Y-44590000D03*
X151000000Y-44590000D03*
X153500000Y-47090000D03*
X153500000Y-42090000D03*
X151000000Y-42090000D03*
X148500000Y-42090000D03*
X148500000Y-57090000D03*
X148500000Y-59590000D03*
X141000000Y-59590000D03*
X141000000Y-57090000D03*
X135050000Y-57000000D03*
X137550000Y-59500000D03*
X137550000Y-57000000D03*
X135050000Y-59500000D03*
X143500000Y-59590000D03*
X146000000Y-54590000D03*
X146000000Y-59590000D03*
X146000000Y-57090000D03*
X143500000Y-57090000D03*
X153500000Y-57090000D03*
X153500000Y-54590000D03*
X151000000Y-54590000D03*
X148500000Y-54590000D03*
X153500000Y-59590000D03*
X151000000Y-59590000D03*
X151000000Y-57090000D03*
X137550000Y-47000000D03*
X135050000Y-47000000D03*
X132550000Y-47000000D03*
X137550000Y-44500000D03*
X135050000Y-44500000D03*
X132550000Y-44500000D03*
X127550000Y-42000000D03*
X130050000Y-44500000D03*
X127550000Y-44500000D03*
X125050000Y-44500000D03*
X130050000Y-42000000D03*
X125050000Y-42000000D03*
X137550000Y-49500000D03*
X137550000Y-54500000D03*
X132550000Y-54500000D03*
X137550000Y-52000000D03*
X132550000Y-52000000D03*
X132550000Y-49500000D03*
X127550000Y-47000000D03*
X130050000Y-49500000D03*
X125050000Y-49500000D03*
X130050000Y-47000000D03*
X127550000Y-49500000D03*
X125050000Y-47000000D03*
D12*
X142770000Y-52700000D03*
X135150000Y-52700000D03*
D11*
X141000000Y-44590000D03*
X143500000Y-47090000D03*
X141000000Y-49590000D03*
X141000000Y-47090000D03*
X143500000Y-44590000D03*
X127550000Y-54500000D03*
X130050000Y-54500000D03*
X125050000Y-54500000D03*
X130050000Y-52000000D03*
X127550000Y-52000000D03*
X125050000Y-52000000D03*
D12*
X102020000Y-53000000D03*
X94400000Y-53000000D03*
D13*
X83810000Y-49400000D03*
D14*
X80000000Y-49400000D03*
X76190000Y-49400000D03*
X72380000Y-49400000D03*
X68570000Y-49400000D03*
X64760000Y-49400000D03*
X60950000Y-49400000D03*
X57140000Y-49400000D03*
D12*
X117320000Y-52900000D03*
X109700000Y-52900000D03*
D15*
X82500000Y-55200000D03*
X81300000Y-55200000D03*
X81900000Y-55200000D03*
X73000000Y-55100000D03*
X75700000Y-73400000D03*
D16*
X107200000Y-64800000D03*
X96400000Y-66500000D03*
D15*
X75893288Y-68206712D03*
X74680000Y-75440000D03*
X123200000Y-65700000D03*
X122000000Y-64700000D03*
X109300000Y-70200000D03*
X84900000Y-68500000D03*
X68700000Y-67300000D03*
X64700000Y-64200000D03*
X88500000Y-75500000D03*
X90100000Y-63300000D03*
X80300000Y-64300000D03*
X75700000Y-69400000D03*
X71895046Y-68300000D03*
X69900000Y-67600000D03*
D16*
X99450000Y-61650000D03*
D15*
X81250000Y-61250000D03*
X91900000Y-58500000D03*
X91100000Y-66900000D03*
X89800000Y-66900000D03*
X88700000Y-70400000D03*
X88700000Y-69600000D03*
X83300000Y-70100000D03*
X86600000Y-73100000D03*
X63000000Y-63200000D03*
X71000000Y-63250000D03*
X80900000Y-73600000D03*
X89590440Y-71709560D03*
X83409560Y-71709560D03*
X87000000Y-61200000D03*
X76300000Y-72500000D03*
X85990449Y-66190449D03*
X55400000Y-66200000D03*
X76400000Y-70700000D03*
X63600000Y-57700000D03*
X65200000Y-60900000D03*
X66000000Y-65600000D03*
X72100000Y-63900000D03*
X77000000Y-67500000D03*
X78600000Y-64323062D03*
X99900000Y-58100000D03*
D17*
X140600000Y-68300000D02*
X142300000Y-68300000D01*
X117500000Y-56300000D02*
X120100000Y-58800000D01*
X120100000Y-58800000D02*
X120100000Y-66500000D01*
X120100000Y-66500000D02*
X121900000Y-68300000D01*
X121900000Y-68300000D02*
X140600000Y-68300000D01*
X81900000Y-55200000D02*
X81900000Y-55600000D01*
X97800000Y-56300000D02*
X111400000Y-56300000D01*
X96300000Y-56300000D02*
X97800000Y-56300000D01*
X90900000Y-56300000D02*
X96300000Y-56300000D01*
X86800000Y-56300000D02*
X90900000Y-56300000D01*
X83200000Y-56300000D02*
X86800000Y-56300000D01*
X81900000Y-55600000D02*
X83200000Y-56300000D01*
X111400000Y-56300000D02*
X117500000Y-56300000D01*
X142300000Y-68300000D02*
X143500000Y-67100000D01*
X143500000Y-59590000D02*
X143500000Y-67100000D01*
D18*
X75700000Y-73400000D02*
X74500000Y-73400000D01*
X73600000Y-55700000D02*
X73000000Y-55100000D01*
X73600000Y-72500000D02*
X73600000Y-55700000D01*
X74500000Y-73400000D02*
X73600000Y-72500000D01*
D19*
G36*
X121673000Y-63823442D02*
X121471057Y-63906883D01*
X121207808Y-64169673D01*
X121065162Y-64513201D01*
X121064838Y-64885167D01*
X121206883Y-65228943D01*
X121469673Y-65492192D01*
X121813201Y-65634838D01*
X122185167Y-65635162D01*
X122265085Y-65602141D01*
X122264838Y-65885167D01*
X122406883Y-66228943D01*
X122669673Y-66492192D01*
X123013201Y-66634838D01*
X123385167Y-66635162D01*
X123728943Y-66493117D01*
X123992192Y-66230327D01*
X124134838Y-65886799D01*
X124135162Y-65514833D01*
X123993117Y-65171057D01*
X123730327Y-64907808D01*
X123386799Y-64765162D01*
X123014833Y-64764838D01*
X122934915Y-64797859D01*
X122935162Y-64514833D01*
X122816232Y-64227000D01*
X140000000Y-64227000D01*
X140049410Y-64216994D01*
X140091035Y-64188553D01*
X140118315Y-64146159D01*
X140126997Y-64099179D01*
X139977823Y-41027000D01*
X155223000Y-41027000D01*
X155223000Y-64198099D01*
X155233006Y-64247509D01*
X155261447Y-64289134D01*
X155303841Y-64316414D01*
X155349629Y-64325098D01*
X155999629Y-64326999D01*
X156049068Y-64317138D01*
X156090775Y-64288819D01*
X156118179Y-64246505D01*
X156127000Y-64200000D01*
X156127000Y-60393109D01*
X158014657Y-60393109D01*
X158316218Y-61122943D01*
X158874120Y-61681819D01*
X159603427Y-61984654D01*
X160393109Y-61985343D01*
X161122943Y-61683782D01*
X161681819Y-61125880D01*
X161984654Y-60396573D01*
X161985343Y-59606891D01*
X161683782Y-58877057D01*
X161125880Y-58318181D01*
X160396573Y-58015346D01*
X159606891Y-58014657D01*
X158877057Y-58316218D01*
X158318181Y-58874120D01*
X158015346Y-59603427D01*
X158014657Y-60393109D01*
X156127000Y-60393109D01*
X156127000Y-40685000D01*
X169315000Y-40685000D01*
X169315000Y-79315000D01*
X95819934Y-79315000D01*
X95844206Y-79256547D01*
X95844774Y-78606306D01*
X95596462Y-78005345D01*
X95137073Y-77545154D01*
X94536547Y-77295794D01*
X93886306Y-77295226D01*
X93285345Y-77543538D01*
X92825154Y-78002927D01*
X92575794Y-78603453D01*
X92575226Y-79253694D01*
X92600557Y-79315000D01*
X92127477Y-79315000D01*
X92164206Y-79226547D01*
X92164774Y-78576306D01*
X91916462Y-77975345D01*
X91457073Y-77515154D01*
X90856547Y-77265794D01*
X90206306Y-77265226D01*
X89605345Y-77513538D01*
X89145154Y-77972927D01*
X88895794Y-78573453D01*
X88895226Y-79223694D01*
X88932953Y-79315000D01*
X88097477Y-79315000D01*
X88134206Y-79226547D01*
X88134774Y-78576306D01*
X87886462Y-77975345D01*
X87427073Y-77515154D01*
X86826547Y-77265794D01*
X86176306Y-77265226D01*
X85575345Y-77513538D01*
X85115154Y-77972927D01*
X84865794Y-78573453D01*
X84865226Y-79223694D01*
X84902953Y-79315000D01*
X50685000Y-79315000D01*
X50685000Y-75625167D01*
X73744838Y-75625167D01*
X73886883Y-75968943D01*
X74149673Y-76232192D01*
X74493201Y-76374838D01*
X74865167Y-76375162D01*
X75208943Y-76233117D01*
X75472192Y-75970327D01*
X75590601Y-75685167D01*
X87564838Y-75685167D01*
X87706883Y-76028943D01*
X87969673Y-76292192D01*
X88313201Y-76434838D01*
X88685167Y-76435162D01*
X89028943Y-76293117D01*
X89292192Y-76030327D01*
X89434838Y-75686799D01*
X89435162Y-75314833D01*
X89293117Y-74971057D01*
X89030327Y-74707808D01*
X88686799Y-74565162D01*
X88314833Y-74564838D01*
X87971057Y-74706883D01*
X87707808Y-74969673D01*
X87565162Y-75313201D01*
X87564838Y-75685167D01*
X75590601Y-75685167D01*
X75614838Y-75626799D01*
X75615162Y-75254833D01*
X75473117Y-74911057D01*
X75210327Y-74647808D01*
X74866799Y-74505162D01*
X74494833Y-74504838D01*
X74151057Y-74646883D01*
X73887808Y-74909673D01*
X73745162Y-75253201D01*
X73744838Y-75625167D01*
X50685000Y-75625167D01*
X50685000Y-73785167D01*
X79964838Y-73785167D01*
X80106883Y-74128943D01*
X80369673Y-74392192D01*
X80713201Y-74534838D01*
X81085167Y-74535162D01*
X81428943Y-74393117D01*
X81692192Y-74130327D01*
X81834838Y-73786799D01*
X81835162Y-73414833D01*
X81693117Y-73071057D01*
X81430327Y-72807808D01*
X81086799Y-72665162D01*
X80714833Y-72664838D01*
X80371057Y-72806883D01*
X80107808Y-73069673D01*
X79965162Y-73413201D01*
X79964838Y-73785167D01*
X50685000Y-73785167D01*
X50685000Y-69585167D01*
X74764838Y-69585167D01*
X74906883Y-69928943D01*
X75169673Y-70192192D01*
X75513201Y-70334838D01*
X75539216Y-70334861D01*
X75465162Y-70513201D01*
X75464838Y-70885167D01*
X75606883Y-71228943D01*
X75869673Y-71492192D01*
X76079641Y-71579379D01*
X75771057Y-71706883D01*
X75507808Y-71969673D01*
X75365162Y-72313201D01*
X75364838Y-72685167D01*
X75506883Y-73028943D01*
X75769673Y-73292192D01*
X76113201Y-73434838D01*
X76485167Y-73435162D01*
X76828943Y-73293117D01*
X77092192Y-73030327D01*
X77234838Y-72686799D01*
X77235162Y-72314833D01*
X77093117Y-71971057D01*
X76830327Y-71707808D01*
X76620359Y-71620621D01*
X76928943Y-71493117D01*
X77192192Y-71230327D01*
X77334838Y-70886799D01*
X77335162Y-70514833D01*
X77240267Y-70285167D01*
X82364838Y-70285167D01*
X82506883Y-70628943D01*
X82769673Y-70892192D01*
X82865182Y-70931851D01*
X82617368Y-71179233D01*
X82474722Y-71522761D01*
X82474398Y-71894727D01*
X82616443Y-72238503D01*
X82879233Y-72501752D01*
X83222761Y-72644398D01*
X83594727Y-72644722D01*
X83938503Y-72502677D01*
X84201752Y-72239887D01*
X84344398Y-71896359D01*
X84344722Y-71524393D01*
X84202677Y-71180617D01*
X83939887Y-70917368D01*
X83844378Y-70877709D01*
X84092192Y-70630327D01*
X84234838Y-70286799D01*
X84235162Y-69914833D01*
X84093117Y-69571057D01*
X83830327Y-69307808D01*
X83486799Y-69165162D01*
X83114833Y-69164838D01*
X82771057Y-69306883D01*
X82507808Y-69569673D01*
X82365162Y-69913201D01*
X82364838Y-70285167D01*
X77240267Y-70285167D01*
X77193117Y-70171057D01*
X76930327Y-69907808D01*
X76586799Y-69765162D01*
X76560784Y-69765139D01*
X76634838Y-69586799D01*
X76635162Y-69214833D01*
X76510087Y-68912127D01*
X76685480Y-68737039D01*
X76707019Y-68685167D01*
X83964838Y-68685167D01*
X84106883Y-69028943D01*
X84369673Y-69292192D01*
X84713201Y-69434838D01*
X85085167Y-69435162D01*
X85173000Y-69398870D01*
X85173000Y-72800000D01*
X85183006Y-72849410D01*
X85211447Y-72891035D01*
X85253841Y-72918315D01*
X85300000Y-72927000D01*
X85665150Y-72927000D01*
X85664838Y-73285167D01*
X85806883Y-73628943D01*
X86069673Y-73892192D01*
X86413201Y-74034838D01*
X86785167Y-74035162D01*
X87128943Y-73893117D01*
X87392192Y-73630327D01*
X87534838Y-73286799D01*
X87535151Y-72927000D01*
X98100000Y-72927000D01*
X98149410Y-72916994D01*
X98191035Y-72888553D01*
X98218315Y-72846159D01*
X98227000Y-72800000D01*
X98227000Y-70385167D01*
X108364838Y-70385167D01*
X108506883Y-70728943D01*
X108769673Y-70992192D01*
X109113201Y-71134838D01*
X109485167Y-71135162D01*
X109828943Y-70993117D01*
X110092192Y-70730327D01*
X110234838Y-70386799D01*
X110235162Y-70014833D01*
X110093117Y-69671057D01*
X109830327Y-69407808D01*
X109486799Y-69265162D01*
X109114833Y-69264838D01*
X108771057Y-69406883D01*
X108507808Y-69669673D01*
X108365162Y-70013201D01*
X108364838Y-70385167D01*
X98227000Y-70385167D01*
X98227000Y-65123795D01*
X105564716Y-65123795D01*
X105813106Y-65724943D01*
X106272637Y-66185278D01*
X106873352Y-66434716D01*
X107523795Y-66435284D01*
X108124943Y-66186894D01*
X108585278Y-65727363D01*
X108834716Y-65126648D01*
X108835284Y-64476205D01*
X108586894Y-63875057D01*
X108127363Y-63414722D01*
X107526648Y-63165284D01*
X106876205Y-63164716D01*
X106275057Y-63413106D01*
X105814722Y-63872637D01*
X105565284Y-64473352D01*
X105564716Y-65123795D01*
X98227000Y-65123795D01*
X98227000Y-62739124D01*
X98522637Y-63035278D01*
X99123352Y-63284716D01*
X99773795Y-63285284D01*
X100374943Y-63036894D01*
X100835278Y-62577363D01*
X101084716Y-61976648D01*
X101085284Y-61326205D01*
X100836894Y-60725057D01*
X100377363Y-60264722D01*
X99776648Y-60015284D01*
X99126205Y-60014716D01*
X98525057Y-60263106D01*
X98227000Y-60560642D01*
X98227000Y-58285167D01*
X98964838Y-58285167D01*
X99106883Y-58628943D01*
X99369673Y-58892192D01*
X99713201Y-59034838D01*
X100085167Y-59035162D01*
X100428943Y-58893117D01*
X100692192Y-58630327D01*
X100834838Y-58286799D01*
X100835162Y-57914833D01*
X100693117Y-57571057D01*
X100430327Y-57307808D01*
X100086799Y-57165162D01*
X99714833Y-57164838D01*
X99371057Y-57306883D01*
X99107808Y-57569673D01*
X98965162Y-57913201D01*
X98964838Y-58285167D01*
X98227000Y-58285167D01*
X98227000Y-56500000D01*
X98216994Y-56450590D01*
X98188553Y-56408965D01*
X98146159Y-56381685D01*
X98100000Y-56373000D01*
X85300000Y-56373000D01*
X85250590Y-56383006D01*
X85208965Y-56411447D01*
X85181685Y-56453841D01*
X85173000Y-56500000D01*
X85173000Y-65720947D01*
X85055611Y-66003650D01*
X85055287Y-66375616D01*
X85173000Y-66660504D01*
X85173000Y-67600956D01*
X85086799Y-67565162D01*
X84714833Y-67564838D01*
X84371057Y-67706883D01*
X84107808Y-67969673D01*
X83965162Y-68313201D01*
X83964838Y-68685167D01*
X76707019Y-68685167D01*
X76811294Y-68434046D01*
X76813201Y-68434838D01*
X77185167Y-68435162D01*
X77528943Y-68293117D01*
X77792192Y-68030327D01*
X77934838Y-67686799D01*
X77935162Y-67314833D01*
X77793117Y-66971057D01*
X77530327Y-66707808D01*
X77186799Y-66565162D01*
X76814833Y-66564838D01*
X76471057Y-66706883D01*
X76207808Y-66969673D01*
X76081994Y-67272666D01*
X76080087Y-67271874D01*
X75708121Y-67271550D01*
X75364345Y-67413595D01*
X75101096Y-67676385D01*
X74958450Y-68019913D01*
X74958126Y-68391879D01*
X75083201Y-68694585D01*
X74907808Y-68869673D01*
X74765162Y-69213201D01*
X74764838Y-69585167D01*
X50685000Y-69585167D01*
X50685000Y-67485167D01*
X67764838Y-67485167D01*
X67906883Y-67828943D01*
X68169673Y-68092192D01*
X68513201Y-68234838D01*
X68885167Y-68235162D01*
X69117207Y-68139285D01*
X69369673Y-68392192D01*
X69713201Y-68534838D01*
X70085167Y-68535162D01*
X70206164Y-68485167D01*
X70959884Y-68485167D01*
X71101929Y-68828943D01*
X71364719Y-69092192D01*
X71708247Y-69234838D01*
X72080213Y-69235162D01*
X72423989Y-69093117D01*
X72687238Y-68830327D01*
X72829884Y-68486799D01*
X72830208Y-68114833D01*
X72688163Y-67771057D01*
X72425373Y-67507808D01*
X72081845Y-67365162D01*
X71709879Y-67364838D01*
X71366103Y-67506883D01*
X71102854Y-67769673D01*
X70960208Y-68113201D01*
X70959884Y-68485167D01*
X70206164Y-68485167D01*
X70428943Y-68393117D01*
X70692192Y-68130327D01*
X70834838Y-67786799D01*
X70835162Y-67414833D01*
X70693117Y-67071057D01*
X70430327Y-66807808D01*
X70086799Y-66665162D01*
X69714833Y-66664838D01*
X69482793Y-66760715D01*
X69230327Y-66507808D01*
X68886799Y-66365162D01*
X68514833Y-66364838D01*
X68171057Y-66506883D01*
X67907808Y-66769673D01*
X67765162Y-67113201D01*
X67764838Y-67485167D01*
X50685000Y-67485167D01*
X50685000Y-66385167D01*
X54464838Y-66385167D01*
X54606883Y-66728943D01*
X54869673Y-66992192D01*
X55213201Y-67134838D01*
X55585167Y-67135162D01*
X55928943Y-66993117D01*
X56192192Y-66730327D01*
X56334838Y-66386799D01*
X56335162Y-66014833D01*
X56240267Y-65785167D01*
X65064838Y-65785167D01*
X65206883Y-66128943D01*
X65469673Y-66392192D01*
X65813201Y-66534838D01*
X66185167Y-66535162D01*
X66528943Y-66393117D01*
X66792192Y-66130327D01*
X66934838Y-65786799D01*
X66935162Y-65414833D01*
X66793117Y-65071057D01*
X66530327Y-64807808D01*
X66186799Y-64665162D01*
X65814833Y-64664838D01*
X65471057Y-64806883D01*
X65207808Y-65069673D01*
X65065162Y-65413201D01*
X65064838Y-65785167D01*
X56240267Y-65785167D01*
X56193117Y-65671057D01*
X55930327Y-65407808D01*
X55586799Y-65265162D01*
X55214833Y-65264838D01*
X54871057Y-65406883D01*
X54607808Y-65669673D01*
X54465162Y-66013201D01*
X54464838Y-66385167D01*
X50685000Y-66385167D01*
X50685000Y-64385167D01*
X63764838Y-64385167D01*
X63906883Y-64728943D01*
X64169673Y-64992192D01*
X64513201Y-65134838D01*
X64885167Y-65135162D01*
X65228943Y-64993117D01*
X65492192Y-64730327D01*
X65634838Y-64386799D01*
X65635162Y-64014833D01*
X65493117Y-63671057D01*
X65257639Y-63435167D01*
X70064838Y-63435167D01*
X70206883Y-63778943D01*
X70469673Y-64042192D01*
X70813201Y-64184838D01*
X71185167Y-64185162D01*
X71203094Y-64177755D01*
X71306883Y-64428943D01*
X71569673Y-64692192D01*
X71913201Y-64834838D01*
X72285167Y-64835162D01*
X72628943Y-64693117D01*
X72814153Y-64508229D01*
X77664838Y-64508229D01*
X77806883Y-64852005D01*
X78069673Y-65115254D01*
X78413201Y-65257900D01*
X78785167Y-65258224D01*
X79128943Y-65116179D01*
X79392192Y-64853389D01*
X79454742Y-64702752D01*
X79506883Y-64828943D01*
X79769673Y-65092192D01*
X80113201Y-65234838D01*
X80485167Y-65235162D01*
X80828943Y-65093117D01*
X81092192Y-64830327D01*
X81234838Y-64486799D01*
X81235162Y-64114833D01*
X81093117Y-63771057D01*
X80830327Y-63507808D01*
X80486799Y-63365162D01*
X80114833Y-63364838D01*
X79771057Y-63506883D01*
X79507808Y-63769673D01*
X79445258Y-63920310D01*
X79393117Y-63794119D01*
X79130327Y-63530870D01*
X78786799Y-63388224D01*
X78414833Y-63387900D01*
X78071057Y-63529945D01*
X77807808Y-63792735D01*
X77665162Y-64136263D01*
X77664838Y-64508229D01*
X72814153Y-64508229D01*
X72892192Y-64430327D01*
X73034838Y-64086799D01*
X73035162Y-63714833D01*
X72893117Y-63371057D01*
X72630327Y-63107808D01*
X72286799Y-62965162D01*
X71914833Y-62964838D01*
X71896906Y-62972245D01*
X71793117Y-62721057D01*
X71530327Y-62457808D01*
X71186799Y-62315162D01*
X70814833Y-62314838D01*
X70471057Y-62456883D01*
X70207808Y-62719673D01*
X70065162Y-63063201D01*
X70064838Y-63435167D01*
X65257639Y-63435167D01*
X65230327Y-63407808D01*
X64886799Y-63265162D01*
X64514833Y-63264838D01*
X64171057Y-63406883D01*
X63907808Y-63669673D01*
X63765162Y-64013201D01*
X63764838Y-64385167D01*
X50685000Y-64385167D01*
X50685000Y-63385167D01*
X62064838Y-63385167D01*
X62206883Y-63728943D01*
X62469673Y-63992192D01*
X62813201Y-64134838D01*
X63185167Y-64135162D01*
X63528943Y-63993117D01*
X63792192Y-63730327D01*
X63934838Y-63386799D01*
X63935162Y-63014833D01*
X63793117Y-62671057D01*
X63530327Y-62407808D01*
X63186799Y-62265162D01*
X62814833Y-62264838D01*
X62471057Y-62406883D01*
X62207808Y-62669673D01*
X62065162Y-63013201D01*
X62064838Y-63385167D01*
X50685000Y-63385167D01*
X50685000Y-60393109D01*
X58014657Y-60393109D01*
X58316218Y-61122943D01*
X58874120Y-61681819D01*
X59603427Y-61984654D01*
X60393109Y-61985343D01*
X61122943Y-61683782D01*
X61681819Y-61125880D01*
X61698724Y-61085167D01*
X64264838Y-61085167D01*
X64406883Y-61428943D01*
X64669673Y-61692192D01*
X65013201Y-61834838D01*
X65385167Y-61835162D01*
X65728943Y-61693117D01*
X65987343Y-61435167D01*
X80314838Y-61435167D01*
X80456883Y-61778943D01*
X80719673Y-62042192D01*
X81063201Y-62184838D01*
X81435167Y-62185162D01*
X81778943Y-62043117D01*
X82042192Y-61780327D01*
X82184838Y-61436799D01*
X82185162Y-61064833D01*
X82043117Y-60721057D01*
X81780327Y-60457808D01*
X81436799Y-60315162D01*
X81064833Y-60314838D01*
X80721057Y-60456883D01*
X80457808Y-60719673D01*
X80315162Y-61063201D01*
X80314838Y-61435167D01*
X65987343Y-61435167D01*
X65992192Y-61430327D01*
X66134838Y-61086799D01*
X66135162Y-60714833D01*
X65993117Y-60371057D01*
X65730327Y-60107808D01*
X65386799Y-59965162D01*
X65014833Y-59964838D01*
X64671057Y-60106883D01*
X64407808Y-60369673D01*
X64265162Y-60713201D01*
X64264838Y-61085167D01*
X61698724Y-61085167D01*
X61984654Y-60396573D01*
X61985343Y-59606891D01*
X61683782Y-58877057D01*
X61125880Y-58318181D01*
X60396573Y-58015346D01*
X59606891Y-58014657D01*
X58877057Y-58316218D01*
X58318181Y-58874120D01*
X58015346Y-59603427D01*
X58014657Y-60393109D01*
X50685000Y-60393109D01*
X50685000Y-57885167D01*
X62664838Y-57885167D01*
X62806883Y-58228943D01*
X63069673Y-58492192D01*
X63413201Y-58634838D01*
X63785167Y-58635162D01*
X64128943Y-58493117D01*
X64392192Y-58230327D01*
X64534838Y-57886799D01*
X64535162Y-57514833D01*
X64393117Y-57171057D01*
X64130327Y-56907808D01*
X63786799Y-56765162D01*
X63414833Y-56764838D01*
X63071057Y-56906883D01*
X62807808Y-57169673D01*
X62665162Y-57513201D01*
X62664838Y-57885167D01*
X50685000Y-57885167D01*
X50685000Y-48452296D01*
X55605000Y-48452296D01*
X55605000Y-50347704D01*
X55721845Y-50935123D01*
X56054591Y-51433113D01*
X56552581Y-51765859D01*
X57140000Y-51882704D01*
X57727419Y-51765859D01*
X58225409Y-51433113D01*
X58558155Y-50935123D01*
X58675000Y-50347704D01*
X58675000Y-48452296D01*
X59415000Y-48452296D01*
X59415000Y-50347704D01*
X59531845Y-50935123D01*
X59864591Y-51433113D01*
X60362581Y-51765859D01*
X60950000Y-51882704D01*
X61537419Y-51765859D01*
X62035409Y-51433113D01*
X62368155Y-50935123D01*
X62485000Y-50347704D01*
X62485000Y-48452296D01*
X63225000Y-48452296D01*
X63225000Y-50347704D01*
X63341845Y-50935123D01*
X63674591Y-51433113D01*
X64172581Y-51765859D01*
X64760000Y-51882704D01*
X65347419Y-51765859D01*
X65845409Y-51433113D01*
X66178155Y-50935123D01*
X66295000Y-50347704D01*
X66295000Y-48452296D01*
X67035000Y-48452296D01*
X67035000Y-50347704D01*
X67151845Y-50935123D01*
X67484591Y-51433113D01*
X67982581Y-51765859D01*
X68570000Y-51882704D01*
X69157419Y-51765859D01*
X69655409Y-51433113D01*
X69988155Y-50935123D01*
X70105000Y-50347704D01*
X70105000Y-48452296D01*
X70845000Y-48452296D01*
X70845000Y-50347704D01*
X70961845Y-50935123D01*
X71294591Y-51433113D01*
X71792581Y-51765859D01*
X72380000Y-51882704D01*
X72967419Y-51765859D01*
X73465409Y-51433113D01*
X73798155Y-50935123D01*
X73915000Y-50347704D01*
X73915000Y-48452296D01*
X74655000Y-48452296D01*
X74655000Y-50347704D01*
X74771845Y-50935123D01*
X75104591Y-51433113D01*
X75602581Y-51765859D01*
X76190000Y-51882704D01*
X76777419Y-51765859D01*
X77275409Y-51433113D01*
X77608155Y-50935123D01*
X77725000Y-50347704D01*
X77725000Y-48452296D01*
X78465000Y-48452296D01*
X78465000Y-50347704D01*
X78581845Y-50935123D01*
X78914591Y-51433113D01*
X79412581Y-51765859D01*
X80000000Y-51882704D01*
X80587419Y-51765859D01*
X81085409Y-51433113D01*
X81418155Y-50935123D01*
X81535000Y-50347704D01*
X81535000Y-48452296D01*
X81418155Y-47864877D01*
X81241170Y-47600000D01*
X82262560Y-47600000D01*
X82262560Y-51200000D01*
X82306838Y-51435317D01*
X82445910Y-51651441D01*
X82658110Y-51796431D01*
X82910000Y-51847440D01*
X84710000Y-51847440D01*
X84945317Y-51803162D01*
X85155678Y-51667798D01*
X92495000Y-51667798D01*
X92495000Y-54332202D01*
X92640009Y-55061214D01*
X93052962Y-55679240D01*
X93670988Y-56092193D01*
X94400000Y-56237202D01*
X95129012Y-56092193D01*
X95747038Y-55679240D01*
X96159991Y-55061214D01*
X96305000Y-54332202D01*
X96305000Y-51667798D01*
X100115000Y-51667798D01*
X100115000Y-54332202D01*
X100260009Y-55061214D01*
X100672962Y-55679240D01*
X101290988Y-56092193D01*
X102020000Y-56237202D01*
X102749012Y-56092193D01*
X103367038Y-55679240D01*
X103779991Y-55061214D01*
X103925000Y-54332202D01*
X103925000Y-51667798D01*
X103905109Y-51567798D01*
X107795000Y-51567798D01*
X107795000Y-54232202D01*
X107940009Y-54961214D01*
X108352962Y-55579240D01*
X108970988Y-55992193D01*
X109700000Y-56137202D01*
X110429012Y-55992193D01*
X111047038Y-55579240D01*
X111459991Y-54961214D01*
X111605000Y-54232202D01*
X111605000Y-51567798D01*
X115415000Y-51567798D01*
X115415000Y-54232202D01*
X115560009Y-54961214D01*
X115972962Y-55579240D01*
X116590988Y-55992193D01*
X117320000Y-56137202D01*
X118049012Y-55992193D01*
X118667038Y-55579240D01*
X119079991Y-54961214D01*
X119225000Y-54232202D01*
X119225000Y-51567798D01*
X119079991Y-50838786D01*
X118667038Y-50220760D01*
X118049012Y-49807807D01*
X117320000Y-49662798D01*
X116590988Y-49807807D01*
X115972962Y-50220760D01*
X115560009Y-50838786D01*
X115415000Y-51567798D01*
X111605000Y-51567798D01*
X111459991Y-50838786D01*
X111047038Y-50220760D01*
X110429012Y-49807807D01*
X109700000Y-49662798D01*
X108970988Y-49807807D01*
X108352962Y-50220760D01*
X107940009Y-50838786D01*
X107795000Y-51567798D01*
X103905109Y-51567798D01*
X103779991Y-50938786D01*
X103367038Y-50320760D01*
X102749012Y-49907807D01*
X102020000Y-49762798D01*
X101290988Y-49907807D01*
X100672962Y-50320760D01*
X100260009Y-50938786D01*
X100115000Y-51667798D01*
X96305000Y-51667798D01*
X96159991Y-50938786D01*
X95747038Y-50320760D01*
X95129012Y-49907807D01*
X94400000Y-49762798D01*
X93670988Y-49907807D01*
X93052962Y-50320760D01*
X92640009Y-50938786D01*
X92495000Y-51667798D01*
X85155678Y-51667798D01*
X85161441Y-51664090D01*
X85306431Y-51451890D01*
X85357440Y-51200000D01*
X85357440Y-47600000D01*
X85313162Y-47364683D01*
X85174090Y-47148559D01*
X84961890Y-47003569D01*
X84710000Y-46952560D01*
X82910000Y-46952560D01*
X82674683Y-46996838D01*
X82458559Y-47135910D01*
X82313569Y-47348110D01*
X82262560Y-47600000D01*
X81241170Y-47600000D01*
X81085409Y-47366887D01*
X80587419Y-47034141D01*
X80000000Y-46917296D01*
X79412581Y-47034141D01*
X78914591Y-47366887D01*
X78581845Y-47864877D01*
X78465000Y-48452296D01*
X77725000Y-48452296D01*
X77608155Y-47864877D01*
X77275409Y-47366887D01*
X76777419Y-47034141D01*
X76190000Y-46917296D01*
X75602581Y-47034141D01*
X75104591Y-47366887D01*
X74771845Y-47864877D01*
X74655000Y-48452296D01*
X73915000Y-48452296D01*
X73798155Y-47864877D01*
X73465409Y-47366887D01*
X72967419Y-47034141D01*
X72380000Y-46917296D01*
X71792581Y-47034141D01*
X71294591Y-47366887D01*
X70961845Y-47864877D01*
X70845000Y-48452296D01*
X70105000Y-48452296D01*
X69988155Y-47864877D01*
X69655409Y-47366887D01*
X69157419Y-47034141D01*
X68570000Y-46917296D01*
X67982581Y-47034141D01*
X67484591Y-47366887D01*
X67151845Y-47864877D01*
X67035000Y-48452296D01*
X66295000Y-48452296D01*
X66178155Y-47864877D01*
X65845409Y-47366887D01*
X65347419Y-47034141D01*
X64760000Y-46917296D01*
X64172581Y-47034141D01*
X63674591Y-47366887D01*
X63341845Y-47864877D01*
X63225000Y-48452296D01*
X62485000Y-48452296D01*
X62368155Y-47864877D01*
X62035409Y-47366887D01*
X61537419Y-47034141D01*
X60950000Y-46917296D01*
X60362581Y-47034141D01*
X59864591Y-47366887D01*
X59531845Y-47864877D01*
X59415000Y-48452296D01*
X58675000Y-48452296D01*
X58558155Y-47864877D01*
X58225409Y-47366887D01*
X57727419Y-47034141D01*
X57140000Y-46917296D01*
X56552581Y-47034141D01*
X56054591Y-47366887D01*
X55721845Y-47864877D01*
X55605000Y-48452296D01*
X50685000Y-48452296D01*
X50685000Y-40685000D01*
X121673000Y-40685000D01*
X121673000Y-63823442D01*
X121673000Y-63823442D01*
G37*
X121673000Y-63823442D02*
X121471057Y-63906883D01*
X121207808Y-64169673D01*
X121065162Y-64513201D01*
X121064838Y-64885167D01*
X121206883Y-65228943D01*
X121469673Y-65492192D01*
X121813201Y-65634838D01*
X122185167Y-65635162D01*
X122265085Y-65602141D01*
X122264838Y-65885167D01*
X122406883Y-66228943D01*
X122669673Y-66492192D01*
X123013201Y-66634838D01*
X123385167Y-66635162D01*
X123728943Y-66493117D01*
X123992192Y-66230327D01*
X124134838Y-65886799D01*
X124135162Y-65514833D01*
X123993117Y-65171057D01*
X123730327Y-64907808D01*
X123386799Y-64765162D01*
X123014833Y-64764838D01*
X122934915Y-64797859D01*
X122935162Y-64514833D01*
X122816232Y-64227000D01*
X140000000Y-64227000D01*
X140049410Y-64216994D01*
X140091035Y-64188553D01*
X140118315Y-64146159D01*
X140126997Y-64099179D01*
X139977823Y-41027000D01*
X155223000Y-41027000D01*
X155223000Y-64198099D01*
X155233006Y-64247509D01*
X155261447Y-64289134D01*
X155303841Y-64316414D01*
X155349629Y-64325098D01*
X155999629Y-64326999D01*
X156049068Y-64317138D01*
X156090775Y-64288819D01*
X156118179Y-64246505D01*
X156127000Y-64200000D01*
X156127000Y-60393109D01*
X158014657Y-60393109D01*
X158316218Y-61122943D01*
X158874120Y-61681819D01*
X159603427Y-61984654D01*
X160393109Y-61985343D01*
X161122943Y-61683782D01*
X161681819Y-61125880D01*
X161984654Y-60396573D01*
X161985343Y-59606891D01*
X161683782Y-58877057D01*
X161125880Y-58318181D01*
X160396573Y-58015346D01*
X159606891Y-58014657D01*
X158877057Y-58316218D01*
X158318181Y-58874120D01*
X158015346Y-59603427D01*
X158014657Y-60393109D01*
X156127000Y-60393109D01*
X156127000Y-40685000D01*
X169315000Y-40685000D01*
X169315000Y-79315000D01*
X95819934Y-79315000D01*
X95844206Y-79256547D01*
X95844774Y-78606306D01*
X95596462Y-78005345D01*
X95137073Y-77545154D01*
X94536547Y-77295794D01*
X93886306Y-77295226D01*
X93285345Y-77543538D01*
X92825154Y-78002927D01*
X92575794Y-78603453D01*
X92575226Y-79253694D01*
X92600557Y-79315000D01*
X92127477Y-79315000D01*
X92164206Y-79226547D01*
X92164774Y-78576306D01*
X91916462Y-77975345D01*
X91457073Y-77515154D01*
X90856547Y-77265794D01*
X90206306Y-77265226D01*
X89605345Y-77513538D01*
X89145154Y-77972927D01*
X88895794Y-78573453D01*
X88895226Y-79223694D01*
X88932953Y-79315000D01*
X88097477Y-79315000D01*
X88134206Y-79226547D01*
X88134774Y-78576306D01*
X87886462Y-77975345D01*
X87427073Y-77515154D01*
X86826547Y-77265794D01*
X86176306Y-77265226D01*
X85575345Y-77513538D01*
X85115154Y-77972927D01*
X84865794Y-78573453D01*
X84865226Y-79223694D01*
X84902953Y-79315000D01*
X50685000Y-79315000D01*
X50685000Y-75625167D01*
X73744838Y-75625167D01*
X73886883Y-75968943D01*
X74149673Y-76232192D01*
X74493201Y-76374838D01*
X74865167Y-76375162D01*
X75208943Y-76233117D01*
X75472192Y-75970327D01*
X75590601Y-75685167D01*
X87564838Y-75685167D01*
X87706883Y-76028943D01*
X87969673Y-76292192D01*
X88313201Y-76434838D01*
X88685167Y-76435162D01*
X89028943Y-76293117D01*
X89292192Y-76030327D01*
X89434838Y-75686799D01*
X89435162Y-75314833D01*
X89293117Y-74971057D01*
X89030327Y-74707808D01*
X88686799Y-74565162D01*
X88314833Y-74564838D01*
X87971057Y-74706883D01*
X87707808Y-74969673D01*
X87565162Y-75313201D01*
X87564838Y-75685167D01*
X75590601Y-75685167D01*
X75614838Y-75626799D01*
X75615162Y-75254833D01*
X75473117Y-74911057D01*
X75210327Y-74647808D01*
X74866799Y-74505162D01*
X74494833Y-74504838D01*
X74151057Y-74646883D01*
X73887808Y-74909673D01*
X73745162Y-75253201D01*
X73744838Y-75625167D01*
X50685000Y-75625167D01*
X50685000Y-73785167D01*
X79964838Y-73785167D01*
X80106883Y-74128943D01*
X80369673Y-74392192D01*
X80713201Y-74534838D01*
X81085167Y-74535162D01*
X81428943Y-74393117D01*
X81692192Y-74130327D01*
X81834838Y-73786799D01*
X81835162Y-73414833D01*
X81693117Y-73071057D01*
X81430327Y-72807808D01*
X81086799Y-72665162D01*
X80714833Y-72664838D01*
X80371057Y-72806883D01*
X80107808Y-73069673D01*
X79965162Y-73413201D01*
X79964838Y-73785167D01*
X50685000Y-73785167D01*
X50685000Y-69585167D01*
X74764838Y-69585167D01*
X74906883Y-69928943D01*
X75169673Y-70192192D01*
X75513201Y-70334838D01*
X75539216Y-70334861D01*
X75465162Y-70513201D01*
X75464838Y-70885167D01*
X75606883Y-71228943D01*
X75869673Y-71492192D01*
X76079641Y-71579379D01*
X75771057Y-71706883D01*
X75507808Y-71969673D01*
X75365162Y-72313201D01*
X75364838Y-72685167D01*
X75506883Y-73028943D01*
X75769673Y-73292192D01*
X76113201Y-73434838D01*
X76485167Y-73435162D01*
X76828943Y-73293117D01*
X77092192Y-73030327D01*
X77234838Y-72686799D01*
X77235162Y-72314833D01*
X77093117Y-71971057D01*
X76830327Y-71707808D01*
X76620359Y-71620621D01*
X76928943Y-71493117D01*
X77192192Y-71230327D01*
X77334838Y-70886799D01*
X77335162Y-70514833D01*
X77240267Y-70285167D01*
X82364838Y-70285167D01*
X82506883Y-70628943D01*
X82769673Y-70892192D01*
X82865182Y-70931851D01*
X82617368Y-71179233D01*
X82474722Y-71522761D01*
X82474398Y-71894727D01*
X82616443Y-72238503D01*
X82879233Y-72501752D01*
X83222761Y-72644398D01*
X83594727Y-72644722D01*
X83938503Y-72502677D01*
X84201752Y-72239887D01*
X84344398Y-71896359D01*
X84344722Y-71524393D01*
X84202677Y-71180617D01*
X83939887Y-70917368D01*
X83844378Y-70877709D01*
X84092192Y-70630327D01*
X84234838Y-70286799D01*
X84235162Y-69914833D01*
X84093117Y-69571057D01*
X83830327Y-69307808D01*
X83486799Y-69165162D01*
X83114833Y-69164838D01*
X82771057Y-69306883D01*
X82507808Y-69569673D01*
X82365162Y-69913201D01*
X82364838Y-70285167D01*
X77240267Y-70285167D01*
X77193117Y-70171057D01*
X76930327Y-69907808D01*
X76586799Y-69765162D01*
X76560784Y-69765139D01*
X76634838Y-69586799D01*
X76635162Y-69214833D01*
X76510087Y-68912127D01*
X76685480Y-68737039D01*
X76707019Y-68685167D01*
X83964838Y-68685167D01*
X84106883Y-69028943D01*
X84369673Y-69292192D01*
X84713201Y-69434838D01*
X85085167Y-69435162D01*
X85173000Y-69398870D01*
X85173000Y-72800000D01*
X85183006Y-72849410D01*
X85211447Y-72891035D01*
X85253841Y-72918315D01*
X85300000Y-72927000D01*
X85665150Y-72927000D01*
X85664838Y-73285167D01*
X85806883Y-73628943D01*
X86069673Y-73892192D01*
X86413201Y-74034838D01*
X86785167Y-74035162D01*
X87128943Y-73893117D01*
X87392192Y-73630327D01*
X87534838Y-73286799D01*
X87535151Y-72927000D01*
X98100000Y-72927000D01*
X98149410Y-72916994D01*
X98191035Y-72888553D01*
X98218315Y-72846159D01*
X98227000Y-72800000D01*
X98227000Y-70385167D01*
X108364838Y-70385167D01*
X108506883Y-70728943D01*
X108769673Y-70992192D01*
X109113201Y-71134838D01*
X109485167Y-71135162D01*
X109828943Y-70993117D01*
X110092192Y-70730327D01*
X110234838Y-70386799D01*
X110235162Y-70014833D01*
X110093117Y-69671057D01*
X109830327Y-69407808D01*
X109486799Y-69265162D01*
X109114833Y-69264838D01*
X108771057Y-69406883D01*
X108507808Y-69669673D01*
X108365162Y-70013201D01*
X108364838Y-70385167D01*
X98227000Y-70385167D01*
X98227000Y-65123795D01*
X105564716Y-65123795D01*
X105813106Y-65724943D01*
X106272637Y-66185278D01*
X106873352Y-66434716D01*
X107523795Y-66435284D01*
X108124943Y-66186894D01*
X108585278Y-65727363D01*
X108834716Y-65126648D01*
X108835284Y-64476205D01*
X108586894Y-63875057D01*
X108127363Y-63414722D01*
X107526648Y-63165284D01*
X106876205Y-63164716D01*
X106275057Y-63413106D01*
X105814722Y-63872637D01*
X105565284Y-64473352D01*
X105564716Y-65123795D01*
X98227000Y-65123795D01*
X98227000Y-62739124D01*
X98522637Y-63035278D01*
X99123352Y-63284716D01*
X99773795Y-63285284D01*
X100374943Y-63036894D01*
X100835278Y-62577363D01*
X101084716Y-61976648D01*
X101085284Y-61326205D01*
X100836894Y-60725057D01*
X100377363Y-60264722D01*
X99776648Y-60015284D01*
X99126205Y-60014716D01*
X98525057Y-60263106D01*
X98227000Y-60560642D01*
X98227000Y-58285167D01*
X98964838Y-58285167D01*
X99106883Y-58628943D01*
X99369673Y-58892192D01*
X99713201Y-59034838D01*
X100085167Y-59035162D01*
X100428943Y-58893117D01*
X100692192Y-58630327D01*
X100834838Y-58286799D01*
X100835162Y-57914833D01*
X100693117Y-57571057D01*
X100430327Y-57307808D01*
X100086799Y-57165162D01*
X99714833Y-57164838D01*
X99371057Y-57306883D01*
X99107808Y-57569673D01*
X98965162Y-57913201D01*
X98964838Y-58285167D01*
X98227000Y-58285167D01*
X98227000Y-56500000D01*
X98216994Y-56450590D01*
X98188553Y-56408965D01*
X98146159Y-56381685D01*
X98100000Y-56373000D01*
X85300000Y-56373000D01*
X85250590Y-56383006D01*
X85208965Y-56411447D01*
X85181685Y-56453841D01*
X85173000Y-56500000D01*
X85173000Y-65720947D01*
X85055611Y-66003650D01*
X85055287Y-66375616D01*
X85173000Y-66660504D01*
X85173000Y-67600956D01*
X85086799Y-67565162D01*
X84714833Y-67564838D01*
X84371057Y-67706883D01*
X84107808Y-67969673D01*
X83965162Y-68313201D01*
X83964838Y-68685167D01*
X76707019Y-68685167D01*
X76811294Y-68434046D01*
X76813201Y-68434838D01*
X77185167Y-68435162D01*
X77528943Y-68293117D01*
X77792192Y-68030327D01*
X77934838Y-67686799D01*
X77935162Y-67314833D01*
X77793117Y-66971057D01*
X77530327Y-66707808D01*
X77186799Y-66565162D01*
X76814833Y-66564838D01*
X76471057Y-66706883D01*
X76207808Y-66969673D01*
X76081994Y-67272666D01*
X76080087Y-67271874D01*
X75708121Y-67271550D01*
X75364345Y-67413595D01*
X75101096Y-67676385D01*
X74958450Y-68019913D01*
X74958126Y-68391879D01*
X75083201Y-68694585D01*
X74907808Y-68869673D01*
X74765162Y-69213201D01*
X74764838Y-69585167D01*
X50685000Y-69585167D01*
X50685000Y-67485167D01*
X67764838Y-67485167D01*
X67906883Y-67828943D01*
X68169673Y-68092192D01*
X68513201Y-68234838D01*
X68885167Y-68235162D01*
X69117207Y-68139285D01*
X69369673Y-68392192D01*
X69713201Y-68534838D01*
X70085167Y-68535162D01*
X70206164Y-68485167D01*
X70959884Y-68485167D01*
X71101929Y-68828943D01*
X71364719Y-69092192D01*
X71708247Y-69234838D01*
X72080213Y-69235162D01*
X72423989Y-69093117D01*
X72687238Y-68830327D01*
X72829884Y-68486799D01*
X72830208Y-68114833D01*
X72688163Y-67771057D01*
X72425373Y-67507808D01*
X72081845Y-67365162D01*
X71709879Y-67364838D01*
X71366103Y-67506883D01*
X71102854Y-67769673D01*
X70960208Y-68113201D01*
X70959884Y-68485167D01*
X70206164Y-68485167D01*
X70428943Y-68393117D01*
X70692192Y-68130327D01*
X70834838Y-67786799D01*
X70835162Y-67414833D01*
X70693117Y-67071057D01*
X70430327Y-66807808D01*
X70086799Y-66665162D01*
X69714833Y-66664838D01*
X69482793Y-66760715D01*
X69230327Y-66507808D01*
X68886799Y-66365162D01*
X68514833Y-66364838D01*
X68171057Y-66506883D01*
X67907808Y-66769673D01*
X67765162Y-67113201D01*
X67764838Y-67485167D01*
X50685000Y-67485167D01*
X50685000Y-66385167D01*
X54464838Y-66385167D01*
X54606883Y-66728943D01*
X54869673Y-66992192D01*
X55213201Y-67134838D01*
X55585167Y-67135162D01*
X55928943Y-66993117D01*
X56192192Y-66730327D01*
X56334838Y-66386799D01*
X56335162Y-66014833D01*
X56240267Y-65785167D01*
X65064838Y-65785167D01*
X65206883Y-66128943D01*
X65469673Y-66392192D01*
X65813201Y-66534838D01*
X66185167Y-66535162D01*
X66528943Y-66393117D01*
X66792192Y-66130327D01*
X66934838Y-65786799D01*
X66935162Y-65414833D01*
X66793117Y-65071057D01*
X66530327Y-64807808D01*
X66186799Y-64665162D01*
X65814833Y-64664838D01*
X65471057Y-64806883D01*
X65207808Y-65069673D01*
X65065162Y-65413201D01*
X65064838Y-65785167D01*
X56240267Y-65785167D01*
X56193117Y-65671057D01*
X55930327Y-65407808D01*
X55586799Y-65265162D01*
X55214833Y-65264838D01*
X54871057Y-65406883D01*
X54607808Y-65669673D01*
X54465162Y-66013201D01*
X54464838Y-66385167D01*
X50685000Y-66385167D01*
X50685000Y-64385167D01*
X63764838Y-64385167D01*
X63906883Y-64728943D01*
X64169673Y-64992192D01*
X64513201Y-65134838D01*
X64885167Y-65135162D01*
X65228943Y-64993117D01*
X65492192Y-64730327D01*
X65634838Y-64386799D01*
X65635162Y-64014833D01*
X65493117Y-63671057D01*
X65257639Y-63435167D01*
X70064838Y-63435167D01*
X70206883Y-63778943D01*
X70469673Y-64042192D01*
X70813201Y-64184838D01*
X71185167Y-64185162D01*
X71203094Y-64177755D01*
X71306883Y-64428943D01*
X71569673Y-64692192D01*
X71913201Y-64834838D01*
X72285167Y-64835162D01*
X72628943Y-64693117D01*
X72814153Y-64508229D01*
X77664838Y-64508229D01*
X77806883Y-64852005D01*
X78069673Y-65115254D01*
X78413201Y-65257900D01*
X78785167Y-65258224D01*
X79128943Y-65116179D01*
X79392192Y-64853389D01*
X79454742Y-64702752D01*
X79506883Y-64828943D01*
X79769673Y-65092192D01*
X80113201Y-65234838D01*
X80485167Y-65235162D01*
X80828943Y-65093117D01*
X81092192Y-64830327D01*
X81234838Y-64486799D01*
X81235162Y-64114833D01*
X81093117Y-63771057D01*
X80830327Y-63507808D01*
X80486799Y-63365162D01*
X80114833Y-63364838D01*
X79771057Y-63506883D01*
X79507808Y-63769673D01*
X79445258Y-63920310D01*
X79393117Y-63794119D01*
X79130327Y-63530870D01*
X78786799Y-63388224D01*
X78414833Y-63387900D01*
X78071057Y-63529945D01*
X77807808Y-63792735D01*
X77665162Y-64136263D01*
X77664838Y-64508229D01*
X72814153Y-64508229D01*
X72892192Y-64430327D01*
X73034838Y-64086799D01*
X73035162Y-63714833D01*
X72893117Y-63371057D01*
X72630327Y-63107808D01*
X72286799Y-62965162D01*
X71914833Y-62964838D01*
X71896906Y-62972245D01*
X71793117Y-62721057D01*
X71530327Y-62457808D01*
X71186799Y-62315162D01*
X70814833Y-62314838D01*
X70471057Y-62456883D01*
X70207808Y-62719673D01*
X70065162Y-63063201D01*
X70064838Y-63435167D01*
X65257639Y-63435167D01*
X65230327Y-63407808D01*
X64886799Y-63265162D01*
X64514833Y-63264838D01*
X64171057Y-63406883D01*
X63907808Y-63669673D01*
X63765162Y-64013201D01*
X63764838Y-64385167D01*
X50685000Y-64385167D01*
X50685000Y-63385167D01*
X62064838Y-63385167D01*
X62206883Y-63728943D01*
X62469673Y-63992192D01*
X62813201Y-64134838D01*
X63185167Y-64135162D01*
X63528943Y-63993117D01*
X63792192Y-63730327D01*
X63934838Y-63386799D01*
X63935162Y-63014833D01*
X63793117Y-62671057D01*
X63530327Y-62407808D01*
X63186799Y-62265162D01*
X62814833Y-62264838D01*
X62471057Y-62406883D01*
X62207808Y-62669673D01*
X62065162Y-63013201D01*
X62064838Y-63385167D01*
X50685000Y-63385167D01*
X50685000Y-60393109D01*
X58014657Y-60393109D01*
X58316218Y-61122943D01*
X58874120Y-61681819D01*
X59603427Y-61984654D01*
X60393109Y-61985343D01*
X61122943Y-61683782D01*
X61681819Y-61125880D01*
X61698724Y-61085167D01*
X64264838Y-61085167D01*
X64406883Y-61428943D01*
X64669673Y-61692192D01*
X65013201Y-61834838D01*
X65385167Y-61835162D01*
X65728943Y-61693117D01*
X65987343Y-61435167D01*
X80314838Y-61435167D01*
X80456883Y-61778943D01*
X80719673Y-62042192D01*
X81063201Y-62184838D01*
X81435167Y-62185162D01*
X81778943Y-62043117D01*
X82042192Y-61780327D01*
X82184838Y-61436799D01*
X82185162Y-61064833D01*
X82043117Y-60721057D01*
X81780327Y-60457808D01*
X81436799Y-60315162D01*
X81064833Y-60314838D01*
X80721057Y-60456883D01*
X80457808Y-60719673D01*
X80315162Y-61063201D01*
X80314838Y-61435167D01*
X65987343Y-61435167D01*
X65992192Y-61430327D01*
X66134838Y-61086799D01*
X66135162Y-60714833D01*
X65993117Y-60371057D01*
X65730327Y-60107808D01*
X65386799Y-59965162D01*
X65014833Y-59964838D01*
X64671057Y-60106883D01*
X64407808Y-60369673D01*
X64265162Y-60713201D01*
X64264838Y-61085167D01*
X61698724Y-61085167D01*
X61984654Y-60396573D01*
X61985343Y-59606891D01*
X61683782Y-58877057D01*
X61125880Y-58318181D01*
X60396573Y-58015346D01*
X59606891Y-58014657D01*
X58877057Y-58316218D01*
X58318181Y-58874120D01*
X58015346Y-59603427D01*
X58014657Y-60393109D01*
X50685000Y-60393109D01*
X50685000Y-57885167D01*
X62664838Y-57885167D01*
X62806883Y-58228943D01*
X63069673Y-58492192D01*
X63413201Y-58634838D01*
X63785167Y-58635162D01*
X64128943Y-58493117D01*
X64392192Y-58230327D01*
X64534838Y-57886799D01*
X64535162Y-57514833D01*
X64393117Y-57171057D01*
X64130327Y-56907808D01*
X63786799Y-56765162D01*
X63414833Y-56764838D01*
X63071057Y-56906883D01*
X62807808Y-57169673D01*
X62665162Y-57513201D01*
X62664838Y-57885167D01*
X50685000Y-57885167D01*
X50685000Y-48452296D01*
X55605000Y-48452296D01*
X55605000Y-50347704D01*
X55721845Y-50935123D01*
X56054591Y-51433113D01*
X56552581Y-51765859D01*
X57140000Y-51882704D01*
X57727419Y-51765859D01*
X58225409Y-51433113D01*
X58558155Y-50935123D01*
X58675000Y-50347704D01*
X58675000Y-48452296D01*
X59415000Y-48452296D01*
X59415000Y-50347704D01*
X59531845Y-50935123D01*
X59864591Y-51433113D01*
X60362581Y-51765859D01*
X60950000Y-51882704D01*
X61537419Y-51765859D01*
X62035409Y-51433113D01*
X62368155Y-50935123D01*
X62485000Y-50347704D01*
X62485000Y-48452296D01*
X63225000Y-48452296D01*
X63225000Y-50347704D01*
X63341845Y-50935123D01*
X63674591Y-51433113D01*
X64172581Y-51765859D01*
X64760000Y-51882704D01*
X65347419Y-51765859D01*
X65845409Y-51433113D01*
X66178155Y-50935123D01*
X66295000Y-50347704D01*
X66295000Y-48452296D01*
X67035000Y-48452296D01*
X67035000Y-50347704D01*
X67151845Y-50935123D01*
X67484591Y-51433113D01*
X67982581Y-51765859D01*
X68570000Y-51882704D01*
X69157419Y-51765859D01*
X69655409Y-51433113D01*
X69988155Y-50935123D01*
X70105000Y-50347704D01*
X70105000Y-48452296D01*
X70845000Y-48452296D01*
X70845000Y-50347704D01*
X70961845Y-50935123D01*
X71294591Y-51433113D01*
X71792581Y-51765859D01*
X72380000Y-51882704D01*
X72967419Y-51765859D01*
X73465409Y-51433113D01*
X73798155Y-50935123D01*
X73915000Y-50347704D01*
X73915000Y-48452296D01*
X74655000Y-48452296D01*
X74655000Y-50347704D01*
X74771845Y-50935123D01*
X75104591Y-51433113D01*
X75602581Y-51765859D01*
X76190000Y-51882704D01*
X76777419Y-51765859D01*
X77275409Y-51433113D01*
X77608155Y-50935123D01*
X77725000Y-50347704D01*
X77725000Y-48452296D01*
X78465000Y-48452296D01*
X78465000Y-50347704D01*
X78581845Y-50935123D01*
X78914591Y-51433113D01*
X79412581Y-51765859D01*
X80000000Y-51882704D01*
X80587419Y-51765859D01*
X81085409Y-51433113D01*
X81418155Y-50935123D01*
X81535000Y-50347704D01*
X81535000Y-48452296D01*
X81418155Y-47864877D01*
X81241170Y-47600000D01*
X82262560Y-47600000D01*
X82262560Y-51200000D01*
X82306838Y-51435317D01*
X82445910Y-51651441D01*
X82658110Y-51796431D01*
X82910000Y-51847440D01*
X84710000Y-51847440D01*
X84945317Y-51803162D01*
X85155678Y-51667798D01*
X92495000Y-51667798D01*
X92495000Y-54332202D01*
X92640009Y-55061214D01*
X93052962Y-55679240D01*
X93670988Y-56092193D01*
X94400000Y-56237202D01*
X95129012Y-56092193D01*
X95747038Y-55679240D01*
X96159991Y-55061214D01*
X96305000Y-54332202D01*
X96305000Y-51667798D01*
X100115000Y-51667798D01*
X100115000Y-54332202D01*
X100260009Y-55061214D01*
X100672962Y-55679240D01*
X101290988Y-56092193D01*
X102020000Y-56237202D01*
X102749012Y-56092193D01*
X103367038Y-55679240D01*
X103779991Y-55061214D01*
X103925000Y-54332202D01*
X103925000Y-51667798D01*
X103905109Y-51567798D01*
X107795000Y-51567798D01*
X107795000Y-54232202D01*
X107940009Y-54961214D01*
X108352962Y-55579240D01*
X108970988Y-55992193D01*
X109700000Y-56137202D01*
X110429012Y-55992193D01*
X111047038Y-55579240D01*
X111459991Y-54961214D01*
X111605000Y-54232202D01*
X111605000Y-51567798D01*
X115415000Y-51567798D01*
X115415000Y-54232202D01*
X115560009Y-54961214D01*
X115972962Y-55579240D01*
X116590988Y-55992193D01*
X117320000Y-56137202D01*
X118049012Y-55992193D01*
X118667038Y-55579240D01*
X119079991Y-54961214D01*
X119225000Y-54232202D01*
X119225000Y-51567798D01*
X119079991Y-50838786D01*
X118667038Y-50220760D01*
X118049012Y-49807807D01*
X117320000Y-49662798D01*
X116590988Y-49807807D01*
X115972962Y-50220760D01*
X115560009Y-50838786D01*
X115415000Y-51567798D01*
X111605000Y-51567798D01*
X111459991Y-50838786D01*
X111047038Y-50220760D01*
X110429012Y-49807807D01*
X109700000Y-49662798D01*
X108970988Y-49807807D01*
X108352962Y-50220760D01*
X107940009Y-50838786D01*
X107795000Y-51567798D01*
X103905109Y-51567798D01*
X103779991Y-50938786D01*
X103367038Y-50320760D01*
X102749012Y-49907807D01*
X102020000Y-49762798D01*
X101290988Y-49907807D01*
X100672962Y-50320760D01*
X100260009Y-50938786D01*
X100115000Y-51667798D01*
X96305000Y-51667798D01*
X96159991Y-50938786D01*
X95747038Y-50320760D01*
X95129012Y-49907807D01*
X94400000Y-49762798D01*
X93670988Y-49907807D01*
X93052962Y-50320760D01*
X92640009Y-50938786D01*
X92495000Y-51667798D01*
X85155678Y-51667798D01*
X85161441Y-51664090D01*
X85306431Y-51451890D01*
X85357440Y-51200000D01*
X85357440Y-47600000D01*
X85313162Y-47364683D01*
X85174090Y-47148559D01*
X84961890Y-47003569D01*
X84710000Y-46952560D01*
X82910000Y-46952560D01*
X82674683Y-46996838D01*
X82458559Y-47135910D01*
X82313569Y-47348110D01*
X82262560Y-47600000D01*
X81241170Y-47600000D01*
X81085409Y-47366887D01*
X80587419Y-47034141D01*
X80000000Y-46917296D01*
X79412581Y-47034141D01*
X78914591Y-47366887D01*
X78581845Y-47864877D01*
X78465000Y-48452296D01*
X77725000Y-48452296D01*
X77608155Y-47864877D01*
X77275409Y-47366887D01*
X76777419Y-47034141D01*
X76190000Y-46917296D01*
X75602581Y-47034141D01*
X75104591Y-47366887D01*
X74771845Y-47864877D01*
X74655000Y-48452296D01*
X73915000Y-48452296D01*
X73798155Y-47864877D01*
X73465409Y-47366887D01*
X72967419Y-47034141D01*
X72380000Y-46917296D01*
X71792581Y-47034141D01*
X71294591Y-47366887D01*
X70961845Y-47864877D01*
X70845000Y-48452296D01*
X70105000Y-48452296D01*
X69988155Y-47864877D01*
X69655409Y-47366887D01*
X69157419Y-47034141D01*
X68570000Y-46917296D01*
X67982581Y-47034141D01*
X67484591Y-47366887D01*
X67151845Y-47864877D01*
X67035000Y-48452296D01*
X66295000Y-48452296D01*
X66178155Y-47864877D01*
X65845409Y-47366887D01*
X65347419Y-47034141D01*
X64760000Y-46917296D01*
X64172581Y-47034141D01*
X63674591Y-47366887D01*
X63341845Y-47864877D01*
X63225000Y-48452296D01*
X62485000Y-48452296D01*
X62368155Y-47864877D01*
X62035409Y-47366887D01*
X61537419Y-47034141D01*
X60950000Y-46917296D01*
X60362581Y-47034141D01*
X59864591Y-47366887D01*
X59531845Y-47864877D01*
X59415000Y-48452296D01*
X58675000Y-48452296D01*
X58558155Y-47864877D01*
X58225409Y-47366887D01*
X57727419Y-47034141D01*
X57140000Y-46917296D01*
X56552581Y-47034141D01*
X56054591Y-47366887D01*
X55721845Y-47864877D01*
X55605000Y-48452296D01*
X50685000Y-48452296D01*
X50685000Y-40685000D01*
X121673000Y-40685000D01*
X121673000Y-63823442D01*
M02*
