M48
INCH,TZ
T1C0.016
T2C0.031
T3C0.032
T4C0.047
T5C0.047
%
G90
G05
T1
X21811Y-26063
X24803Y-24882
X25039Y-22717
X25472Y-25276
X25669Y-23976
X25984Y-25827
X27047Y-26496
X27520Y-26614
X27953Y-24902
X28305Y-26890
X28386Y-25157
X28740Y-21693
X29402Y-29701
X29803Y-27323
X29803Y-28898
X29879Y-26853
X30039Y-28543
X30079Y-27835
X30315Y-26575
X30945Y-25324
X31614Y-25315
X31850Y-28976
X31988Y-24114
X32008Y-21732
X32244Y-21732
X32480Y-21732
X32795Y-27598
X32838Y-28232
X33425Y-26969
X33855Y-26059
X34094Y-28780
X34252Y-24094
X34843Y-29724
X34921Y-27402
X34921Y-27717
X35272Y-28232
X35354Y-26339
X35472Y-24921
X35866Y-26339
X36181Y-23031
X39331Y-22874
X43031Y-27638
X48031Y-25472
X48504Y-25866
T2
X37953Y-26181
X39154Y-24272
X42205Y-25512
T3
X29988Y-29969
X30476Y-30642
X34055Y-31063
X35642Y-31063
X37091Y-31075
X49232Y-16535
X49232Y-17520
X49232Y-18504
X49232Y-19488
X49232Y-20472
X49232Y-21457
X49232Y-22441
X49232Y-23425
X50217Y-16535
X50217Y-17520
X50217Y-18504
X50217Y-19488
X50217Y-20472
X50217Y-21457
X50217Y-22441
X50217Y-23425
X51201Y-16535
X51201Y-17520
X51201Y-18504
X51201Y-19488
X51201Y-20472
X51201Y-21457
X51201Y-22441
X51201Y-23425
X52185Y-17520
X52185Y-18504
X52185Y-19488
X52185Y-20472
X52185Y-21457
X52185Y-22441
X52185Y-23425
X53169Y-17520
X53169Y-18504
X53169Y-22441
X53169Y-23425
X54154Y-17520
X54154Y-18504
X54154Y-19488
X54154Y-20472
X54154Y-21457
X54154Y-22441
X54154Y-23425
X55512Y-17555
X55512Y-18539
X55512Y-19524
X55512Y-22476
X55512Y-23461
X56496Y-17555
X56496Y-18539
X56496Y-22476
X56496Y-23461
X57480Y-16571
X57480Y-17555
X57480Y-18539
X57480Y-19524
X57480Y-20508
X57480Y-21492
X57480Y-22476
X57480Y-23461
X58465Y-16571
X58465Y-17555
X58465Y-18539
X58465Y-19524
X58465Y-20508
X58465Y-21492
X58465Y-22476
X58465Y-23461
X59449Y-16571
X59449Y-17555
X59449Y-18539
X59449Y-19524
X59449Y-20508
X59449Y-21492
X59449Y-22476
X59449Y-23461
X60433Y-16571
X60433Y-17555
X60433Y-18539
X60433Y-19524
X60433Y-20508
X60433Y-21492
X60433Y-22476
X60433Y-23461
T4
X37165Y-20866
X40165Y-20866
X43189Y-20827
X46189Y-20827
X53209Y-20748
X56209Y-20748
T5
X22496Y-19449
X23996Y-19449
X25496Y-19449
X26996Y-19449
X28496Y-19449
X29996Y-19449
X31496Y-19449
X32996Y-19449
T0
M30
