G04 #@! TF.FileFunction,Legend,Top*
%FSLAX46Y46*%
G04 Gerber Fmt 4.6, Leading zero omitted, Abs format (unit mm)*
G04 Created by KiCad (PCBNEW 4.0.6) date Thu Jun  1 11:47:27 2017*
%MOMM*%
%LPD*%
G01*
G04 APERTURE LIST*
%ADD10C,0.100000*%
%ADD11C,0.300000*%
%ADD12C,0.150000*%
%ADD13C,0.203200*%
%ADD14C,0.120000*%
%ADD15C,0.406400*%
%ADD16C,0.101600*%
%ADD17C,0.152400*%
G04 APERTURE END LIST*
D10*
D11*
X123692859Y-72628571D02*
X122978573Y-72628571D01*
X122978573Y-71128571D01*
X124192859Y-72628571D02*
X124192859Y-71628571D01*
X124192859Y-71128571D02*
X124121430Y-71200000D01*
X124192859Y-71271429D01*
X124264287Y-71200000D01*
X124192859Y-71128571D01*
X124192859Y-71271429D01*
X124907145Y-72628571D02*
X124907145Y-71128571D01*
X125835717Y-72628571D02*
X125692859Y-72557143D01*
X125621431Y-72485714D01*
X125550002Y-72342857D01*
X125550002Y-71914286D01*
X125621431Y-71771429D01*
X125692859Y-71700000D01*
X125835717Y-71628571D01*
X126050002Y-71628571D01*
X126192859Y-71700000D01*
X126264288Y-71771429D01*
X126335717Y-71914286D01*
X126335717Y-72342857D01*
X126264288Y-72485714D01*
X126192859Y-72557143D01*
X126050002Y-72628571D01*
X125835717Y-72628571D01*
X126978574Y-71628571D02*
X126978574Y-72628571D01*
X126978574Y-71771429D02*
X127050002Y-71700000D01*
X127192860Y-71628571D01*
X127407145Y-71628571D01*
X127550002Y-71700000D01*
X127621431Y-71842857D01*
X127621431Y-72628571D01*
X129978574Y-71842857D02*
X130192860Y-71914286D01*
X130264288Y-71985714D01*
X130335717Y-72128571D01*
X130335717Y-72342857D01*
X130264288Y-72485714D01*
X130192860Y-72557143D01*
X130050002Y-72628571D01*
X129478574Y-72628571D01*
X129478574Y-71128571D01*
X129978574Y-71128571D01*
X130121431Y-71200000D01*
X130192860Y-71271429D01*
X130264288Y-71414286D01*
X130264288Y-71557143D01*
X130192860Y-71700000D01*
X130121431Y-71771429D01*
X129978574Y-71842857D01*
X129478574Y-71842857D01*
X131621431Y-72628571D02*
X131621431Y-71842857D01*
X131550002Y-71700000D01*
X131407145Y-71628571D01*
X131121431Y-71628571D01*
X130978574Y-71700000D01*
X131621431Y-72557143D02*
X131478574Y-72628571D01*
X131121431Y-72628571D01*
X130978574Y-72557143D01*
X130907145Y-72414286D01*
X130907145Y-72271429D01*
X130978574Y-72128571D01*
X131121431Y-72057143D01*
X131478574Y-72057143D01*
X131621431Y-71985714D01*
X132121431Y-71628571D02*
X132692860Y-71628571D01*
X132335717Y-71128571D02*
X132335717Y-72414286D01*
X132407145Y-72557143D01*
X132550003Y-72628571D01*
X132692860Y-72628571D01*
X132978574Y-71628571D02*
X133550003Y-71628571D01*
X133192860Y-71128571D02*
X133192860Y-72414286D01*
X133264288Y-72557143D01*
X133407146Y-72628571D01*
X133550003Y-72628571D01*
X134621431Y-72557143D02*
X134478574Y-72628571D01*
X134192860Y-72628571D01*
X134050003Y-72557143D01*
X133978574Y-72414286D01*
X133978574Y-71842857D01*
X134050003Y-71700000D01*
X134192860Y-71628571D01*
X134478574Y-71628571D01*
X134621431Y-71700000D01*
X134692860Y-71842857D01*
X134692860Y-71985714D01*
X133978574Y-72128571D01*
X135335717Y-72628571D02*
X135335717Y-71628571D01*
X135335717Y-71914286D02*
X135407145Y-71771429D01*
X135478574Y-71700000D01*
X135621431Y-71628571D01*
X135764288Y-71628571D01*
X136121431Y-71628571D02*
X136478574Y-72628571D01*
X136835716Y-71628571D02*
X136478574Y-72628571D01*
X136335716Y-72985714D01*
X136264288Y-73057143D01*
X136121431Y-73128571D01*
X139407145Y-72485714D02*
X139335716Y-72557143D01*
X139121430Y-72628571D01*
X138978573Y-72628571D01*
X138764288Y-72557143D01*
X138621430Y-72414286D01*
X138550002Y-72271429D01*
X138478573Y-71985714D01*
X138478573Y-71771429D01*
X138550002Y-71485714D01*
X138621430Y-71342857D01*
X138764288Y-71200000D01*
X138978573Y-71128571D01*
X139121430Y-71128571D01*
X139335716Y-71200000D01*
X139407145Y-71271429D01*
X140050002Y-72628571D02*
X140050002Y-71128571D01*
X140692859Y-72628571D02*
X140692859Y-71842857D01*
X140621430Y-71700000D01*
X140478573Y-71628571D01*
X140264288Y-71628571D01*
X140121430Y-71700000D01*
X140050002Y-71771429D01*
X142050002Y-72628571D02*
X142050002Y-71842857D01*
X141978573Y-71700000D01*
X141835716Y-71628571D01*
X141550002Y-71628571D01*
X141407145Y-71700000D01*
X142050002Y-72557143D02*
X141907145Y-72628571D01*
X141550002Y-72628571D01*
X141407145Y-72557143D01*
X141335716Y-72414286D01*
X141335716Y-72271429D01*
X141407145Y-72128571D01*
X141550002Y-72057143D01*
X141907145Y-72057143D01*
X142050002Y-71985714D01*
X142764288Y-72628571D02*
X142764288Y-71628571D01*
X142764288Y-71914286D02*
X142835716Y-71771429D01*
X142907145Y-71700000D01*
X143050002Y-71628571D01*
X143192859Y-71628571D01*
X144335716Y-71628571D02*
X144335716Y-72842857D01*
X144264287Y-72985714D01*
X144192859Y-73057143D01*
X144050002Y-73128571D01*
X143835716Y-73128571D01*
X143692859Y-73057143D01*
X144335716Y-72557143D02*
X144192859Y-72628571D01*
X143907145Y-72628571D01*
X143764287Y-72557143D01*
X143692859Y-72485714D01*
X143621430Y-72342857D01*
X143621430Y-71914286D01*
X143692859Y-71771429D01*
X143764287Y-71700000D01*
X143907145Y-71628571D01*
X144192859Y-71628571D01*
X144335716Y-71700000D01*
X145621430Y-72557143D02*
X145478573Y-72628571D01*
X145192859Y-72628571D01*
X145050002Y-72557143D01*
X144978573Y-72414286D01*
X144978573Y-71842857D01*
X145050002Y-71700000D01*
X145192859Y-71628571D01*
X145478573Y-71628571D01*
X145621430Y-71700000D01*
X145692859Y-71842857D01*
X145692859Y-71985714D01*
X144978573Y-72128571D01*
X146335716Y-72628571D02*
X146335716Y-71628571D01*
X146335716Y-71914286D02*
X146407144Y-71771429D01*
X146478573Y-71700000D01*
X146621430Y-71628571D01*
X146764287Y-71628571D01*
X148835715Y-73200000D02*
X148764287Y-73128571D01*
X148621430Y-72914286D01*
X148550001Y-72771429D01*
X148478572Y-72557143D01*
X148407144Y-72200000D01*
X148407144Y-71914286D01*
X148478572Y-71557143D01*
X148550001Y-71342857D01*
X148621430Y-71200000D01*
X148764287Y-70985714D01*
X148835715Y-70914286D01*
X149264287Y-71128571D02*
X150192858Y-71128571D01*
X149692858Y-71700000D01*
X149907144Y-71700000D01*
X150050001Y-71771429D01*
X150121430Y-71842857D01*
X150192858Y-71985714D01*
X150192858Y-72342857D01*
X150121430Y-72485714D01*
X150050001Y-72557143D01*
X149907144Y-72628571D01*
X149478572Y-72628571D01*
X149335715Y-72557143D01*
X149264287Y-72485714D01*
X152192858Y-72628571D02*
X152050000Y-72557143D01*
X151978572Y-72485714D01*
X151907143Y-72342857D01*
X151907143Y-71914286D01*
X151978572Y-71771429D01*
X152050000Y-71700000D01*
X152192858Y-71628571D01*
X152407143Y-71628571D01*
X152550000Y-71700000D01*
X152621429Y-71771429D01*
X152692858Y-71914286D01*
X152692858Y-72342857D01*
X152621429Y-72485714D01*
X152550000Y-72557143D01*
X152407143Y-72628571D01*
X152192858Y-72628571D01*
X153335715Y-72628571D02*
X153335715Y-71628571D01*
X153335715Y-71914286D02*
X153407143Y-71771429D01*
X153478572Y-71700000D01*
X153621429Y-71628571D01*
X153764286Y-71628571D01*
X156050000Y-71628571D02*
X156050000Y-72628571D01*
X155692857Y-71057143D02*
X155335714Y-72128571D01*
X156264286Y-72128571D01*
X158835714Y-72485714D02*
X158764285Y-72557143D01*
X158549999Y-72628571D01*
X158407142Y-72628571D01*
X158192857Y-72557143D01*
X158049999Y-72414286D01*
X157978571Y-72271429D01*
X157907142Y-71985714D01*
X157907142Y-71771429D01*
X157978571Y-71485714D01*
X158049999Y-71342857D01*
X158192857Y-71200000D01*
X158407142Y-71128571D01*
X158549999Y-71128571D01*
X158764285Y-71200000D01*
X158835714Y-71271429D01*
X160049999Y-72557143D02*
X159907142Y-72628571D01*
X159621428Y-72628571D01*
X159478571Y-72557143D01*
X159407142Y-72414286D01*
X159407142Y-71842857D01*
X159478571Y-71700000D01*
X159621428Y-71628571D01*
X159907142Y-71628571D01*
X160049999Y-71700000D01*
X160121428Y-71842857D01*
X160121428Y-71985714D01*
X159407142Y-72128571D01*
X160978571Y-72628571D02*
X160835713Y-72557143D01*
X160764285Y-72414286D01*
X160764285Y-71128571D01*
X161764285Y-72628571D02*
X161621427Y-72557143D01*
X161549999Y-72414286D01*
X161549999Y-71128571D01*
X162192856Y-73200000D02*
X162264284Y-73128571D01*
X162407141Y-72914286D01*
X162478570Y-72771429D01*
X162549999Y-72557143D01*
X162621427Y-72200000D01*
X162621427Y-71914286D01*
X162549999Y-71557143D01*
X162478570Y-71342857D01*
X162407141Y-71200000D01*
X162264284Y-70985714D01*
X162192856Y-70914286D01*
X127942857Y-75107143D02*
X128157143Y-75178571D01*
X128514286Y-75178571D01*
X128657143Y-75107143D01*
X128728572Y-75035714D01*
X128800000Y-74892857D01*
X128800000Y-74750000D01*
X128728572Y-74607143D01*
X128657143Y-74535714D01*
X128514286Y-74464286D01*
X128228572Y-74392857D01*
X128085714Y-74321429D01*
X128014286Y-74250000D01*
X127942857Y-74107143D01*
X127942857Y-73964286D01*
X128014286Y-73821429D01*
X128085714Y-73750000D01*
X128228572Y-73678571D01*
X128585714Y-73678571D01*
X128800000Y-73750000D01*
X129442857Y-75178571D02*
X129442857Y-73678571D01*
X129942857Y-74750000D01*
X130442857Y-73678571D01*
X130442857Y-75178571D01*
X132300000Y-74392857D02*
X132800000Y-74392857D01*
X133014286Y-75178571D02*
X132300000Y-75178571D01*
X132300000Y-73678571D01*
X133014286Y-73678571D01*
X133871429Y-75178571D02*
X133728571Y-75107143D01*
X133657143Y-74964286D01*
X133657143Y-73678571D01*
X135014285Y-75107143D02*
X134871428Y-75178571D01*
X134585714Y-75178571D01*
X134442857Y-75107143D01*
X134371428Y-74964286D01*
X134371428Y-74392857D01*
X134442857Y-74250000D01*
X134585714Y-74178571D01*
X134871428Y-74178571D01*
X135014285Y-74250000D01*
X135085714Y-74392857D01*
X135085714Y-74535714D01*
X134371428Y-74678571D01*
X136371428Y-75107143D02*
X136228571Y-75178571D01*
X135942857Y-75178571D01*
X135799999Y-75107143D01*
X135728571Y-75035714D01*
X135657142Y-74892857D01*
X135657142Y-74464286D01*
X135728571Y-74321429D01*
X135799999Y-74250000D01*
X135942857Y-74178571D01*
X136228571Y-74178571D01*
X136371428Y-74250000D01*
X136799999Y-74178571D02*
X137371428Y-74178571D01*
X137014285Y-73678571D02*
X137014285Y-74964286D01*
X137085713Y-75107143D01*
X137228571Y-75178571D01*
X137371428Y-75178571D01*
X137871428Y-75178571D02*
X137871428Y-74178571D01*
X137871428Y-74464286D02*
X137942856Y-74321429D01*
X138014285Y-74250000D01*
X138157142Y-74178571D01*
X138299999Y-74178571D01*
X139014285Y-75178571D02*
X138871427Y-75107143D01*
X138799999Y-75035714D01*
X138728570Y-74892857D01*
X138728570Y-74464286D01*
X138799999Y-74321429D01*
X138871427Y-74250000D01*
X139014285Y-74178571D01*
X139228570Y-74178571D01*
X139371427Y-74250000D01*
X139442856Y-74321429D01*
X139514285Y-74464286D01*
X139514285Y-74892857D01*
X139442856Y-75035714D01*
X139371427Y-75107143D01*
X139228570Y-75178571D01*
X139014285Y-75178571D01*
X140157142Y-74178571D02*
X140157142Y-75178571D01*
X140157142Y-74321429D02*
X140228570Y-74250000D01*
X140371428Y-74178571D01*
X140585713Y-74178571D01*
X140728570Y-74250000D01*
X140799999Y-74392857D01*
X140799999Y-75178571D01*
X141514285Y-75178571D02*
X141514285Y-74178571D01*
X141514285Y-73678571D02*
X141442856Y-73750000D01*
X141514285Y-73821429D01*
X141585713Y-73750000D01*
X141514285Y-73678571D01*
X141514285Y-73821429D01*
X142871428Y-75107143D02*
X142728571Y-75178571D01*
X142442857Y-75178571D01*
X142299999Y-75107143D01*
X142228571Y-75035714D01*
X142157142Y-74892857D01*
X142157142Y-74464286D01*
X142228571Y-74321429D01*
X142299999Y-74250000D01*
X142442857Y-74178571D01*
X142728571Y-74178571D01*
X142871428Y-74250000D01*
X145514285Y-75035714D02*
X145442856Y-75107143D01*
X145228570Y-75178571D01*
X145085713Y-75178571D01*
X144871428Y-75107143D01*
X144728570Y-74964286D01*
X144657142Y-74821429D01*
X144585713Y-74535714D01*
X144585713Y-74321429D01*
X144657142Y-74035714D01*
X144728570Y-73892857D01*
X144871428Y-73750000D01*
X145085713Y-73678571D01*
X145228570Y-73678571D01*
X145442856Y-73750000D01*
X145514285Y-73821429D01*
X146371428Y-75178571D02*
X146228570Y-75107143D01*
X146157142Y-75035714D01*
X146085713Y-74892857D01*
X146085713Y-74464286D01*
X146157142Y-74321429D01*
X146228570Y-74250000D01*
X146371428Y-74178571D01*
X146585713Y-74178571D01*
X146728570Y-74250000D01*
X146799999Y-74321429D01*
X146871428Y-74464286D01*
X146871428Y-74892857D01*
X146799999Y-75035714D01*
X146728570Y-75107143D01*
X146585713Y-75178571D01*
X146371428Y-75178571D01*
X147514285Y-75178571D02*
X147514285Y-74178571D01*
X147514285Y-74321429D02*
X147585713Y-74250000D01*
X147728571Y-74178571D01*
X147942856Y-74178571D01*
X148085713Y-74250000D01*
X148157142Y-74392857D01*
X148157142Y-75178571D01*
X148157142Y-74392857D02*
X148228571Y-74250000D01*
X148371428Y-74178571D01*
X148585713Y-74178571D01*
X148728571Y-74250000D01*
X148799999Y-74392857D01*
X148799999Y-75178571D01*
X149514285Y-74178571D02*
X149514285Y-75678571D01*
X149514285Y-74250000D02*
X149657142Y-74178571D01*
X149942856Y-74178571D01*
X150085713Y-74250000D01*
X150157142Y-74321429D01*
X150228571Y-74464286D01*
X150228571Y-74892857D01*
X150157142Y-75035714D01*
X150085713Y-75107143D01*
X149942856Y-75178571D01*
X149657142Y-75178571D01*
X149514285Y-75107143D01*
X151085714Y-75178571D02*
X150942856Y-75107143D01*
X150871428Y-75035714D01*
X150799999Y-74892857D01*
X150799999Y-74464286D01*
X150871428Y-74321429D01*
X150942856Y-74250000D01*
X151085714Y-74178571D01*
X151299999Y-74178571D01*
X151442856Y-74250000D01*
X151514285Y-74321429D01*
X151585714Y-74464286D01*
X151585714Y-74892857D01*
X151514285Y-75035714D01*
X151442856Y-75107143D01*
X151299999Y-75178571D01*
X151085714Y-75178571D01*
X152228571Y-74178571D02*
X152228571Y-75178571D01*
X152228571Y-74321429D02*
X152299999Y-74250000D01*
X152442857Y-74178571D01*
X152657142Y-74178571D01*
X152799999Y-74250000D01*
X152871428Y-74392857D01*
X152871428Y-75178571D01*
X154157142Y-75107143D02*
X154014285Y-75178571D01*
X153728571Y-75178571D01*
X153585714Y-75107143D01*
X153514285Y-74964286D01*
X153514285Y-74392857D01*
X153585714Y-74250000D01*
X153728571Y-74178571D01*
X154014285Y-74178571D01*
X154157142Y-74250000D01*
X154228571Y-74392857D01*
X154228571Y-74535714D01*
X153514285Y-74678571D01*
X154871428Y-74178571D02*
X154871428Y-75178571D01*
X154871428Y-74321429D02*
X154942856Y-74250000D01*
X155085714Y-74178571D01*
X155299999Y-74178571D01*
X155442856Y-74250000D01*
X155514285Y-74392857D01*
X155514285Y-75178571D01*
X156014285Y-74178571D02*
X156585714Y-74178571D01*
X156228571Y-73678571D02*
X156228571Y-74964286D01*
X156299999Y-75107143D01*
X156442857Y-75178571D01*
X156585714Y-75178571D01*
X157014285Y-75107143D02*
X157157142Y-75178571D01*
X157442857Y-75178571D01*
X157585714Y-75107143D01*
X157657142Y-74964286D01*
X157657142Y-74892857D01*
X157585714Y-74750000D01*
X157442857Y-74678571D01*
X157228571Y-74678571D01*
X157085714Y-74607143D01*
X157014285Y-74464286D01*
X157014285Y-74392857D01*
X157085714Y-74250000D01*
X157228571Y-74178571D01*
X157442857Y-74178571D01*
X157585714Y-74250000D01*
X120621429Y-76585714D02*
X120478571Y-76514286D01*
X120192857Y-76514286D01*
X120050000Y-76585714D01*
X119907143Y-76728571D01*
X119835714Y-76871429D01*
X119835714Y-77157143D01*
X119907143Y-77300000D01*
X120050000Y-77442857D01*
X120192857Y-77514286D01*
X120478571Y-77514286D01*
X120621429Y-77442857D01*
X120335714Y-76014286D02*
X119978571Y-76085714D01*
X119621429Y-76300000D01*
X119407143Y-76657143D01*
X119335714Y-77014286D01*
X119407143Y-77371429D01*
X119621429Y-77728571D01*
X119978571Y-77942857D01*
X120335714Y-78014286D01*
X120692857Y-77942857D01*
X121050000Y-77728571D01*
X121264286Y-77371429D01*
X121335714Y-77014286D01*
X121264286Y-76657143D01*
X121050000Y-76300000D01*
X120692857Y-76085714D01*
X120335714Y-76014286D01*
X121907143Y-77657143D02*
X122121429Y-77728571D01*
X122478572Y-77728571D01*
X122621429Y-77657143D01*
X122692858Y-77585714D01*
X122764286Y-77442857D01*
X122764286Y-77300000D01*
X122692858Y-77157143D01*
X122621429Y-77085714D01*
X122478572Y-77014286D01*
X122192858Y-76942857D01*
X122050000Y-76871429D01*
X121978572Y-76800000D01*
X121907143Y-76657143D01*
X121907143Y-76514286D01*
X121978572Y-76371429D01*
X122050000Y-76300000D01*
X122192858Y-76228571D01*
X122550000Y-76228571D01*
X122764286Y-76300000D01*
X123407143Y-77728571D02*
X123407143Y-76728571D01*
X123407143Y-76228571D02*
X123335714Y-76300000D01*
X123407143Y-76371429D01*
X123478571Y-76300000D01*
X123407143Y-76228571D01*
X123407143Y-76371429D01*
X124121429Y-77728571D02*
X124121429Y-76728571D01*
X124121429Y-76871429D02*
X124192857Y-76800000D01*
X124335715Y-76728571D01*
X124550000Y-76728571D01*
X124692857Y-76800000D01*
X124764286Y-76942857D01*
X124764286Y-77728571D01*
X124764286Y-76942857D02*
X124835715Y-76800000D01*
X124978572Y-76728571D01*
X125192857Y-76728571D01*
X125335715Y-76800000D01*
X125407143Y-76942857D01*
X125407143Y-77728571D01*
X126335715Y-77728571D02*
X126192857Y-77657143D01*
X126121429Y-77585714D01*
X126050000Y-77442857D01*
X126050000Y-77014286D01*
X126121429Y-76871429D01*
X126192857Y-76800000D01*
X126335715Y-76728571D01*
X126550000Y-76728571D01*
X126692857Y-76800000D01*
X126764286Y-76871429D01*
X126835715Y-77014286D01*
X126835715Y-77442857D01*
X126764286Y-77585714D01*
X126692857Y-77657143D01*
X126550000Y-77728571D01*
X126335715Y-77728571D01*
X127478572Y-76728571D02*
X127478572Y-77728571D01*
X127478572Y-76871429D02*
X127550000Y-76800000D01*
X127692858Y-76728571D01*
X127907143Y-76728571D01*
X128050000Y-76800000D01*
X128121429Y-76942857D01*
X128121429Y-77728571D01*
X129978572Y-77728571D02*
X129978572Y-76228571D01*
X130478572Y-77300000D01*
X130978572Y-76228571D01*
X130978572Y-77728571D01*
X132264286Y-77657143D02*
X132121429Y-77728571D01*
X131835715Y-77728571D01*
X131692858Y-77657143D01*
X131621429Y-77514286D01*
X131621429Y-76942857D01*
X131692858Y-76800000D01*
X131835715Y-76728571D01*
X132121429Y-76728571D01*
X132264286Y-76800000D01*
X132335715Y-76942857D01*
X132335715Y-77085714D01*
X131621429Y-77228571D01*
X133621429Y-77728571D02*
X133621429Y-76942857D01*
X133550000Y-76800000D01*
X133407143Y-76728571D01*
X133121429Y-76728571D01*
X132978572Y-76800000D01*
X133621429Y-77657143D02*
X133478572Y-77728571D01*
X133121429Y-77728571D01*
X132978572Y-77657143D01*
X132907143Y-77514286D01*
X132907143Y-77371429D01*
X132978572Y-77228571D01*
X133121429Y-77157143D01*
X133478572Y-77157143D01*
X133621429Y-77085714D01*
X134978572Y-77728571D02*
X134978572Y-76228571D01*
X134978572Y-77657143D02*
X134835715Y-77728571D01*
X134550001Y-77728571D01*
X134407143Y-77657143D01*
X134335715Y-77585714D01*
X134264286Y-77442857D01*
X134264286Y-77014286D01*
X134335715Y-76871429D01*
X134407143Y-76800000D01*
X134550001Y-76728571D01*
X134835715Y-76728571D01*
X134978572Y-76800000D01*
X136264286Y-77657143D02*
X136121429Y-77728571D01*
X135835715Y-77728571D01*
X135692858Y-77657143D01*
X135621429Y-77514286D01*
X135621429Y-76942857D01*
X135692858Y-76800000D01*
X135835715Y-76728571D01*
X136121429Y-76728571D01*
X136264286Y-76800000D01*
X136335715Y-76942857D01*
X136335715Y-77085714D01*
X135621429Y-77228571D01*
X136978572Y-76728571D02*
X136978572Y-77728571D01*
X136978572Y-76871429D02*
X137050000Y-76800000D01*
X137192858Y-76728571D01*
X137407143Y-76728571D01*
X137550000Y-76800000D01*
X137621429Y-76942857D01*
X137621429Y-77728571D01*
X139907143Y-78300000D02*
X139835715Y-78228571D01*
X139692858Y-78014286D01*
X139621429Y-77871429D01*
X139550000Y-77657143D01*
X139478572Y-77300000D01*
X139478572Y-77014286D01*
X139550000Y-76657143D01*
X139621429Y-76442857D01*
X139692858Y-76300000D01*
X139835715Y-76085714D01*
X139907143Y-76014286D01*
X140478572Y-77728571D02*
X140478572Y-76728571D01*
X140478572Y-76228571D02*
X140407143Y-76300000D01*
X140478572Y-76371429D01*
X140550000Y-76300000D01*
X140478572Y-76228571D01*
X140478572Y-76371429D01*
X141192858Y-76728571D02*
X141192858Y-77728571D01*
X141192858Y-76871429D02*
X141264286Y-76800000D01*
X141407144Y-76728571D01*
X141621429Y-76728571D01*
X141764286Y-76800000D01*
X141835715Y-76942857D01*
X141835715Y-77728571D01*
X142335715Y-76728571D02*
X142907144Y-76728571D01*
X142550001Y-77728571D02*
X142550001Y-76442857D01*
X142621429Y-76300000D01*
X142764287Y-76228571D01*
X142907144Y-76228571D01*
X143621430Y-77728571D02*
X143478572Y-77657143D01*
X143407144Y-77585714D01*
X143335715Y-77442857D01*
X143335715Y-77014286D01*
X143407144Y-76871429D01*
X143478572Y-76800000D01*
X143621430Y-76728571D01*
X143835715Y-76728571D01*
X143978572Y-76800000D01*
X144050001Y-76871429D01*
X144121430Y-77014286D01*
X144121430Y-77442857D01*
X144050001Y-77585714D01*
X143978572Y-77657143D01*
X143835715Y-77728571D01*
X143621430Y-77728571D01*
X145692858Y-77014286D02*
X145621430Y-76942857D01*
X145478573Y-76871429D01*
X145335715Y-76871429D01*
X145192858Y-76942857D01*
X145121430Y-77014286D01*
X145050001Y-77157143D01*
X145050001Y-77300000D01*
X145121430Y-77442857D01*
X145192858Y-77514286D01*
X145335715Y-77585714D01*
X145478573Y-77585714D01*
X145621430Y-77514286D01*
X145692858Y-77442857D01*
X145692858Y-76871429D02*
X145692858Y-77442857D01*
X145764287Y-77514286D01*
X145835715Y-77514286D01*
X145978573Y-77442857D01*
X146050001Y-77300000D01*
X146050001Y-76942857D01*
X145907144Y-76728571D01*
X145692858Y-76585714D01*
X145407144Y-76514286D01*
X145121430Y-76585714D01*
X144907144Y-76728571D01*
X144764287Y-76942857D01*
X144692858Y-77228571D01*
X144764287Y-77514286D01*
X144907144Y-77728571D01*
X145121430Y-77871429D01*
X145407144Y-77942857D01*
X145692858Y-77871429D01*
X145907144Y-77728571D01*
X146621429Y-77657143D02*
X146764286Y-77728571D01*
X147050001Y-77728571D01*
X147192858Y-77657143D01*
X147264286Y-77514286D01*
X147264286Y-77442857D01*
X147192858Y-77300000D01*
X147050001Y-77228571D01*
X146835715Y-77228571D01*
X146692858Y-77157143D01*
X146621429Y-77014286D01*
X146621429Y-76942857D01*
X146692858Y-76800000D01*
X146835715Y-76728571D01*
X147050001Y-76728571D01*
X147192858Y-76800000D01*
X147907144Y-77728571D02*
X147907144Y-76728571D01*
X147907144Y-76871429D02*
X147978572Y-76800000D01*
X148121430Y-76728571D01*
X148335715Y-76728571D01*
X148478572Y-76800000D01*
X148550001Y-76942857D01*
X148550001Y-77728571D01*
X148550001Y-76942857D02*
X148621430Y-76800000D01*
X148764287Y-76728571D01*
X148978572Y-76728571D01*
X149121430Y-76800000D01*
X149192858Y-76942857D01*
X149192858Y-77728571D01*
X150478572Y-77657143D02*
X150335715Y-77728571D01*
X150050001Y-77728571D01*
X149907144Y-77657143D01*
X149835715Y-77514286D01*
X149835715Y-76942857D01*
X149907144Y-76800000D01*
X150050001Y-76728571D01*
X150335715Y-76728571D01*
X150478572Y-76800000D01*
X150550001Y-76942857D01*
X150550001Y-77085714D01*
X149835715Y-77228571D01*
X151407144Y-77728571D02*
X151264286Y-77657143D01*
X151192858Y-77514286D01*
X151192858Y-76228571D01*
X152550000Y-77657143D02*
X152407143Y-77728571D01*
X152121429Y-77728571D01*
X151978572Y-77657143D01*
X151907143Y-77514286D01*
X151907143Y-76942857D01*
X151978572Y-76800000D01*
X152121429Y-76728571D01*
X152407143Y-76728571D01*
X152550000Y-76800000D01*
X152621429Y-76942857D01*
X152621429Y-77085714D01*
X151907143Y-77228571D01*
X153907143Y-77657143D02*
X153764286Y-77728571D01*
X153478572Y-77728571D01*
X153335714Y-77657143D01*
X153264286Y-77585714D01*
X153192857Y-77442857D01*
X153192857Y-77014286D01*
X153264286Y-76871429D01*
X153335714Y-76800000D01*
X153478572Y-76728571D01*
X153764286Y-76728571D01*
X153907143Y-76800000D01*
X154764286Y-77728571D02*
X154621428Y-77657143D01*
X154550000Y-77585714D01*
X154478571Y-77442857D01*
X154478571Y-77014286D01*
X154550000Y-76871429D01*
X154621428Y-76800000D01*
X154764286Y-76728571D01*
X154978571Y-76728571D01*
X155121428Y-76800000D01*
X155192857Y-76871429D01*
X155264286Y-77014286D01*
X155264286Y-77442857D01*
X155192857Y-77585714D01*
X155121428Y-77657143D01*
X154978571Y-77728571D01*
X154764286Y-77728571D01*
X155907143Y-77728571D02*
X155907143Y-76728571D01*
X155907143Y-76871429D02*
X155978571Y-76800000D01*
X156121429Y-76728571D01*
X156335714Y-76728571D01*
X156478571Y-76800000D01*
X156550000Y-76942857D01*
X156550000Y-77728571D01*
X156550000Y-76942857D02*
X156621429Y-76800000D01*
X156764286Y-76728571D01*
X156978571Y-76728571D01*
X157121429Y-76800000D01*
X157192857Y-76942857D01*
X157192857Y-77728571D01*
X157907143Y-76728571D02*
X157907143Y-78228571D01*
X157907143Y-76800000D02*
X158050000Y-76728571D01*
X158335714Y-76728571D01*
X158478571Y-76800000D01*
X158550000Y-76871429D01*
X158621429Y-77014286D01*
X158621429Y-77442857D01*
X158550000Y-77585714D01*
X158478571Y-77657143D01*
X158335714Y-77728571D01*
X158050000Y-77728571D01*
X157907143Y-77657143D01*
X159264286Y-77585714D02*
X159335714Y-77657143D01*
X159264286Y-77728571D01*
X159192857Y-77657143D01*
X159264286Y-77585714D01*
X159264286Y-77728571D01*
X160621429Y-77657143D02*
X160478572Y-77728571D01*
X160192858Y-77728571D01*
X160050000Y-77657143D01*
X159978572Y-77585714D01*
X159907143Y-77442857D01*
X159907143Y-77014286D01*
X159978572Y-76871429D01*
X160050000Y-76800000D01*
X160192858Y-76728571D01*
X160478572Y-76728571D01*
X160621429Y-76800000D01*
X161478572Y-77728571D02*
X161335714Y-77657143D01*
X161264286Y-77585714D01*
X161192857Y-77442857D01*
X161192857Y-77014286D01*
X161264286Y-76871429D01*
X161335714Y-76800000D01*
X161478572Y-76728571D01*
X161692857Y-76728571D01*
X161835714Y-76800000D01*
X161907143Y-76871429D01*
X161978572Y-77014286D01*
X161978572Y-77442857D01*
X161907143Y-77585714D01*
X161835714Y-77657143D01*
X161692857Y-77728571D01*
X161478572Y-77728571D01*
X162621429Y-77585714D02*
X162692857Y-77657143D01*
X162621429Y-77728571D01*
X162550000Y-77657143D01*
X162621429Y-77585714D01*
X162621429Y-77728571D01*
X163978572Y-76728571D02*
X163978572Y-77728571D01*
X163335715Y-76728571D02*
X163335715Y-77514286D01*
X163407143Y-77657143D01*
X163550001Y-77728571D01*
X163764286Y-77728571D01*
X163907143Y-77657143D01*
X163978572Y-77585714D01*
X164692858Y-77728571D02*
X164692858Y-76228571D01*
X164835715Y-77157143D02*
X165264286Y-77728571D01*
X165264286Y-76728571D02*
X164692858Y-77300000D01*
X165764287Y-78300000D02*
X165835715Y-78228571D01*
X165978572Y-78014286D01*
X166050001Y-77871429D01*
X166121430Y-77657143D01*
X166192858Y-77300000D01*
X166192858Y-77014286D01*
X166121430Y-76657143D01*
X166050001Y-76442857D01*
X165978572Y-76300000D01*
X165835715Y-76085714D01*
X165764287Y-76014286D01*
X132828571Y-41978571D02*
X132828571Y-40478571D01*
X133542857Y-41978571D02*
X133542857Y-40478571D01*
X134400000Y-41978571D01*
X134400000Y-40478571D01*
X135114286Y-41978571D02*
X135114286Y-40478571D01*
X135685714Y-40478571D01*
X135828572Y-40550000D01*
X135900000Y-40621429D01*
X135971429Y-40764286D01*
X135971429Y-40978571D01*
X135900000Y-41121429D01*
X135828572Y-41192857D01*
X135685714Y-41264286D01*
X135114286Y-41264286D01*
X136614286Y-40478571D02*
X136614286Y-41692857D01*
X136685714Y-41835714D01*
X136757143Y-41907143D01*
X136900000Y-41978571D01*
X137185714Y-41978571D01*
X137328572Y-41907143D01*
X137400000Y-41835714D01*
X137471429Y-41692857D01*
X137471429Y-40478571D01*
X137971429Y-40478571D02*
X138828572Y-40478571D01*
X138400001Y-41978571D02*
X138400001Y-40478571D01*
X140471429Y-41978571D02*
X140471429Y-40478571D01*
X141042857Y-40478571D01*
X141185715Y-40550000D01*
X141257143Y-40621429D01*
X141328572Y-40764286D01*
X141328572Y-40978571D01*
X141257143Y-41121429D01*
X141185715Y-41192857D01*
X141042857Y-41264286D01*
X140471429Y-41264286D01*
X141828572Y-40478571D02*
X142185715Y-41978571D01*
X142471429Y-40907143D01*
X142757143Y-41978571D01*
X143114286Y-40478571D01*
X144542858Y-41978571D02*
X144042858Y-41264286D01*
X143685715Y-41978571D02*
X143685715Y-40478571D01*
X144257143Y-40478571D01*
X144400001Y-40550000D01*
X144471429Y-40621429D01*
X144542858Y-40764286D01*
X144542858Y-40978571D01*
X144471429Y-41121429D01*
X144400001Y-41192857D01*
X144257143Y-41264286D01*
X143685715Y-41264286D01*
X96585715Y-42278571D02*
X95871429Y-42278571D01*
X95871429Y-40778571D01*
X97371429Y-40778571D02*
X97657143Y-40778571D01*
X97800001Y-40850000D01*
X97942858Y-40992857D01*
X98014286Y-41278571D01*
X98014286Y-41778571D01*
X97942858Y-42064286D01*
X97800001Y-42207143D01*
X97657143Y-42278571D01*
X97371429Y-42278571D01*
X97228572Y-42207143D01*
X97085715Y-42064286D01*
X97014286Y-41778571D01*
X97014286Y-41278571D01*
X97085715Y-40992857D01*
X97228572Y-40850000D01*
X97371429Y-40778571D01*
X98585715Y-41850000D02*
X99300001Y-41850000D01*
X98442858Y-42278571D02*
X98942858Y-40778571D01*
X99442858Y-42278571D01*
X99942858Y-42278571D02*
X99942858Y-40778571D01*
X100300001Y-40778571D01*
X100514286Y-40850000D01*
X100657144Y-40992857D01*
X100728572Y-41135714D01*
X100800001Y-41421429D01*
X100800001Y-41635714D01*
X100728572Y-41921429D01*
X100657144Y-42064286D01*
X100514286Y-42207143D01*
X100300001Y-42278571D01*
X99942858Y-42278571D01*
X109550001Y-41492857D02*
X109764287Y-41564286D01*
X109835715Y-41635714D01*
X109907144Y-41778571D01*
X109907144Y-41992857D01*
X109835715Y-42135714D01*
X109764287Y-42207143D01*
X109621429Y-42278571D01*
X109050001Y-42278571D01*
X109050001Y-40778571D01*
X109550001Y-40778571D01*
X109692858Y-40850000D01*
X109764287Y-40921429D01*
X109835715Y-41064286D01*
X109835715Y-41207143D01*
X109764287Y-41350000D01*
X109692858Y-41421429D01*
X109550001Y-41492857D01*
X109050001Y-41492857D01*
X110478572Y-41850000D02*
X111192858Y-41850000D01*
X110335715Y-42278571D02*
X110835715Y-40778571D01*
X111335715Y-42278571D01*
X111621429Y-40778571D02*
X112478572Y-40778571D01*
X112050001Y-42278571D02*
X112050001Y-40778571D01*
X112764286Y-40778571D02*
X113621429Y-40778571D01*
X113192858Y-42278571D02*
X113192858Y-40778571D01*
X114121429Y-41492857D02*
X114621429Y-41492857D01*
X114835715Y-42278571D02*
X114121429Y-42278571D01*
X114121429Y-40778571D01*
X114835715Y-40778571D01*
X116335715Y-42278571D02*
X115835715Y-41564286D01*
X115478572Y-42278571D02*
X115478572Y-40778571D01*
X116050000Y-40778571D01*
X116192858Y-40850000D01*
X116264286Y-40921429D01*
X116335715Y-41064286D01*
X116335715Y-41278571D01*
X116264286Y-41421429D01*
X116192858Y-41492857D01*
X116050000Y-41564286D01*
X115478572Y-41564286D01*
X117264286Y-41564286D02*
X117264286Y-42278571D01*
X116764286Y-40778571D02*
X117264286Y-41564286D01*
X117764286Y-40778571D01*
D12*
X104600000Y-71700000D02*
X104600000Y-58900000D01*
X114450000Y-71750000D02*
X101550000Y-71750000D01*
X101550000Y-71750000D02*
X101550000Y-58850000D01*
X101550000Y-58850000D02*
X114450000Y-58850000D01*
X114450000Y-58850000D02*
X114450000Y-71750000D01*
D13*
X128046000Y-62556000D02*
X126014000Y-62556000D01*
X126014000Y-63064000D02*
X128046000Y-63064000D01*
X128046000Y-62556000D02*
G75*
G03X127030000Y-61540000I-1016000J0D01*
G01*
X127030000Y-61540000D02*
G75*
G03X126014000Y-62556000I0J-1016000D01*
G01*
X126014000Y-63064000D02*
G75*
G03X127030000Y-64080000I1016000J0D01*
G01*
X127030000Y-64080000D02*
G75*
G03X128046000Y-63064000I0J1016000D01*
G01*
X124816000Y-62646000D02*
X122784000Y-62646000D01*
X122784000Y-63154000D02*
X124816000Y-63154000D01*
X124816000Y-62646000D02*
G75*
G03X123800000Y-61630000I-1016000J0D01*
G01*
X123800000Y-61630000D02*
G75*
G03X122784000Y-62646000I0J-1016000D01*
G01*
X122784000Y-63154000D02*
G75*
G03X123800000Y-64170000I1016000J0D01*
G01*
X123800000Y-64170000D02*
G75*
G03X124816000Y-63154000I0J1016000D01*
G01*
D14*
X93380000Y-77400000D02*
X93380000Y-78600000D01*
X91620000Y-78600000D02*
X91620000Y-77400000D01*
X93400000Y-57720000D02*
X94600000Y-57720000D01*
X94600000Y-59480000D02*
X93400000Y-59480000D01*
X139750000Y-63550000D02*
X138750000Y-63550000D01*
X138750000Y-65250000D02*
X139750000Y-65250000D01*
D15*
X145599560Y-54698980D02*
X132320440Y-54698980D01*
X132320440Y-54698980D02*
X132320440Y-42700020D01*
X132320440Y-42700020D02*
X145599560Y-42700020D01*
X145599560Y-42700020D02*
X145599560Y-54698980D01*
D14*
X60210000Y-70240000D02*
X62210000Y-70240000D01*
X62210000Y-72380000D02*
X60210000Y-72380000D01*
X89350000Y-78500000D02*
X89350000Y-77500000D01*
X87650000Y-77500000D02*
X87650000Y-78500000D01*
X67400000Y-60850000D02*
X68400000Y-60850000D01*
X68400000Y-59150000D02*
X67400000Y-59150000D01*
X61810000Y-66630000D02*
X60810000Y-66630000D01*
X60810000Y-68330000D02*
X61810000Y-68330000D01*
X91900000Y-64020000D02*
X93100000Y-64020000D01*
X93100000Y-65780000D02*
X91900000Y-65780000D01*
X66330000Y-70430000D02*
X67530000Y-70430000D01*
X67530000Y-72190000D02*
X66330000Y-72190000D01*
X95520000Y-69500000D02*
X95520000Y-68300000D01*
X97280000Y-68300000D02*
X97280000Y-69500000D01*
X76600000Y-63380000D02*
X75400000Y-63380000D01*
X75400000Y-61620000D02*
X76600000Y-61620000D01*
X65400000Y-61370000D02*
X66600000Y-61370000D01*
X66600000Y-63130000D02*
X65400000Y-63130000D01*
D15*
X104849560Y-54998980D02*
X91570440Y-54998980D01*
X91570440Y-54998980D02*
X91570440Y-43000020D01*
X91570440Y-43000020D02*
X104849560Y-43000020D01*
X104849560Y-43000020D02*
X104849560Y-54998980D01*
D12*
X86490000Y-50680000D02*
X86490000Y-41320000D01*
X86490000Y-41320000D02*
X54460000Y-41320000D01*
X54460000Y-41320000D02*
X54460000Y-50680000D01*
X86490000Y-50680000D02*
X84860000Y-50680000D01*
X54460000Y-50680000D02*
X56090000Y-50680000D01*
X82760000Y-50680000D02*
X81050000Y-50680000D01*
X78950000Y-50680000D02*
X77240000Y-50680000D01*
X75140000Y-50680000D02*
X73430000Y-50680000D01*
X71330000Y-50680000D02*
X69620000Y-50680000D01*
X67520000Y-50680000D02*
X65810000Y-50680000D01*
X63710000Y-50680000D02*
X62000000Y-50680000D01*
X59900000Y-50680000D02*
X58190000Y-50680000D01*
X86490000Y-44600000D02*
X54460000Y-44600000D01*
X83810000Y-51700000D02*
X83510000Y-52300000D01*
X83510000Y-52300000D02*
X84110000Y-52300000D01*
X84110000Y-52300000D02*
X83810000Y-51700000D01*
D15*
X120149560Y-54898980D02*
X106870440Y-54898980D01*
X106870440Y-54898980D02*
X106870440Y-42900020D01*
X106870440Y-42900020D02*
X120149560Y-42900020D01*
X120149560Y-42900020D02*
X120149560Y-54898980D01*
D16*
X82679048Y-74195476D02*
X82558095Y-74135000D01*
X82437143Y-74014048D01*
X82255714Y-73832619D01*
X82134762Y-73772143D01*
X82013810Y-73772143D01*
X82074286Y-74074524D02*
X81953333Y-74014048D01*
X81832381Y-73893095D01*
X81771905Y-73651190D01*
X81771905Y-73227857D01*
X81832381Y-72985952D01*
X81953333Y-72865000D01*
X82074286Y-72804524D01*
X82316190Y-72804524D01*
X82437143Y-72865000D01*
X82558095Y-72985952D01*
X82618571Y-73227857D01*
X82618571Y-73651190D01*
X82558095Y-73893095D01*
X82437143Y-74014048D01*
X82316190Y-74074524D01*
X82074286Y-74074524D01*
X83828095Y-74074524D02*
X83102381Y-74074524D01*
X83465238Y-74074524D02*
X83465238Y-72804524D01*
X83344286Y-72985952D01*
X83223333Y-73106905D01*
X83102381Y-73167381D01*
D12*
X107833334Y-58052381D02*
X107357143Y-58052381D01*
X107357143Y-57052381D01*
X108690477Y-58052381D02*
X108119048Y-58052381D01*
X108404762Y-58052381D02*
X108404762Y-57052381D01*
X108309524Y-57195238D01*
X108214286Y-57290476D01*
X108119048Y-57338095D01*
D17*
X126355001Y-64512714D02*
X126355001Y-65057000D01*
X126318715Y-65165857D01*
X126246144Y-65238429D01*
X126137287Y-65274714D01*
X126064715Y-65274714D01*
X126717858Y-65274714D02*
X126717858Y-64512714D01*
X127008143Y-64512714D01*
X127080715Y-64549000D01*
X127117000Y-64585286D01*
X127153286Y-64657857D01*
X127153286Y-64766714D01*
X127117000Y-64839286D01*
X127080715Y-64875571D01*
X127008143Y-64911857D01*
X126717858Y-64911857D01*
X127879000Y-65274714D02*
X127443572Y-65274714D01*
X127661286Y-65274714D02*
X127661286Y-64512714D01*
X127588715Y-64621571D01*
X127516143Y-64694143D01*
X127443572Y-64730429D01*
X123165001Y-64442714D02*
X123165001Y-64987000D01*
X123128715Y-65095857D01*
X123056144Y-65168429D01*
X122947287Y-65204714D01*
X122874715Y-65204714D01*
X123527858Y-65204714D02*
X123527858Y-64442714D01*
X123818143Y-64442714D01*
X123890715Y-64479000D01*
X123927000Y-64515286D01*
X123963286Y-64587857D01*
X123963286Y-64696714D01*
X123927000Y-64769286D01*
X123890715Y-64805571D01*
X123818143Y-64841857D01*
X123527858Y-64841857D01*
X124253572Y-64515286D02*
X124289858Y-64479000D01*
X124362429Y-64442714D01*
X124543858Y-64442714D01*
X124616429Y-64479000D01*
X124652715Y-64515286D01*
X124689000Y-64587857D01*
X124689000Y-64660429D01*
X124652715Y-64769286D01*
X124217286Y-65204714D01*
X124689000Y-65204714D01*
D12*
X90433334Y-77452381D02*
X90100000Y-76976190D01*
X89861905Y-77452381D02*
X89861905Y-76452381D01*
X90242858Y-76452381D01*
X90338096Y-76500000D01*
X90385715Y-76547619D01*
X90433334Y-76642857D01*
X90433334Y-76785714D01*
X90385715Y-76880952D01*
X90338096Y-76928571D01*
X90242858Y-76976190D01*
X89861905Y-76976190D01*
X90766667Y-76452381D02*
X91433334Y-76452381D01*
X91004762Y-77452381D01*
X93833334Y-60702381D02*
X93500000Y-60226190D01*
X93261905Y-60702381D02*
X93261905Y-59702381D01*
X93642858Y-59702381D01*
X93738096Y-59750000D01*
X93785715Y-59797619D01*
X93833334Y-59892857D01*
X93833334Y-60035714D01*
X93785715Y-60130952D01*
X93738096Y-60178571D01*
X93642858Y-60226190D01*
X93261905Y-60226190D01*
X94404762Y-60130952D02*
X94309524Y-60083333D01*
X94261905Y-60035714D01*
X94214286Y-59940476D01*
X94214286Y-59892857D01*
X94261905Y-59797619D01*
X94309524Y-59750000D01*
X94404762Y-59702381D01*
X94595239Y-59702381D01*
X94690477Y-59750000D01*
X94738096Y-59797619D01*
X94785715Y-59892857D01*
X94785715Y-59940476D01*
X94738096Y-60035714D01*
X94690477Y-60083333D01*
X94595239Y-60130952D01*
X94404762Y-60130952D01*
X94309524Y-60178571D01*
X94261905Y-60226190D01*
X94214286Y-60321429D01*
X94214286Y-60511905D01*
X94261905Y-60607143D01*
X94309524Y-60654762D01*
X94404762Y-60702381D01*
X94595239Y-60702381D01*
X94690477Y-60654762D01*
X94738096Y-60607143D01*
X94785715Y-60511905D01*
X94785715Y-60321429D01*
X94738096Y-60226190D01*
X94690477Y-60178571D01*
X94595239Y-60130952D01*
X139083334Y-63257143D02*
X139035715Y-63304762D01*
X138892858Y-63352381D01*
X138797620Y-63352381D01*
X138654762Y-63304762D01*
X138559524Y-63209524D01*
X138511905Y-63114286D01*
X138464286Y-62923810D01*
X138464286Y-62780952D01*
X138511905Y-62590476D01*
X138559524Y-62495238D01*
X138654762Y-62400000D01*
X138797620Y-62352381D01*
X138892858Y-62352381D01*
X139035715Y-62400000D01*
X139083334Y-62447619D01*
X140035715Y-63352381D02*
X139464286Y-63352381D01*
X139750000Y-63352381D02*
X139750000Y-62352381D01*
X139654762Y-62495238D01*
X139559524Y-62590476D01*
X139464286Y-62638095D01*
X132646286Y-53316857D02*
X132864000Y-53389429D01*
X133226857Y-53389429D01*
X133372000Y-53316857D01*
X133444571Y-53244286D01*
X133517143Y-53099143D01*
X133517143Y-52954000D01*
X133444571Y-52808857D01*
X133372000Y-52736286D01*
X133226857Y-52663714D01*
X132936571Y-52591143D01*
X132791429Y-52518571D01*
X132718857Y-52446000D01*
X132646286Y-52300857D01*
X132646286Y-52155714D01*
X132718857Y-52010571D01*
X132791429Y-51938000D01*
X132936571Y-51865429D01*
X133299429Y-51865429D01*
X133517143Y-51938000D01*
X134170286Y-53389429D02*
X134170286Y-51865429D01*
X135041143Y-53389429D02*
X134388000Y-52518571D01*
X135041143Y-51865429D02*
X134170286Y-52736286D01*
X135476572Y-51865429D02*
X136347429Y-51865429D01*
X135912000Y-53389429D02*
X135912000Y-51865429D01*
X137653715Y-53389429D02*
X136782858Y-53389429D01*
X137218286Y-53389429D02*
X137218286Y-51865429D01*
X137073143Y-52083143D01*
X136928001Y-52228286D01*
X136782858Y-52300857D01*
X59924286Y-72612381D02*
X60495715Y-72612381D01*
X60210000Y-73612381D02*
X60210000Y-72612381D01*
X60829048Y-73612381D02*
X60829048Y-72612381D01*
X60829048Y-73088571D02*
X61400477Y-73088571D01*
X61400477Y-73612381D02*
X61400477Y-72612381D01*
X62400477Y-73612381D02*
X61829048Y-73612381D01*
X62114762Y-73612381D02*
X62114762Y-72612381D01*
X62019524Y-72755238D01*
X61924286Y-72850476D01*
X61829048Y-72898095D01*
X86733334Y-77357143D02*
X86685715Y-77404762D01*
X86542858Y-77452381D01*
X86447620Y-77452381D01*
X86304762Y-77404762D01*
X86209524Y-77309524D01*
X86161905Y-77214286D01*
X86114286Y-77023810D01*
X86114286Y-76880952D01*
X86161905Y-76690476D01*
X86209524Y-76595238D01*
X86304762Y-76500000D01*
X86447620Y-76452381D01*
X86542858Y-76452381D01*
X86685715Y-76500000D01*
X86733334Y-76547619D01*
X87066667Y-76452381D02*
X87685715Y-76452381D01*
X87352381Y-76833333D01*
X87495239Y-76833333D01*
X87590477Y-76880952D01*
X87638096Y-76928571D01*
X87685715Y-77023810D01*
X87685715Y-77261905D01*
X87638096Y-77357143D01*
X87590477Y-77404762D01*
X87495239Y-77452381D01*
X87209524Y-77452381D01*
X87114286Y-77404762D01*
X87066667Y-77357143D01*
X67733334Y-61857143D02*
X67685715Y-61904762D01*
X67542858Y-61952381D01*
X67447620Y-61952381D01*
X67304762Y-61904762D01*
X67209524Y-61809524D01*
X67161905Y-61714286D01*
X67114286Y-61523810D01*
X67114286Y-61380952D01*
X67161905Y-61190476D01*
X67209524Y-61095238D01*
X67304762Y-61000000D01*
X67447620Y-60952381D01*
X67542858Y-60952381D01*
X67685715Y-61000000D01*
X67733334Y-61047619D01*
X68590477Y-61285714D02*
X68590477Y-61952381D01*
X68352381Y-60904762D02*
X68114286Y-61619048D01*
X68733334Y-61619048D01*
X61143334Y-66337143D02*
X61095715Y-66384762D01*
X60952858Y-66432381D01*
X60857620Y-66432381D01*
X60714762Y-66384762D01*
X60619524Y-66289524D01*
X60571905Y-66194286D01*
X60524286Y-66003810D01*
X60524286Y-65860952D01*
X60571905Y-65670476D01*
X60619524Y-65575238D01*
X60714762Y-65480000D01*
X60857620Y-65432381D01*
X60952858Y-65432381D01*
X61095715Y-65480000D01*
X61143334Y-65527619D01*
X62048096Y-65432381D02*
X61571905Y-65432381D01*
X61524286Y-65908571D01*
X61571905Y-65860952D01*
X61667143Y-65813333D01*
X61905239Y-65813333D01*
X62000477Y-65860952D01*
X62048096Y-65908571D01*
X62095715Y-66003810D01*
X62095715Y-66241905D01*
X62048096Y-66337143D01*
X62000477Y-66384762D01*
X61905239Y-66432381D01*
X61667143Y-66432381D01*
X61571905Y-66384762D01*
X61524286Y-66337143D01*
X92333334Y-67002381D02*
X92000000Y-66526190D01*
X91761905Y-67002381D02*
X91761905Y-66002381D01*
X92142858Y-66002381D01*
X92238096Y-66050000D01*
X92285715Y-66097619D01*
X92333334Y-66192857D01*
X92333334Y-66335714D01*
X92285715Y-66430952D01*
X92238096Y-66478571D01*
X92142858Y-66526190D01*
X91761905Y-66526190D01*
X92809524Y-67002381D02*
X93000000Y-67002381D01*
X93095239Y-66954762D01*
X93142858Y-66907143D01*
X93238096Y-66764286D01*
X93285715Y-66573810D01*
X93285715Y-66192857D01*
X93238096Y-66097619D01*
X93190477Y-66050000D01*
X93095239Y-66002381D01*
X92904762Y-66002381D01*
X92809524Y-66050000D01*
X92761905Y-66097619D01*
X92714286Y-66192857D01*
X92714286Y-66430952D01*
X92761905Y-66526190D01*
X92809524Y-66573810D01*
X92904762Y-66621429D01*
X93095239Y-66621429D01*
X93190477Y-66573810D01*
X93238096Y-66526190D01*
X93285715Y-66430952D01*
X66287143Y-73412381D02*
X65953809Y-72936190D01*
X65715714Y-73412381D02*
X65715714Y-72412381D01*
X66096667Y-72412381D01*
X66191905Y-72460000D01*
X66239524Y-72507619D01*
X66287143Y-72602857D01*
X66287143Y-72745714D01*
X66239524Y-72840952D01*
X66191905Y-72888571D01*
X66096667Y-72936190D01*
X65715714Y-72936190D01*
X67239524Y-73412381D02*
X66668095Y-73412381D01*
X66953809Y-73412381D02*
X66953809Y-72412381D01*
X66858571Y-72555238D01*
X66763333Y-72650476D01*
X66668095Y-72698095D01*
X68191905Y-73412381D02*
X67620476Y-73412381D01*
X67906190Y-73412381D02*
X67906190Y-72412381D01*
X67810952Y-72555238D01*
X67715714Y-72650476D01*
X67620476Y-72698095D01*
X98502381Y-69542857D02*
X98026190Y-69876191D01*
X98502381Y-70114286D02*
X97502381Y-70114286D01*
X97502381Y-69733333D01*
X97550000Y-69638095D01*
X97597619Y-69590476D01*
X97692857Y-69542857D01*
X97835714Y-69542857D01*
X97930952Y-69590476D01*
X97978571Y-69638095D01*
X98026190Y-69733333D01*
X98026190Y-70114286D01*
X98502381Y-68590476D02*
X98502381Y-69161905D01*
X98502381Y-68876191D02*
X97502381Y-68876191D01*
X97645238Y-68971429D01*
X97740476Y-69066667D01*
X97788095Y-69161905D01*
X97597619Y-68209524D02*
X97550000Y-68161905D01*
X97502381Y-68066667D01*
X97502381Y-67828571D01*
X97550000Y-67733333D01*
X97597619Y-67685714D01*
X97692857Y-67638095D01*
X97788095Y-67638095D01*
X97930952Y-67685714D01*
X98502381Y-68257143D01*
X98502381Y-67638095D01*
X75357143Y-61302381D02*
X75023809Y-60826190D01*
X74785714Y-61302381D02*
X74785714Y-60302381D01*
X75166667Y-60302381D01*
X75261905Y-60350000D01*
X75309524Y-60397619D01*
X75357143Y-60492857D01*
X75357143Y-60635714D01*
X75309524Y-60730952D01*
X75261905Y-60778571D01*
X75166667Y-60826190D01*
X74785714Y-60826190D01*
X76309524Y-61302381D02*
X75738095Y-61302381D01*
X76023809Y-61302381D02*
X76023809Y-60302381D01*
X75928571Y-60445238D01*
X75833333Y-60540476D01*
X75738095Y-60588095D01*
X77166667Y-60635714D02*
X77166667Y-61302381D01*
X76928571Y-60254762D02*
X76690476Y-60969048D01*
X77309524Y-60969048D01*
X65357143Y-64352381D02*
X65023809Y-63876190D01*
X64785714Y-64352381D02*
X64785714Y-63352381D01*
X65166667Y-63352381D01*
X65261905Y-63400000D01*
X65309524Y-63447619D01*
X65357143Y-63542857D01*
X65357143Y-63685714D01*
X65309524Y-63780952D01*
X65261905Y-63828571D01*
X65166667Y-63876190D01*
X64785714Y-63876190D01*
X66309524Y-64352381D02*
X65738095Y-64352381D01*
X66023809Y-64352381D02*
X66023809Y-63352381D01*
X65928571Y-63495238D01*
X65833333Y-63590476D01*
X65738095Y-63638095D01*
X67214286Y-63352381D02*
X66738095Y-63352381D01*
X66690476Y-63828571D01*
X66738095Y-63780952D01*
X66833333Y-63733333D01*
X67071429Y-63733333D01*
X67166667Y-63780952D01*
X67214286Y-63828571D01*
X67261905Y-63923810D01*
X67261905Y-64161905D01*
X67214286Y-64257143D01*
X67166667Y-64304762D01*
X67071429Y-64352381D01*
X66833333Y-64352381D01*
X66738095Y-64304762D01*
X66690476Y-64257143D01*
X91896286Y-53616857D02*
X92114000Y-53689429D01*
X92476857Y-53689429D01*
X92622000Y-53616857D01*
X92694571Y-53544286D01*
X92767143Y-53399143D01*
X92767143Y-53254000D01*
X92694571Y-53108857D01*
X92622000Y-53036286D01*
X92476857Y-52963714D01*
X92186571Y-52891143D01*
X92041429Y-52818571D01*
X91968857Y-52746000D01*
X91896286Y-52600857D01*
X91896286Y-52455714D01*
X91968857Y-52310571D01*
X92041429Y-52238000D01*
X92186571Y-52165429D01*
X92549429Y-52165429D01*
X92767143Y-52238000D01*
X93420286Y-53689429D02*
X93420286Y-52165429D01*
X94291143Y-53689429D02*
X93638000Y-52818571D01*
X94291143Y-52165429D02*
X93420286Y-53036286D01*
X94726572Y-52165429D02*
X95597429Y-52165429D01*
X95162000Y-53689429D02*
X95162000Y-52165429D01*
X96032858Y-52310571D02*
X96105429Y-52238000D01*
X96250572Y-52165429D01*
X96613429Y-52165429D01*
X96758572Y-52238000D01*
X96831143Y-52310571D01*
X96903715Y-52455714D01*
X96903715Y-52600857D01*
X96831143Y-52818571D01*
X95960286Y-53689429D01*
X96903715Y-53689429D01*
X67957143Y-43504762D02*
X68100000Y-43552381D01*
X68338096Y-43552381D01*
X68433334Y-43504762D01*
X68480953Y-43457143D01*
X68528572Y-43361905D01*
X68528572Y-43266667D01*
X68480953Y-43171429D01*
X68433334Y-43123810D01*
X68338096Y-43076190D01*
X68147619Y-43028571D01*
X68052381Y-42980952D01*
X68004762Y-42933333D01*
X67957143Y-42838095D01*
X67957143Y-42742857D01*
X68004762Y-42647619D01*
X68052381Y-42600000D01*
X68147619Y-42552381D01*
X68385715Y-42552381D01*
X68528572Y-42600000D01*
X68957143Y-43552381D02*
X68957143Y-42552381D01*
X69528572Y-43552381D02*
X69100000Y-42980952D01*
X69528572Y-42552381D02*
X68957143Y-43123810D01*
X69814286Y-42552381D02*
X70385715Y-42552381D01*
X70100000Y-43552381D02*
X70100000Y-42552381D01*
X70623810Y-42552381D02*
X71242858Y-42552381D01*
X70909524Y-42933333D01*
X71052382Y-42933333D01*
X71147620Y-42980952D01*
X71195239Y-43028571D01*
X71242858Y-43123810D01*
X71242858Y-43361905D01*
X71195239Y-43457143D01*
X71147620Y-43504762D01*
X71052382Y-43552381D01*
X70766667Y-43552381D01*
X70671429Y-43504762D01*
X70623810Y-43457143D01*
X107196286Y-53516857D02*
X107414000Y-53589429D01*
X107776857Y-53589429D01*
X107922000Y-53516857D01*
X107994571Y-53444286D01*
X108067143Y-53299143D01*
X108067143Y-53154000D01*
X107994571Y-53008857D01*
X107922000Y-52936286D01*
X107776857Y-52863714D01*
X107486571Y-52791143D01*
X107341429Y-52718571D01*
X107268857Y-52646000D01*
X107196286Y-52500857D01*
X107196286Y-52355714D01*
X107268857Y-52210571D01*
X107341429Y-52138000D01*
X107486571Y-52065429D01*
X107849429Y-52065429D01*
X108067143Y-52138000D01*
X108720286Y-53589429D02*
X108720286Y-52065429D01*
X109591143Y-53589429D02*
X108938000Y-52718571D01*
X109591143Y-52065429D02*
X108720286Y-52936286D01*
X110026572Y-52065429D02*
X110897429Y-52065429D01*
X110462000Y-53589429D02*
X110462000Y-52065429D01*
X112058572Y-52573429D02*
X112058572Y-53589429D01*
X111695715Y-51992857D02*
X111332858Y-53081429D01*
X112276286Y-53081429D01*
M02*
